G04 #@! TF.GenerationSoftware,KiCad,Pcbnew,(5.0.2)-1*
G04 #@! TF.CreationDate,2018-12-23T16:39:48-05:00*
G04 #@! TF.ProjectId,cardEmulator,63617264-456d-4756-9c61-746f722e6b69,rev?*
G04 #@! TF.SameCoordinates,Original*
G04 #@! TF.FileFunction,Soldermask,Top*
G04 #@! TF.FilePolarity,Negative*
%FSLAX46Y46*%
G04 Gerber Fmt 4.6, Leading zero omitted, Abs format (unit mm)*
G04 Created by KiCad (PCBNEW (5.0.2)-1) date 12/23/2018 4:39:48 PM*
%MOMM*%
%LPD*%
G01*
G04 APERTURE LIST*
%ADD10C,0.100000*%
G04 APERTURE END LIST*
D10*
G36*
X119417800Y-105406300D02*
X118716200Y-105406300D01*
X118716200Y-104854700D01*
X119417800Y-104854700D01*
X119417800Y-105406300D01*
X119417800Y-105406300D01*
G37*
G36*
X117317800Y-105406300D02*
X116616200Y-105406300D01*
X116616200Y-104854700D01*
X117317800Y-104854700D01*
X117317800Y-105406300D01*
X117317800Y-105406300D01*
G37*
G36*
X121027981Y-104101268D02*
X121071375Y-104114432D01*
X121111368Y-104135809D01*
X121146423Y-104164577D01*
X121175191Y-104199632D01*
X121196568Y-104239625D01*
X121209732Y-104283019D01*
X121214300Y-104329400D01*
X121214300Y-104915600D01*
X121209732Y-104961981D01*
X121196568Y-105005375D01*
X121175191Y-105045368D01*
X121146423Y-105080423D01*
X121111368Y-105109191D01*
X121071375Y-105130568D01*
X121027981Y-105143732D01*
X120981600Y-105148300D01*
X120470400Y-105148300D01*
X120424019Y-105143732D01*
X120380625Y-105130568D01*
X120340632Y-105109191D01*
X120305577Y-105080423D01*
X120276809Y-105045368D01*
X120255432Y-105005375D01*
X120242268Y-104961981D01*
X120237700Y-104915600D01*
X120237700Y-104329400D01*
X120242268Y-104283019D01*
X120255432Y-104239625D01*
X120276809Y-104199632D01*
X120305577Y-104164577D01*
X120340632Y-104135809D01*
X120380625Y-104114432D01*
X120424019Y-104101268D01*
X120470400Y-104096700D01*
X120981600Y-104096700D01*
X121027981Y-104101268D01*
X121027981Y-104101268D01*
G37*
G36*
X122602981Y-104101268D02*
X122646375Y-104114432D01*
X122686368Y-104135809D01*
X122721423Y-104164577D01*
X122750191Y-104199632D01*
X122771568Y-104239625D01*
X122784732Y-104283019D01*
X122789300Y-104329400D01*
X122789300Y-104915600D01*
X122784732Y-104961981D01*
X122771568Y-105005375D01*
X122750191Y-105045368D01*
X122721423Y-105080423D01*
X122686368Y-105109191D01*
X122646375Y-105130568D01*
X122602981Y-105143732D01*
X122556600Y-105148300D01*
X122045400Y-105148300D01*
X121999019Y-105143732D01*
X121955625Y-105130568D01*
X121915632Y-105109191D01*
X121880577Y-105080423D01*
X121851809Y-105045368D01*
X121830432Y-105005375D01*
X121817268Y-104961981D01*
X121812700Y-104915600D01*
X121812700Y-104329400D01*
X121817268Y-104283019D01*
X121830432Y-104239625D01*
X121851809Y-104199632D01*
X121880577Y-104164577D01*
X121915632Y-104135809D01*
X121955625Y-104114432D01*
X121999019Y-104101268D01*
X122045400Y-104096700D01*
X122556600Y-104096700D01*
X122602981Y-104101268D01*
X122602981Y-104101268D01*
G37*
G36*
X113915981Y-103847268D02*
X113959375Y-103860432D01*
X113999368Y-103881809D01*
X114034423Y-103910577D01*
X114063191Y-103945632D01*
X114084568Y-103985625D01*
X114097732Y-104029019D01*
X114102300Y-104075400D01*
X114102300Y-104661600D01*
X114097732Y-104707981D01*
X114084568Y-104751375D01*
X114063191Y-104791368D01*
X114034423Y-104826423D01*
X113999368Y-104855191D01*
X113959375Y-104876568D01*
X113915981Y-104889732D01*
X113869600Y-104894300D01*
X113358400Y-104894300D01*
X113312019Y-104889732D01*
X113268625Y-104876568D01*
X113228632Y-104855191D01*
X113193577Y-104826423D01*
X113164809Y-104791368D01*
X113143432Y-104751375D01*
X113130268Y-104707981D01*
X113125700Y-104661600D01*
X113125700Y-104075400D01*
X113130268Y-104029019D01*
X113143432Y-103985625D01*
X113164809Y-103945632D01*
X113193577Y-103910577D01*
X113228632Y-103881809D01*
X113268625Y-103860432D01*
X113312019Y-103847268D01*
X113358400Y-103842700D01*
X113869600Y-103842700D01*
X113915981Y-103847268D01*
X113915981Y-103847268D01*
G37*
G36*
X115490981Y-103847268D02*
X115534375Y-103860432D01*
X115574368Y-103881809D01*
X115609423Y-103910577D01*
X115638191Y-103945632D01*
X115659568Y-103985625D01*
X115672732Y-104029019D01*
X115677300Y-104075400D01*
X115677300Y-104661600D01*
X115672732Y-104707981D01*
X115659568Y-104751375D01*
X115638191Y-104791368D01*
X115609423Y-104826423D01*
X115574368Y-104855191D01*
X115534375Y-104876568D01*
X115490981Y-104889732D01*
X115444600Y-104894300D01*
X114933400Y-104894300D01*
X114887019Y-104889732D01*
X114843625Y-104876568D01*
X114803632Y-104855191D01*
X114768577Y-104826423D01*
X114739809Y-104791368D01*
X114718432Y-104751375D01*
X114705268Y-104707981D01*
X114700700Y-104661600D01*
X114700700Y-104075400D01*
X114705268Y-104029019D01*
X114718432Y-103985625D01*
X114739809Y-103945632D01*
X114768577Y-103910577D01*
X114803632Y-103881809D01*
X114843625Y-103860432D01*
X114887019Y-103847268D01*
X114933400Y-103842700D01*
X115444600Y-103842700D01*
X115490981Y-103847268D01*
X115490981Y-103847268D01*
G37*
G36*
X121573800Y-103771300D02*
X119472200Y-103771300D01*
X119472200Y-102869700D01*
X121573800Y-102869700D01*
X121573800Y-103771300D01*
X121573800Y-103771300D01*
G37*
G36*
X122767481Y-102411768D02*
X122810875Y-102424932D01*
X122850868Y-102446309D01*
X122885923Y-102475077D01*
X122914691Y-102510132D01*
X122936068Y-102550125D01*
X122949232Y-102593519D01*
X122953800Y-102639900D01*
X122953800Y-103151100D01*
X122949232Y-103197481D01*
X122936068Y-103240875D01*
X122914691Y-103280868D01*
X122885923Y-103315923D01*
X122850868Y-103344691D01*
X122810875Y-103366068D01*
X122767481Y-103379232D01*
X122721100Y-103383800D01*
X122134900Y-103383800D01*
X122088519Y-103379232D01*
X122045125Y-103366068D01*
X122005132Y-103344691D01*
X121970077Y-103315923D01*
X121941309Y-103280868D01*
X121919932Y-103240875D01*
X121906768Y-103197481D01*
X121902200Y-103151100D01*
X121902200Y-102639900D01*
X121906768Y-102593519D01*
X121919932Y-102550125D01*
X121941309Y-102510132D01*
X121970077Y-102475077D01*
X122005132Y-102446309D01*
X122045125Y-102424932D01*
X122088519Y-102411768D01*
X122134900Y-102407200D01*
X122721100Y-102407200D01*
X122767481Y-102411768D01*
X122767481Y-102411768D01*
G37*
G36*
X113966981Y-102323268D02*
X114010375Y-102336432D01*
X114050368Y-102357809D01*
X114085423Y-102386577D01*
X114114191Y-102421632D01*
X114135568Y-102461625D01*
X114148732Y-102505019D01*
X114153300Y-102551400D01*
X114153300Y-103137600D01*
X114148732Y-103183981D01*
X114135568Y-103227375D01*
X114114191Y-103267368D01*
X114085423Y-103302423D01*
X114050368Y-103331191D01*
X114010375Y-103352568D01*
X113966981Y-103365732D01*
X113920600Y-103370300D01*
X113409400Y-103370300D01*
X113363019Y-103365732D01*
X113319625Y-103352568D01*
X113279632Y-103331191D01*
X113244577Y-103302423D01*
X113215809Y-103267368D01*
X113194432Y-103227375D01*
X113181268Y-103183981D01*
X113176700Y-103137600D01*
X113176700Y-102551400D01*
X113181268Y-102505019D01*
X113194432Y-102461625D01*
X113215809Y-102421632D01*
X113244577Y-102386577D01*
X113279632Y-102357809D01*
X113319625Y-102336432D01*
X113363019Y-102323268D01*
X113409400Y-102318700D01*
X113920600Y-102318700D01*
X113966981Y-102323268D01*
X113966981Y-102323268D01*
G37*
G36*
X115541981Y-102323268D02*
X115585375Y-102336432D01*
X115625368Y-102357809D01*
X115660423Y-102386577D01*
X115689191Y-102421632D01*
X115710568Y-102461625D01*
X115723732Y-102505019D01*
X115728300Y-102551400D01*
X115728300Y-103137600D01*
X115723732Y-103183981D01*
X115710568Y-103227375D01*
X115689191Y-103267368D01*
X115660423Y-103302423D01*
X115625368Y-103331191D01*
X115585375Y-103352568D01*
X115541981Y-103365732D01*
X115495600Y-103370300D01*
X114984400Y-103370300D01*
X114938019Y-103365732D01*
X114894625Y-103352568D01*
X114854632Y-103331191D01*
X114819577Y-103302423D01*
X114790809Y-103267368D01*
X114769432Y-103227375D01*
X114756268Y-103183981D01*
X114751700Y-103137600D01*
X114751700Y-102551400D01*
X114756268Y-102505019D01*
X114769432Y-102461625D01*
X114790809Y-102421632D01*
X114819577Y-102386577D01*
X114854632Y-102357809D01*
X114894625Y-102336432D01*
X114938019Y-102323268D01*
X114984400Y-102318700D01*
X115495600Y-102318700D01*
X115541981Y-102323268D01*
X115541981Y-102323268D01*
G37*
G36*
X117163800Y-103313300D02*
X116262200Y-103313300D01*
X116262200Y-102311700D01*
X117163800Y-102311700D01*
X117163800Y-103313300D01*
X117163800Y-103313300D01*
G37*
G36*
X119063800Y-103313300D02*
X118162200Y-103313300D01*
X118162200Y-102311700D01*
X119063800Y-102311700D01*
X119063800Y-103313300D01*
X119063800Y-103313300D01*
G37*
G36*
X122767481Y-100836768D02*
X122810875Y-100849932D01*
X122850868Y-100871309D01*
X122885923Y-100900077D01*
X122914691Y-100935132D01*
X122936068Y-100975125D01*
X122949232Y-101018519D01*
X122953800Y-101064900D01*
X122953800Y-101576100D01*
X122949232Y-101622481D01*
X122936068Y-101665875D01*
X122914691Y-101705868D01*
X122885923Y-101740923D01*
X122850868Y-101769691D01*
X122810875Y-101791068D01*
X122767481Y-101804232D01*
X122721100Y-101808800D01*
X122134900Y-101808800D01*
X122088519Y-101804232D01*
X122045125Y-101791068D01*
X122005132Y-101769691D01*
X121970077Y-101740923D01*
X121941309Y-101705868D01*
X121919932Y-101665875D01*
X121906768Y-101622481D01*
X121902200Y-101576100D01*
X121902200Y-101064900D01*
X121906768Y-101018519D01*
X121919932Y-100975125D01*
X121941309Y-100935132D01*
X121970077Y-100900077D01*
X122005132Y-100871309D01*
X122045125Y-100849932D01*
X122088519Y-100836768D01*
X122134900Y-100832200D01*
X122721100Y-100832200D01*
X122767481Y-100836768D01*
X122767481Y-100836768D01*
G37*
G36*
X121573800Y-101771300D02*
X119472200Y-101771300D01*
X119472200Y-100869700D01*
X121573800Y-100869700D01*
X121573800Y-101771300D01*
X121573800Y-101771300D01*
G37*
G36*
X118113800Y-101313300D02*
X117212200Y-101313300D01*
X117212200Y-100311700D01*
X118113800Y-100311700D01*
X118113800Y-101313300D01*
X118113800Y-101313300D01*
G37*
G36*
X119383800Y-100265300D02*
X118482200Y-100265300D01*
X118482200Y-99263700D01*
X119383800Y-99263700D01*
X119383800Y-100265300D01*
X119383800Y-100265300D01*
G37*
G36*
X114129463Y-97409722D02*
X114177286Y-97424229D01*
X114221366Y-97447791D01*
X114260002Y-97479498D01*
X114291709Y-97518134D01*
X114315271Y-97562214D01*
X114329778Y-97610037D01*
X114334800Y-97661030D01*
X114334800Y-99899970D01*
X114329778Y-99950963D01*
X114315271Y-99998786D01*
X114291709Y-100042866D01*
X114260002Y-100081502D01*
X114221366Y-100113209D01*
X114177286Y-100136771D01*
X114129463Y-100151278D01*
X114078470Y-100156300D01*
X113239530Y-100156300D01*
X113188537Y-100151278D01*
X113140714Y-100136771D01*
X113096634Y-100113209D01*
X113057998Y-100081502D01*
X113026291Y-100042866D01*
X113002729Y-99998786D01*
X112988222Y-99950963D01*
X112983200Y-99899970D01*
X112983200Y-97661030D01*
X112988222Y-97610037D01*
X113002729Y-97562214D01*
X113026291Y-97518134D01*
X113057998Y-97479498D01*
X113096634Y-97447791D01*
X113140714Y-97424229D01*
X113188537Y-97409722D01*
X113239530Y-97404700D01*
X114078470Y-97404700D01*
X114129463Y-97409722D01*
X114129463Y-97409722D01*
G37*
G36*
X116929463Y-97409722D02*
X116977286Y-97424229D01*
X117021366Y-97447791D01*
X117060002Y-97479498D01*
X117091709Y-97518134D01*
X117115271Y-97562214D01*
X117129778Y-97610037D01*
X117134800Y-97661030D01*
X117134800Y-99899970D01*
X117129778Y-99950963D01*
X117115271Y-99998786D01*
X117091709Y-100042866D01*
X117060002Y-100081502D01*
X117021366Y-100113209D01*
X116977286Y-100136771D01*
X116929463Y-100151278D01*
X116878470Y-100156300D01*
X116039530Y-100156300D01*
X115988537Y-100151278D01*
X115940714Y-100136771D01*
X115896634Y-100113209D01*
X115857998Y-100081502D01*
X115826291Y-100042866D01*
X115802729Y-99998786D01*
X115788222Y-99950963D01*
X115783200Y-99899970D01*
X115783200Y-97661030D01*
X115788222Y-97610037D01*
X115802729Y-97562214D01*
X115826291Y-97518134D01*
X115857998Y-97479498D01*
X115896634Y-97447791D01*
X115940714Y-97424229D01*
X115988537Y-97409722D01*
X116039530Y-97404700D01*
X116878470Y-97404700D01*
X116929463Y-97409722D01*
X116929463Y-97409722D01*
G37*
G36*
X121624481Y-98728768D02*
X121667875Y-98741932D01*
X121707868Y-98763309D01*
X121742923Y-98792077D01*
X121771691Y-98827132D01*
X121793068Y-98867125D01*
X121806232Y-98910519D01*
X121810800Y-98956900D01*
X121810800Y-99468100D01*
X121806232Y-99514481D01*
X121793068Y-99557875D01*
X121771691Y-99597868D01*
X121742923Y-99632923D01*
X121707868Y-99661691D01*
X121667875Y-99683068D01*
X121624481Y-99696232D01*
X121578100Y-99700800D01*
X120991900Y-99700800D01*
X120945519Y-99696232D01*
X120902125Y-99683068D01*
X120862132Y-99661691D01*
X120827077Y-99632923D01*
X120798309Y-99597868D01*
X120776932Y-99557875D01*
X120763768Y-99514481D01*
X120759200Y-99468100D01*
X120759200Y-98956900D01*
X120763768Y-98910519D01*
X120776932Y-98867125D01*
X120798309Y-98827132D01*
X120827077Y-98792077D01*
X120862132Y-98763309D01*
X120902125Y-98741932D01*
X120945519Y-98728768D01*
X120991900Y-98724200D01*
X121578100Y-98724200D01*
X121624481Y-98728768D01*
X121624481Y-98728768D01*
G37*
G36*
X120333800Y-98265300D02*
X119432200Y-98265300D01*
X119432200Y-97263700D01*
X120333800Y-97263700D01*
X120333800Y-98265300D01*
X120333800Y-98265300D01*
G37*
G36*
X118433800Y-98265300D02*
X117532200Y-98265300D01*
X117532200Y-97263700D01*
X118433800Y-97263700D01*
X118433800Y-98265300D01*
X118433800Y-98265300D01*
G37*
G36*
X121624481Y-97153768D02*
X121667875Y-97166932D01*
X121707868Y-97188309D01*
X121742923Y-97217077D01*
X121771691Y-97252132D01*
X121793068Y-97292125D01*
X121806232Y-97335519D01*
X121810800Y-97381900D01*
X121810800Y-97893100D01*
X121806232Y-97939481D01*
X121793068Y-97982875D01*
X121771691Y-98022868D01*
X121742923Y-98057923D01*
X121707868Y-98086691D01*
X121667875Y-98108068D01*
X121624481Y-98121232D01*
X121578100Y-98125800D01*
X120991900Y-98125800D01*
X120945519Y-98121232D01*
X120902125Y-98108068D01*
X120862132Y-98086691D01*
X120827077Y-98057923D01*
X120798309Y-98022868D01*
X120776932Y-97982875D01*
X120763768Y-97939481D01*
X120759200Y-97893100D01*
X120759200Y-97381900D01*
X120763768Y-97335519D01*
X120776932Y-97292125D01*
X120798309Y-97252132D01*
X120827077Y-97217077D01*
X120862132Y-97188309D01*
X120902125Y-97166932D01*
X120945519Y-97153768D01*
X120991900Y-97149200D01*
X121578100Y-97149200D01*
X121624481Y-97153768D01*
X121624481Y-97153768D01*
G37*
G36*
X123212800Y-96615300D02*
X121561200Y-96615300D01*
X121561200Y-95213700D01*
X123212800Y-95213700D01*
X123212800Y-96615300D01*
X123212800Y-96615300D01*
G37*
G36*
X115252800Y-96615300D02*
X113601200Y-96615300D01*
X113601200Y-95213700D01*
X115252800Y-95213700D01*
X115252800Y-96615300D01*
X115252800Y-96615300D01*
G37*
G36*
X123212800Y-92115300D02*
X121561200Y-92115300D01*
X121561200Y-90713700D01*
X123212800Y-90713700D01*
X123212800Y-92115300D01*
X123212800Y-92115300D01*
G37*
G36*
X115252800Y-92115300D02*
X113601200Y-92115300D01*
X113601200Y-90713700D01*
X115252800Y-90713700D01*
X115252800Y-92115300D01*
X115252800Y-92115300D01*
G37*
G36*
X117954981Y-89242268D02*
X117998375Y-89255432D01*
X118038368Y-89276809D01*
X118073423Y-89305577D01*
X118102191Y-89340632D01*
X118123568Y-89380625D01*
X118136732Y-89424019D01*
X118141300Y-89470400D01*
X118141300Y-90056600D01*
X118136732Y-90102981D01*
X118123568Y-90146375D01*
X118102191Y-90186368D01*
X118073423Y-90221423D01*
X118038368Y-90250191D01*
X117998375Y-90271568D01*
X117954981Y-90284732D01*
X117908600Y-90289300D01*
X117397400Y-90289300D01*
X117351019Y-90284732D01*
X117307625Y-90271568D01*
X117267632Y-90250191D01*
X117232577Y-90221423D01*
X117203809Y-90186368D01*
X117182432Y-90146375D01*
X117169268Y-90102981D01*
X117164700Y-90056600D01*
X117164700Y-89470400D01*
X117169268Y-89424019D01*
X117182432Y-89380625D01*
X117203809Y-89340632D01*
X117232577Y-89305577D01*
X117267632Y-89276809D01*
X117307625Y-89255432D01*
X117351019Y-89242268D01*
X117397400Y-89237700D01*
X117908600Y-89237700D01*
X117954981Y-89242268D01*
X117954981Y-89242268D01*
G37*
G36*
X116379981Y-89242268D02*
X116423375Y-89255432D01*
X116463368Y-89276809D01*
X116498423Y-89305577D01*
X116527191Y-89340632D01*
X116548568Y-89380625D01*
X116561732Y-89424019D01*
X116566300Y-89470400D01*
X116566300Y-90056600D01*
X116561732Y-90102981D01*
X116548568Y-90146375D01*
X116527191Y-90186368D01*
X116498423Y-90221423D01*
X116463368Y-90250191D01*
X116423375Y-90271568D01*
X116379981Y-90284732D01*
X116333600Y-90289300D01*
X115822400Y-90289300D01*
X115776019Y-90284732D01*
X115732625Y-90271568D01*
X115692632Y-90250191D01*
X115657577Y-90221423D01*
X115628809Y-90186368D01*
X115607432Y-90146375D01*
X115594268Y-90102981D01*
X115589700Y-90056600D01*
X115589700Y-89470400D01*
X115594268Y-89424019D01*
X115607432Y-89380625D01*
X115628809Y-89340632D01*
X115657577Y-89305577D01*
X115692632Y-89276809D01*
X115732625Y-89255432D01*
X115776019Y-89242268D01*
X115822400Y-89237700D01*
X116333600Y-89237700D01*
X116379981Y-89242268D01*
X116379981Y-89242268D01*
G37*
G36*
X122145981Y-89115268D02*
X122189375Y-89128432D01*
X122229368Y-89149809D01*
X122264423Y-89178577D01*
X122293191Y-89213632D01*
X122314568Y-89253625D01*
X122327732Y-89297019D01*
X122332300Y-89343400D01*
X122332300Y-89929600D01*
X122327732Y-89975981D01*
X122314568Y-90019375D01*
X122293191Y-90059368D01*
X122264423Y-90094423D01*
X122229368Y-90123191D01*
X122189375Y-90144568D01*
X122145981Y-90157732D01*
X122099600Y-90162300D01*
X121588400Y-90162300D01*
X121542019Y-90157732D01*
X121498625Y-90144568D01*
X121458632Y-90123191D01*
X121423577Y-90094423D01*
X121394809Y-90059368D01*
X121373432Y-90019375D01*
X121360268Y-89975981D01*
X121355700Y-89929600D01*
X121355700Y-89343400D01*
X121360268Y-89297019D01*
X121373432Y-89253625D01*
X121394809Y-89213632D01*
X121423577Y-89178577D01*
X121458632Y-89149809D01*
X121498625Y-89128432D01*
X121542019Y-89115268D01*
X121588400Y-89110700D01*
X122099600Y-89110700D01*
X122145981Y-89115268D01*
X122145981Y-89115268D01*
G37*
G36*
X120570981Y-89115268D02*
X120614375Y-89128432D01*
X120654368Y-89149809D01*
X120689423Y-89178577D01*
X120718191Y-89213632D01*
X120739568Y-89253625D01*
X120752732Y-89297019D01*
X120757300Y-89343400D01*
X120757300Y-89929600D01*
X120752732Y-89975981D01*
X120739568Y-90019375D01*
X120718191Y-90059368D01*
X120689423Y-90094423D01*
X120654368Y-90123191D01*
X120614375Y-90144568D01*
X120570981Y-90157732D01*
X120524600Y-90162300D01*
X120013400Y-90162300D01*
X119967019Y-90157732D01*
X119923625Y-90144568D01*
X119883632Y-90123191D01*
X119848577Y-90094423D01*
X119819809Y-90059368D01*
X119798432Y-90019375D01*
X119785268Y-89975981D01*
X119780700Y-89929600D01*
X119780700Y-89343400D01*
X119785268Y-89297019D01*
X119798432Y-89253625D01*
X119819809Y-89213632D01*
X119848577Y-89178577D01*
X119883632Y-89149809D01*
X119923625Y-89128432D01*
X119967019Y-89115268D01*
X120013400Y-89110700D01*
X120524600Y-89110700D01*
X120570981Y-89115268D01*
X120570981Y-89115268D01*
G37*
G36*
X114385481Y-89076768D02*
X114428875Y-89089932D01*
X114468868Y-89111309D01*
X114503923Y-89140077D01*
X114532691Y-89175132D01*
X114554068Y-89215125D01*
X114567232Y-89258519D01*
X114571800Y-89304900D01*
X114571800Y-89816100D01*
X114567232Y-89862481D01*
X114554068Y-89905875D01*
X114532691Y-89945868D01*
X114503923Y-89980923D01*
X114468868Y-90009691D01*
X114428875Y-90031068D01*
X114385481Y-90044232D01*
X114339100Y-90048800D01*
X113752900Y-90048800D01*
X113706519Y-90044232D01*
X113663125Y-90031068D01*
X113623132Y-90009691D01*
X113588077Y-89980923D01*
X113559309Y-89945868D01*
X113537932Y-89905875D01*
X113524768Y-89862481D01*
X113520200Y-89816100D01*
X113520200Y-89304900D01*
X113524768Y-89258519D01*
X113537932Y-89215125D01*
X113559309Y-89175132D01*
X113588077Y-89140077D01*
X113623132Y-89111309D01*
X113663125Y-89089932D01*
X113706519Y-89076768D01*
X113752900Y-89072200D01*
X114339100Y-89072200D01*
X114385481Y-89076768D01*
X114385481Y-89076768D01*
G37*
G36*
X117434800Y-88746300D02*
X116573200Y-88746300D01*
X116573200Y-88214700D01*
X117434800Y-88214700D01*
X117434800Y-88746300D01*
X117434800Y-88746300D01*
G37*
G36*
X115914800Y-88746300D02*
X115053200Y-88746300D01*
X115053200Y-88214700D01*
X115914800Y-88214700D01*
X115914800Y-88746300D01*
X115914800Y-88746300D01*
G37*
G36*
X121398800Y-88488300D02*
X120237200Y-88488300D01*
X120237200Y-87736700D01*
X121398800Y-87736700D01*
X121398800Y-88488300D01*
X121398800Y-88488300D01*
G37*
G36*
X119198800Y-88488300D02*
X118037200Y-88488300D01*
X118037200Y-87736700D01*
X119198800Y-87736700D01*
X119198800Y-88488300D01*
X119198800Y-88488300D01*
G37*
G36*
X114385481Y-87501768D02*
X114428875Y-87514932D01*
X114468868Y-87536309D01*
X114503923Y-87565077D01*
X114532691Y-87600132D01*
X114554068Y-87640125D01*
X114567232Y-87683519D01*
X114571800Y-87729900D01*
X114571800Y-88241100D01*
X114567232Y-88287481D01*
X114554068Y-88330875D01*
X114532691Y-88370868D01*
X114503923Y-88405923D01*
X114468868Y-88434691D01*
X114428875Y-88456068D01*
X114385481Y-88469232D01*
X114339100Y-88473800D01*
X113752900Y-88473800D01*
X113706519Y-88469232D01*
X113663125Y-88456068D01*
X113623132Y-88434691D01*
X113588077Y-88405923D01*
X113559309Y-88370868D01*
X113537932Y-88330875D01*
X113524768Y-88287481D01*
X113520200Y-88241100D01*
X113520200Y-87729900D01*
X113524768Y-87683519D01*
X113537932Y-87640125D01*
X113559309Y-87600132D01*
X113588077Y-87565077D01*
X113623132Y-87536309D01*
X113663125Y-87514932D01*
X113706519Y-87501768D01*
X113752900Y-87497200D01*
X114339100Y-87497200D01*
X114385481Y-87501768D01*
X114385481Y-87501768D01*
G37*
G36*
X122640481Y-87171768D02*
X122683875Y-87184932D01*
X122723868Y-87206309D01*
X122758923Y-87235077D01*
X122787691Y-87270132D01*
X122809068Y-87310125D01*
X122822232Y-87353519D01*
X122826800Y-87399900D01*
X122826800Y-87911100D01*
X122822232Y-87957481D01*
X122809068Y-88000875D01*
X122787691Y-88040868D01*
X122758923Y-88075923D01*
X122723868Y-88104691D01*
X122683875Y-88126068D01*
X122640481Y-88139232D01*
X122594100Y-88143800D01*
X122007900Y-88143800D01*
X121961519Y-88139232D01*
X121918125Y-88126068D01*
X121878132Y-88104691D01*
X121843077Y-88075923D01*
X121814309Y-88040868D01*
X121792932Y-88000875D01*
X121779768Y-87957481D01*
X121775200Y-87911100D01*
X121775200Y-87399900D01*
X121779768Y-87353519D01*
X121792932Y-87310125D01*
X121814309Y-87270132D01*
X121843077Y-87235077D01*
X121878132Y-87206309D01*
X121918125Y-87184932D01*
X121961519Y-87171768D01*
X122007900Y-87167200D01*
X122594100Y-87167200D01*
X122640481Y-87171768D01*
X122640481Y-87171768D01*
G37*
G36*
X115914800Y-87946300D02*
X115053200Y-87946300D01*
X115053200Y-87414700D01*
X115914800Y-87414700D01*
X115914800Y-87946300D01*
X115914800Y-87946300D01*
G37*
G36*
X117434800Y-87946300D02*
X116573200Y-87946300D01*
X116573200Y-87414700D01*
X117434800Y-87414700D01*
X117434800Y-87946300D01*
X117434800Y-87946300D01*
G37*
G36*
X121398800Y-87538300D02*
X120237200Y-87538300D01*
X120237200Y-86786700D01*
X121398800Y-86786700D01*
X121398800Y-87538300D01*
X121398800Y-87538300D01*
G37*
G36*
X117434800Y-87146300D02*
X116573200Y-87146300D01*
X116573200Y-86614700D01*
X117434800Y-86614700D01*
X117434800Y-87146300D01*
X117434800Y-87146300D01*
G37*
G36*
X115914800Y-87146300D02*
X115053200Y-87146300D01*
X115053200Y-86614700D01*
X115914800Y-86614700D01*
X115914800Y-87146300D01*
X115914800Y-87146300D01*
G37*
G36*
X114385481Y-86028768D02*
X114428875Y-86041932D01*
X114468868Y-86063309D01*
X114503923Y-86092077D01*
X114532691Y-86127132D01*
X114554068Y-86167125D01*
X114567232Y-86210519D01*
X114571800Y-86256900D01*
X114571800Y-86768100D01*
X114567232Y-86814481D01*
X114554068Y-86857875D01*
X114532691Y-86897868D01*
X114503923Y-86932923D01*
X114468868Y-86961691D01*
X114428875Y-86983068D01*
X114385481Y-86996232D01*
X114339100Y-87000800D01*
X113752900Y-87000800D01*
X113706519Y-86996232D01*
X113663125Y-86983068D01*
X113623132Y-86961691D01*
X113588077Y-86932923D01*
X113559309Y-86897868D01*
X113537932Y-86857875D01*
X113524768Y-86814481D01*
X113520200Y-86768100D01*
X113520200Y-86256900D01*
X113524768Y-86210519D01*
X113537932Y-86167125D01*
X113559309Y-86127132D01*
X113588077Y-86092077D01*
X113623132Y-86063309D01*
X113663125Y-86041932D01*
X113706519Y-86028768D01*
X113752900Y-86024200D01*
X114339100Y-86024200D01*
X114385481Y-86028768D01*
X114385481Y-86028768D01*
G37*
G36*
X119198800Y-86588300D02*
X118037200Y-86588300D01*
X118037200Y-85836700D01*
X119198800Y-85836700D01*
X119198800Y-86588300D01*
X119198800Y-86588300D01*
G37*
G36*
X121398800Y-86588300D02*
X120237200Y-86588300D01*
X120237200Y-85836700D01*
X121398800Y-85836700D01*
X121398800Y-86588300D01*
X121398800Y-86588300D01*
G37*
G36*
X122640481Y-85596768D02*
X122683875Y-85609932D01*
X122723868Y-85631309D01*
X122758923Y-85660077D01*
X122787691Y-85695132D01*
X122809068Y-85735125D01*
X122822232Y-85778519D01*
X122826800Y-85824900D01*
X122826800Y-86336100D01*
X122822232Y-86382481D01*
X122809068Y-86425875D01*
X122787691Y-86465868D01*
X122758923Y-86500923D01*
X122723868Y-86529691D01*
X122683875Y-86551068D01*
X122640481Y-86564232D01*
X122594100Y-86568800D01*
X122007900Y-86568800D01*
X121961519Y-86564232D01*
X121918125Y-86551068D01*
X121878132Y-86529691D01*
X121843077Y-86500923D01*
X121814309Y-86465868D01*
X121792932Y-86425875D01*
X121779768Y-86382481D01*
X121775200Y-86336100D01*
X121775200Y-85824900D01*
X121779768Y-85778519D01*
X121792932Y-85735125D01*
X121814309Y-85695132D01*
X121843077Y-85660077D01*
X121878132Y-85631309D01*
X121918125Y-85609932D01*
X121961519Y-85596768D01*
X122007900Y-85592200D01*
X122594100Y-85592200D01*
X122640481Y-85596768D01*
X122640481Y-85596768D01*
G37*
G36*
X117434800Y-86346300D02*
X116573200Y-86346300D01*
X116573200Y-85814700D01*
X117434800Y-85814700D01*
X117434800Y-86346300D01*
X117434800Y-86346300D01*
G37*
G36*
X115914800Y-86346300D02*
X115053200Y-86346300D01*
X115053200Y-85814700D01*
X115914800Y-85814700D01*
X115914800Y-86346300D01*
X115914800Y-86346300D01*
G37*
G36*
X114385481Y-84453768D02*
X114428875Y-84466932D01*
X114468868Y-84488309D01*
X114503923Y-84517077D01*
X114532691Y-84552132D01*
X114554068Y-84592125D01*
X114567232Y-84635519D01*
X114571800Y-84681900D01*
X114571800Y-85193100D01*
X114567232Y-85239481D01*
X114554068Y-85282875D01*
X114532691Y-85322868D01*
X114503923Y-85357923D01*
X114468868Y-85386691D01*
X114428875Y-85408068D01*
X114385481Y-85421232D01*
X114339100Y-85425800D01*
X113752900Y-85425800D01*
X113706519Y-85421232D01*
X113663125Y-85408068D01*
X113623132Y-85386691D01*
X113588077Y-85357923D01*
X113559309Y-85322868D01*
X113537932Y-85282875D01*
X113524768Y-85239481D01*
X113520200Y-85193100D01*
X113520200Y-84681900D01*
X113524768Y-84635519D01*
X113537932Y-84592125D01*
X113559309Y-84552132D01*
X113588077Y-84517077D01*
X113623132Y-84488309D01*
X113663125Y-84466932D01*
X113706519Y-84453768D01*
X113752900Y-84449200D01*
X114339100Y-84449200D01*
X114385481Y-84453768D01*
X114385481Y-84453768D01*
G37*
G36*
X121288293Y-83716513D02*
X121358886Y-83745754D01*
X121429481Y-83774995D01*
X121541535Y-83849868D01*
X121556544Y-83859897D01*
X121664603Y-83967956D01*
X121664605Y-83967959D01*
X121749505Y-84095019D01*
X121778746Y-84165614D01*
X121807987Y-84236207D01*
X121837800Y-84386090D01*
X121837800Y-84538910D01*
X121807987Y-84688793D01*
X121806099Y-84693350D01*
X121749505Y-84829981D01*
X121664892Y-84956611D01*
X121664603Y-84957044D01*
X121556544Y-85065103D01*
X121556541Y-85065105D01*
X121429481Y-85150005D01*
X121358886Y-85179246D01*
X121288293Y-85208487D01*
X121138410Y-85238300D01*
X120985590Y-85238300D01*
X120835707Y-85208487D01*
X120765114Y-85179246D01*
X120694519Y-85150005D01*
X120567459Y-85065105D01*
X120567456Y-85065103D01*
X120459397Y-84957044D01*
X120459108Y-84956611D01*
X120374495Y-84829981D01*
X120317901Y-84693350D01*
X120316013Y-84688793D01*
X120286200Y-84538910D01*
X120286200Y-84386090D01*
X120316013Y-84236207D01*
X120345254Y-84165614D01*
X120374495Y-84095019D01*
X120459395Y-83967959D01*
X120459397Y-83967956D01*
X120567456Y-83859897D01*
X120582465Y-83849868D01*
X120694519Y-83774995D01*
X120765114Y-83745754D01*
X120835707Y-83716513D01*
X120985590Y-83686700D01*
X121138410Y-83686700D01*
X121288293Y-83716513D01*
X121288293Y-83716513D01*
G37*
G36*
X116288293Y-83716513D02*
X116358886Y-83745754D01*
X116429481Y-83774995D01*
X116541535Y-83849868D01*
X116556544Y-83859897D01*
X116664603Y-83967956D01*
X116664605Y-83967959D01*
X116749505Y-84095019D01*
X116778746Y-84165614D01*
X116807987Y-84236207D01*
X116837800Y-84386090D01*
X116837800Y-84538910D01*
X116807987Y-84688793D01*
X116806099Y-84693350D01*
X116749505Y-84829981D01*
X116664892Y-84956611D01*
X116664603Y-84957044D01*
X116556544Y-85065103D01*
X116556541Y-85065105D01*
X116429481Y-85150005D01*
X116358886Y-85179246D01*
X116288293Y-85208487D01*
X116138410Y-85238300D01*
X115985590Y-85238300D01*
X115835707Y-85208487D01*
X115765114Y-85179246D01*
X115694519Y-85150005D01*
X115567459Y-85065105D01*
X115567456Y-85065103D01*
X115459397Y-84957044D01*
X115459108Y-84956611D01*
X115374495Y-84829981D01*
X115317901Y-84693350D01*
X115316013Y-84688793D01*
X115286200Y-84538910D01*
X115286200Y-84386090D01*
X115316013Y-84236207D01*
X115345254Y-84165614D01*
X115374495Y-84095019D01*
X115459395Y-83967959D01*
X115459397Y-83967956D01*
X115567456Y-83859897D01*
X115582465Y-83849868D01*
X115694519Y-83774995D01*
X115765114Y-83745754D01*
X115835707Y-83716513D01*
X115985590Y-83686700D01*
X116138410Y-83686700D01*
X116288293Y-83716513D01*
X116288293Y-83716513D01*
G37*
G36*
X120112800Y-85188300D02*
X119611200Y-85188300D01*
X119611200Y-83736700D01*
X120112800Y-83736700D01*
X120112800Y-85188300D01*
X120112800Y-85188300D01*
G37*
G36*
X119462800Y-85188300D02*
X118961200Y-85188300D01*
X118961200Y-83736700D01*
X119462800Y-83736700D01*
X119462800Y-85188300D01*
X119462800Y-85188300D01*
G37*
G36*
X118812800Y-85188300D02*
X118311200Y-85188300D01*
X118311200Y-83736700D01*
X118812800Y-83736700D01*
X118812800Y-85188300D01*
X118812800Y-85188300D01*
G37*
G36*
X118162800Y-85188300D02*
X117661200Y-85188300D01*
X117661200Y-83736700D01*
X118162800Y-83736700D01*
X118162800Y-85188300D01*
X118162800Y-85188300D01*
G37*
G36*
X117512800Y-85188300D02*
X117011200Y-85188300D01*
X117011200Y-83736700D01*
X117512800Y-83736700D01*
X117512800Y-85188300D01*
X117512800Y-85188300D01*
G37*
G36*
X113877481Y-82980768D02*
X113920875Y-82993932D01*
X113960868Y-83015309D01*
X113995923Y-83044077D01*
X114024691Y-83079132D01*
X114046068Y-83119125D01*
X114059232Y-83162519D01*
X114063800Y-83208900D01*
X114063800Y-83720100D01*
X114059232Y-83766481D01*
X114046068Y-83809875D01*
X114024691Y-83849868D01*
X113995923Y-83884923D01*
X113960868Y-83913691D01*
X113920875Y-83935068D01*
X113877481Y-83948232D01*
X113831100Y-83952800D01*
X113244900Y-83952800D01*
X113198519Y-83948232D01*
X113155125Y-83935068D01*
X113115132Y-83913691D01*
X113080077Y-83884923D01*
X113051309Y-83849868D01*
X113029932Y-83809875D01*
X113016768Y-83766481D01*
X113012200Y-83720100D01*
X113012200Y-83208900D01*
X113016768Y-83162519D01*
X113029932Y-83119125D01*
X113051309Y-83079132D01*
X113080077Y-83044077D01*
X113115132Y-83015309D01*
X113155125Y-82993932D01*
X113198519Y-82980768D01*
X113244900Y-82976200D01*
X113831100Y-82976200D01*
X113877481Y-82980768D01*
X113877481Y-82980768D01*
G37*
G36*
X115092728Y-80761578D02*
X115095211Y-80761700D01*
X116312800Y-80761700D01*
X116312800Y-82763300D01*
X115095210Y-82763300D01*
X115092729Y-82763422D01*
X115062000Y-82766448D01*
X115031272Y-82763422D01*
X115028789Y-82763300D01*
X114999823Y-82763300D01*
X114995520Y-82760999D01*
X114988293Y-82759189D01*
X114934421Y-82753883D01*
X114920391Y-82749627D01*
X114811746Y-82716670D01*
X114698686Y-82656238D01*
X114599589Y-82574911D01*
X114518262Y-82475813D01*
X114465873Y-82377800D01*
X114457830Y-82362753D01*
X114420618Y-82240081D01*
X114420617Y-82240078D01*
X114411200Y-82144462D01*
X114411200Y-81380537D01*
X114420617Y-81284921D01*
X114457831Y-81162245D01*
X114518263Y-81049186D01*
X114518264Y-81049185D01*
X114599589Y-80950088D01*
X114698687Y-80868762D01*
X114811747Y-80808330D01*
X114934419Y-80771118D01*
X114934422Y-80771117D01*
X114988294Y-80765811D01*
X114993173Y-80764840D01*
X114997774Y-80762935D01*
X114999622Y-80761700D01*
X115028790Y-80761700D01*
X115031271Y-80761578D01*
X115062000Y-80758552D01*
X115092728Y-80761578D01*
X115092728Y-80761578D01*
G37*
G36*
X122092729Y-80761578D02*
X122095210Y-80761700D01*
X122124177Y-80761700D01*
X122128480Y-80764001D01*
X122135707Y-80765811D01*
X122189578Y-80771117D01*
X122189581Y-80771118D01*
X122312253Y-80808330D01*
X122425313Y-80868762D01*
X122524411Y-80950089D01*
X122605738Y-81049186D01*
X122666170Y-81162246D01*
X122666170Y-81162247D01*
X122703383Y-81284921D01*
X122712800Y-81380537D01*
X122712800Y-82144463D01*
X122703383Y-82240079D01*
X122703382Y-82240081D01*
X122703382Y-82240082D01*
X122666170Y-82362754D01*
X122605738Y-82475814D01*
X122524412Y-82574912D01*
X122425314Y-82656238D01*
X122312254Y-82716670D01*
X122203609Y-82749627D01*
X122189579Y-82753883D01*
X122135706Y-82759189D01*
X122130827Y-82760160D01*
X122126226Y-82762065D01*
X122124378Y-82763300D01*
X122095211Y-82763300D01*
X122092728Y-82763422D01*
X122062000Y-82766448D01*
X122031271Y-82763422D01*
X122028790Y-82763300D01*
X120811200Y-82763300D01*
X120811200Y-80761700D01*
X122028789Y-80761700D01*
X122031272Y-80761578D01*
X122062000Y-80758552D01*
X122092729Y-80761578D01*
X122092729Y-80761578D01*
G37*
G36*
X120362800Y-82763300D02*
X118761200Y-82763300D01*
X118761200Y-80761700D01*
X120362800Y-80761700D01*
X120362800Y-82763300D01*
X120362800Y-82763300D01*
G37*
G36*
X118362800Y-82763300D02*
X116761200Y-82763300D01*
X116761200Y-80761700D01*
X118362800Y-80761700D01*
X118362800Y-82763300D01*
X118362800Y-82763300D01*
G37*
G36*
X113877481Y-81405768D02*
X113920875Y-81418932D01*
X113960868Y-81440309D01*
X113995923Y-81469077D01*
X114024691Y-81504132D01*
X114046068Y-81544125D01*
X114059232Y-81587519D01*
X114063800Y-81633900D01*
X114063800Y-82145100D01*
X114059232Y-82191481D01*
X114046068Y-82234875D01*
X114024691Y-82274868D01*
X113995923Y-82309923D01*
X113960868Y-82338691D01*
X113920875Y-82360068D01*
X113877481Y-82373232D01*
X113831100Y-82377800D01*
X113244900Y-82377800D01*
X113198519Y-82373232D01*
X113155125Y-82360068D01*
X113115132Y-82338691D01*
X113080077Y-82309923D01*
X113051309Y-82274868D01*
X113029932Y-82234875D01*
X113016768Y-82191481D01*
X113012200Y-82145100D01*
X113012200Y-81633900D01*
X113016768Y-81587519D01*
X113029932Y-81544125D01*
X113051309Y-81504132D01*
X113080077Y-81469077D01*
X113115132Y-81440309D01*
X113155125Y-81418932D01*
X113198519Y-81405768D01*
X113244900Y-81401200D01*
X113831100Y-81401200D01*
X113877481Y-81405768D01*
X113877481Y-81405768D01*
G37*
M02*
