G04 #@! TF.GenerationSoftware,KiCad,Pcbnew,(5.0.2)-1*
G04 #@! TF.CreationDate,2018-12-23T16:39:48-05:00*
G04 #@! TF.ProjectId,cardEmulator,63617264-456d-4756-9c61-746f722e6b69,rev?*
G04 #@! TF.SameCoordinates,Original*
G04 #@! TF.FileFunction,Copper,L1,Top*
G04 #@! TF.FilePolarity,Positive*
%FSLAX46Y46*%
G04 Gerber Fmt 4.6, Leading zero omitted, Abs format (unit mm)*
G04 Created by KiCad (PCBNEW (5.0.2)-1) date 12/23/2018 4:39:48 PM*
%MOMM*%
%LPD*%
G01*
G04 APERTURE LIST*
G04 #@! TA.AperFunction,SMDPad,CuDef*
%ADD10R,1.550000X1.300000*%
G04 #@! TD*
G04 #@! TA.AperFunction,SMDPad,CuDef*
%ADD11R,1.060000X0.650000*%
G04 #@! TD*
G04 #@! TA.AperFunction,SMDPad,CuDef*
%ADD12R,1.500000X1.900000*%
G04 #@! TD*
G04 #@! TA.AperFunction,ComponentPad*
%ADD13C,1.450000*%
G04 #@! TD*
G04 #@! TA.AperFunction,SMDPad,CuDef*
%ADD14R,0.400000X1.350000*%
G04 #@! TD*
G04 #@! TA.AperFunction,ComponentPad*
%ADD15O,1.200000X1.900000*%
G04 #@! TD*
G04 #@! TA.AperFunction,SMDPad,CuDef*
%ADD16R,1.200000X1.900000*%
G04 #@! TD*
G04 #@! TA.AperFunction,Conductor*
%ADD17C,0.100000*%
G04 #@! TD*
G04 #@! TA.AperFunction,SMDPad,CuDef*
%ADD18C,0.875000*%
G04 #@! TD*
G04 #@! TA.AperFunction,SMDPad,CuDef*
%ADD19C,1.250000*%
G04 #@! TD*
G04 #@! TA.AperFunction,SMDPad,CuDef*
%ADD20R,0.800000X0.900000*%
G04 #@! TD*
G04 #@! TA.AperFunction,SMDPad,CuDef*
%ADD21R,0.760000X0.430000*%
G04 #@! TD*
G04 #@! TA.AperFunction,SMDPad,CuDef*
%ADD22R,0.600000X0.450000*%
G04 #@! TD*
G04 #@! TA.AperFunction,SMDPad,CuDef*
%ADD23R,2.000000X0.800000*%
G04 #@! TD*
G04 #@! TA.AperFunction,ViaPad*
%ADD24C,0.800000*%
G04 #@! TD*
G04 #@! TA.AperFunction,Conductor*
%ADD25C,0.304800*%
G04 #@! TD*
G04 #@! TA.AperFunction,Conductor*
%ADD26C,0.203200*%
G04 #@! TD*
G04 #@! TA.AperFunction,Conductor*
%ADD27C,0.152400*%
G04 #@! TD*
G04 #@! TA.AperFunction,Conductor*
%ADD28C,0.254000*%
G04 #@! TD*
G04 APERTURE END LIST*
D10*
G04 #@! TO.P,SW1,2*
G04 #@! TO.N,+VSW*
X114427000Y-95914500D03*
G04 #@! TO.P,SW1,1*
G04 #@! TO.N,+BATT*
X114427000Y-91414500D03*
X122387000Y-91414500D03*
G04 #@! TO.P,SW1,2*
G04 #@! TO.N,+VSW*
X122387000Y-95914500D03*
G04 #@! TD*
D11*
G04 #@! TO.P,U2,1*
G04 #@! TO.N,/CHG_LED*
X120818000Y-88112500D03*
G04 #@! TO.P,U2,2*
G04 #@! TO.N,GND*
X120818000Y-87162500D03*
G04 #@! TO.P,U2,3*
G04 #@! TO.N,+BATT*
X120818000Y-86212500D03*
G04 #@! TO.P,U2,4*
G04 #@! TO.N,VBUS*
X118618000Y-86212500D03*
G04 #@! TO.P,U2,5*
G04 #@! TO.N,Net-(R1-Pad1)*
X118618000Y-88112500D03*
G04 #@! TD*
D12*
G04 #@! TO.P,J1,6*
G04 #@! TO.N,GND*
X117562000Y-81762500D03*
D13*
X121062000Y-84462500D03*
D14*
G04 #@! TO.P,J1,2*
G04 #@! TO.N,N/C*
X119212000Y-84462500D03*
G04 #@! TO.P,J1,1*
G04 #@! TO.N,VBUS*
X119862000Y-84462500D03*
G04 #@! TO.P,J1,5*
G04 #@! TO.N,GND*
X117262000Y-84462500D03*
G04 #@! TO.P,J1,4*
G04 #@! TO.N,N/C*
X117912000Y-84462500D03*
G04 #@! TO.P,J1,3*
X118562000Y-84462500D03*
D13*
G04 #@! TO.P,J1,6*
G04 #@! TO.N,GND*
X116062000Y-84462500D03*
D12*
X119562000Y-81762500D03*
D15*
X122062000Y-81762500D03*
X115062000Y-81762500D03*
D16*
X115662000Y-81762500D03*
X121462000Y-81762500D03*
G04 #@! TD*
D17*
G04 #@! TO.N,GND*
G04 #@! TO.C,C1*
G36*
X113815691Y-81453053D02*
X113836926Y-81456203D01*
X113857750Y-81461419D01*
X113877962Y-81468651D01*
X113897368Y-81477830D01*
X113915781Y-81488866D01*
X113933024Y-81501654D01*
X113948930Y-81516070D01*
X113963346Y-81531976D01*
X113976134Y-81549219D01*
X113987170Y-81567632D01*
X113996349Y-81587038D01*
X114003581Y-81607250D01*
X114008797Y-81628074D01*
X114011947Y-81649309D01*
X114013000Y-81670750D01*
X114013000Y-82108250D01*
X114011947Y-82129691D01*
X114008797Y-82150926D01*
X114003581Y-82171750D01*
X113996349Y-82191962D01*
X113987170Y-82211368D01*
X113976134Y-82229781D01*
X113963346Y-82247024D01*
X113948930Y-82262930D01*
X113933024Y-82277346D01*
X113915781Y-82290134D01*
X113897368Y-82301170D01*
X113877962Y-82310349D01*
X113857750Y-82317581D01*
X113836926Y-82322797D01*
X113815691Y-82325947D01*
X113794250Y-82327000D01*
X113281750Y-82327000D01*
X113260309Y-82325947D01*
X113239074Y-82322797D01*
X113218250Y-82317581D01*
X113198038Y-82310349D01*
X113178632Y-82301170D01*
X113160219Y-82290134D01*
X113142976Y-82277346D01*
X113127070Y-82262930D01*
X113112654Y-82247024D01*
X113099866Y-82229781D01*
X113088830Y-82211368D01*
X113079651Y-82191962D01*
X113072419Y-82171750D01*
X113067203Y-82150926D01*
X113064053Y-82129691D01*
X113063000Y-82108250D01*
X113063000Y-81670750D01*
X113064053Y-81649309D01*
X113067203Y-81628074D01*
X113072419Y-81607250D01*
X113079651Y-81587038D01*
X113088830Y-81567632D01*
X113099866Y-81549219D01*
X113112654Y-81531976D01*
X113127070Y-81516070D01*
X113142976Y-81501654D01*
X113160219Y-81488866D01*
X113178632Y-81477830D01*
X113198038Y-81468651D01*
X113218250Y-81461419D01*
X113239074Y-81456203D01*
X113260309Y-81453053D01*
X113281750Y-81452000D01*
X113794250Y-81452000D01*
X113815691Y-81453053D01*
X113815691Y-81453053D01*
G37*
D18*
G04 #@! TD*
G04 #@! TO.P,C1,2*
G04 #@! TO.N,GND*
X113538000Y-81889500D03*
D17*
G04 #@! TO.N,VBUS*
G04 #@! TO.C,C1*
G36*
X113815691Y-83028053D02*
X113836926Y-83031203D01*
X113857750Y-83036419D01*
X113877962Y-83043651D01*
X113897368Y-83052830D01*
X113915781Y-83063866D01*
X113933024Y-83076654D01*
X113948930Y-83091070D01*
X113963346Y-83106976D01*
X113976134Y-83124219D01*
X113987170Y-83142632D01*
X113996349Y-83162038D01*
X114003581Y-83182250D01*
X114008797Y-83203074D01*
X114011947Y-83224309D01*
X114013000Y-83245750D01*
X114013000Y-83683250D01*
X114011947Y-83704691D01*
X114008797Y-83725926D01*
X114003581Y-83746750D01*
X113996349Y-83766962D01*
X113987170Y-83786368D01*
X113976134Y-83804781D01*
X113963346Y-83822024D01*
X113948930Y-83837930D01*
X113933024Y-83852346D01*
X113915781Y-83865134D01*
X113897368Y-83876170D01*
X113877962Y-83885349D01*
X113857750Y-83892581D01*
X113836926Y-83897797D01*
X113815691Y-83900947D01*
X113794250Y-83902000D01*
X113281750Y-83902000D01*
X113260309Y-83900947D01*
X113239074Y-83897797D01*
X113218250Y-83892581D01*
X113198038Y-83885349D01*
X113178632Y-83876170D01*
X113160219Y-83865134D01*
X113142976Y-83852346D01*
X113127070Y-83837930D01*
X113112654Y-83822024D01*
X113099866Y-83804781D01*
X113088830Y-83786368D01*
X113079651Y-83766962D01*
X113072419Y-83746750D01*
X113067203Y-83725926D01*
X113064053Y-83704691D01*
X113063000Y-83683250D01*
X113063000Y-83245750D01*
X113064053Y-83224309D01*
X113067203Y-83203074D01*
X113072419Y-83182250D01*
X113079651Y-83162038D01*
X113088830Y-83142632D01*
X113099866Y-83124219D01*
X113112654Y-83106976D01*
X113127070Y-83091070D01*
X113142976Y-83076654D01*
X113160219Y-83063866D01*
X113178632Y-83052830D01*
X113198038Y-83043651D01*
X113218250Y-83036419D01*
X113239074Y-83031203D01*
X113260309Y-83028053D01*
X113281750Y-83027000D01*
X113794250Y-83027000D01*
X113815691Y-83028053D01*
X113815691Y-83028053D01*
G37*
D18*
G04 #@! TD*
G04 #@! TO.P,C1,1*
G04 #@! TO.N,VBUS*
X113538000Y-83464500D03*
D17*
G04 #@! TO.N,+5V*
G04 #@! TO.C,C2*
G36*
X115429191Y-103894553D02*
X115450426Y-103897703D01*
X115471250Y-103902919D01*
X115491462Y-103910151D01*
X115510868Y-103919330D01*
X115529281Y-103930366D01*
X115546524Y-103943154D01*
X115562430Y-103957570D01*
X115576846Y-103973476D01*
X115589634Y-103990719D01*
X115600670Y-104009132D01*
X115609849Y-104028538D01*
X115617081Y-104048750D01*
X115622297Y-104069574D01*
X115625447Y-104090809D01*
X115626500Y-104112250D01*
X115626500Y-104624750D01*
X115625447Y-104646191D01*
X115622297Y-104667426D01*
X115617081Y-104688250D01*
X115609849Y-104708462D01*
X115600670Y-104727868D01*
X115589634Y-104746281D01*
X115576846Y-104763524D01*
X115562430Y-104779430D01*
X115546524Y-104793846D01*
X115529281Y-104806634D01*
X115510868Y-104817670D01*
X115491462Y-104826849D01*
X115471250Y-104834081D01*
X115450426Y-104839297D01*
X115429191Y-104842447D01*
X115407750Y-104843500D01*
X114970250Y-104843500D01*
X114948809Y-104842447D01*
X114927574Y-104839297D01*
X114906750Y-104834081D01*
X114886538Y-104826849D01*
X114867132Y-104817670D01*
X114848719Y-104806634D01*
X114831476Y-104793846D01*
X114815570Y-104779430D01*
X114801154Y-104763524D01*
X114788366Y-104746281D01*
X114777330Y-104727868D01*
X114768151Y-104708462D01*
X114760919Y-104688250D01*
X114755703Y-104667426D01*
X114752553Y-104646191D01*
X114751500Y-104624750D01*
X114751500Y-104112250D01*
X114752553Y-104090809D01*
X114755703Y-104069574D01*
X114760919Y-104048750D01*
X114768151Y-104028538D01*
X114777330Y-104009132D01*
X114788366Y-103990719D01*
X114801154Y-103973476D01*
X114815570Y-103957570D01*
X114831476Y-103943154D01*
X114848719Y-103930366D01*
X114867132Y-103919330D01*
X114886538Y-103910151D01*
X114906750Y-103902919D01*
X114927574Y-103897703D01*
X114948809Y-103894553D01*
X114970250Y-103893500D01*
X115407750Y-103893500D01*
X115429191Y-103894553D01*
X115429191Y-103894553D01*
G37*
D18*
G04 #@! TD*
G04 #@! TO.P,C2,1*
G04 #@! TO.N,+5V*
X115189000Y-104368500D03*
D17*
G04 #@! TO.N,Net-(C2-Pad2)*
G04 #@! TO.C,C2*
G36*
X113854191Y-103894553D02*
X113875426Y-103897703D01*
X113896250Y-103902919D01*
X113916462Y-103910151D01*
X113935868Y-103919330D01*
X113954281Y-103930366D01*
X113971524Y-103943154D01*
X113987430Y-103957570D01*
X114001846Y-103973476D01*
X114014634Y-103990719D01*
X114025670Y-104009132D01*
X114034849Y-104028538D01*
X114042081Y-104048750D01*
X114047297Y-104069574D01*
X114050447Y-104090809D01*
X114051500Y-104112250D01*
X114051500Y-104624750D01*
X114050447Y-104646191D01*
X114047297Y-104667426D01*
X114042081Y-104688250D01*
X114034849Y-104708462D01*
X114025670Y-104727868D01*
X114014634Y-104746281D01*
X114001846Y-104763524D01*
X113987430Y-104779430D01*
X113971524Y-104793846D01*
X113954281Y-104806634D01*
X113935868Y-104817670D01*
X113916462Y-104826849D01*
X113896250Y-104834081D01*
X113875426Y-104839297D01*
X113854191Y-104842447D01*
X113832750Y-104843500D01*
X113395250Y-104843500D01*
X113373809Y-104842447D01*
X113352574Y-104839297D01*
X113331750Y-104834081D01*
X113311538Y-104826849D01*
X113292132Y-104817670D01*
X113273719Y-104806634D01*
X113256476Y-104793846D01*
X113240570Y-104779430D01*
X113226154Y-104763524D01*
X113213366Y-104746281D01*
X113202330Y-104727868D01*
X113193151Y-104708462D01*
X113185919Y-104688250D01*
X113180703Y-104667426D01*
X113177553Y-104646191D01*
X113176500Y-104624750D01*
X113176500Y-104112250D01*
X113177553Y-104090809D01*
X113180703Y-104069574D01*
X113185919Y-104048750D01*
X113193151Y-104028538D01*
X113202330Y-104009132D01*
X113213366Y-103990719D01*
X113226154Y-103973476D01*
X113240570Y-103957570D01*
X113256476Y-103943154D01*
X113273719Y-103930366D01*
X113292132Y-103919330D01*
X113311538Y-103910151D01*
X113331750Y-103902919D01*
X113352574Y-103897703D01*
X113373809Y-103894553D01*
X113395250Y-103893500D01*
X113832750Y-103893500D01*
X113854191Y-103894553D01*
X113854191Y-103894553D01*
G37*
D18*
G04 #@! TD*
G04 #@! TO.P,C2,2*
G04 #@! TO.N,Net-(C2-Pad2)*
X113614000Y-104368500D03*
D17*
G04 #@! TO.N,GND*
G04 #@! TO.C,C4*
G36*
X113905191Y-102370553D02*
X113926426Y-102373703D01*
X113947250Y-102378919D01*
X113967462Y-102386151D01*
X113986868Y-102395330D01*
X114005281Y-102406366D01*
X114022524Y-102419154D01*
X114038430Y-102433570D01*
X114052846Y-102449476D01*
X114065634Y-102466719D01*
X114076670Y-102485132D01*
X114085849Y-102504538D01*
X114093081Y-102524750D01*
X114098297Y-102545574D01*
X114101447Y-102566809D01*
X114102500Y-102588250D01*
X114102500Y-103100750D01*
X114101447Y-103122191D01*
X114098297Y-103143426D01*
X114093081Y-103164250D01*
X114085849Y-103184462D01*
X114076670Y-103203868D01*
X114065634Y-103222281D01*
X114052846Y-103239524D01*
X114038430Y-103255430D01*
X114022524Y-103269846D01*
X114005281Y-103282634D01*
X113986868Y-103293670D01*
X113967462Y-103302849D01*
X113947250Y-103310081D01*
X113926426Y-103315297D01*
X113905191Y-103318447D01*
X113883750Y-103319500D01*
X113446250Y-103319500D01*
X113424809Y-103318447D01*
X113403574Y-103315297D01*
X113382750Y-103310081D01*
X113362538Y-103302849D01*
X113343132Y-103293670D01*
X113324719Y-103282634D01*
X113307476Y-103269846D01*
X113291570Y-103255430D01*
X113277154Y-103239524D01*
X113264366Y-103222281D01*
X113253330Y-103203868D01*
X113244151Y-103184462D01*
X113236919Y-103164250D01*
X113231703Y-103143426D01*
X113228553Y-103122191D01*
X113227500Y-103100750D01*
X113227500Y-102588250D01*
X113228553Y-102566809D01*
X113231703Y-102545574D01*
X113236919Y-102524750D01*
X113244151Y-102504538D01*
X113253330Y-102485132D01*
X113264366Y-102466719D01*
X113277154Y-102449476D01*
X113291570Y-102433570D01*
X113307476Y-102419154D01*
X113324719Y-102406366D01*
X113343132Y-102395330D01*
X113362538Y-102386151D01*
X113382750Y-102378919D01*
X113403574Y-102373703D01*
X113424809Y-102370553D01*
X113446250Y-102369500D01*
X113883750Y-102369500D01*
X113905191Y-102370553D01*
X113905191Y-102370553D01*
G37*
D18*
G04 #@! TD*
G04 #@! TO.P,C4,2*
G04 #@! TO.N,GND*
X113665000Y-102844500D03*
D17*
G04 #@! TO.N,+5V*
G04 #@! TO.C,C4*
G36*
X115480191Y-102370553D02*
X115501426Y-102373703D01*
X115522250Y-102378919D01*
X115542462Y-102386151D01*
X115561868Y-102395330D01*
X115580281Y-102406366D01*
X115597524Y-102419154D01*
X115613430Y-102433570D01*
X115627846Y-102449476D01*
X115640634Y-102466719D01*
X115651670Y-102485132D01*
X115660849Y-102504538D01*
X115668081Y-102524750D01*
X115673297Y-102545574D01*
X115676447Y-102566809D01*
X115677500Y-102588250D01*
X115677500Y-103100750D01*
X115676447Y-103122191D01*
X115673297Y-103143426D01*
X115668081Y-103164250D01*
X115660849Y-103184462D01*
X115651670Y-103203868D01*
X115640634Y-103222281D01*
X115627846Y-103239524D01*
X115613430Y-103255430D01*
X115597524Y-103269846D01*
X115580281Y-103282634D01*
X115561868Y-103293670D01*
X115542462Y-103302849D01*
X115522250Y-103310081D01*
X115501426Y-103315297D01*
X115480191Y-103318447D01*
X115458750Y-103319500D01*
X115021250Y-103319500D01*
X114999809Y-103318447D01*
X114978574Y-103315297D01*
X114957750Y-103310081D01*
X114937538Y-103302849D01*
X114918132Y-103293670D01*
X114899719Y-103282634D01*
X114882476Y-103269846D01*
X114866570Y-103255430D01*
X114852154Y-103239524D01*
X114839366Y-103222281D01*
X114828330Y-103203868D01*
X114819151Y-103184462D01*
X114811919Y-103164250D01*
X114806703Y-103143426D01*
X114803553Y-103122191D01*
X114802500Y-103100750D01*
X114802500Y-102588250D01*
X114803553Y-102566809D01*
X114806703Y-102545574D01*
X114811919Y-102524750D01*
X114819151Y-102504538D01*
X114828330Y-102485132D01*
X114839366Y-102466719D01*
X114852154Y-102449476D01*
X114866570Y-102433570D01*
X114882476Y-102419154D01*
X114899719Y-102406366D01*
X114918132Y-102395330D01*
X114937538Y-102386151D01*
X114957750Y-102378919D01*
X114978574Y-102373703D01*
X114999809Y-102370553D01*
X115021250Y-102369500D01*
X115458750Y-102369500D01*
X115480191Y-102370553D01*
X115480191Y-102370553D01*
G37*
D18*
G04 #@! TD*
G04 #@! TO.P,C4,1*
G04 #@! TO.N,+5V*
X115240000Y-102844500D03*
D17*
G04 #@! TO.N,+BATT*
G04 #@! TO.C,C5*
G36*
X122578691Y-85644053D02*
X122599926Y-85647203D01*
X122620750Y-85652419D01*
X122640962Y-85659651D01*
X122660368Y-85668830D01*
X122678781Y-85679866D01*
X122696024Y-85692654D01*
X122711930Y-85707070D01*
X122726346Y-85722976D01*
X122739134Y-85740219D01*
X122750170Y-85758632D01*
X122759349Y-85778038D01*
X122766581Y-85798250D01*
X122771797Y-85819074D01*
X122774947Y-85840309D01*
X122776000Y-85861750D01*
X122776000Y-86299250D01*
X122774947Y-86320691D01*
X122771797Y-86341926D01*
X122766581Y-86362750D01*
X122759349Y-86382962D01*
X122750170Y-86402368D01*
X122739134Y-86420781D01*
X122726346Y-86438024D01*
X122711930Y-86453930D01*
X122696024Y-86468346D01*
X122678781Y-86481134D01*
X122660368Y-86492170D01*
X122640962Y-86501349D01*
X122620750Y-86508581D01*
X122599926Y-86513797D01*
X122578691Y-86516947D01*
X122557250Y-86518000D01*
X122044750Y-86518000D01*
X122023309Y-86516947D01*
X122002074Y-86513797D01*
X121981250Y-86508581D01*
X121961038Y-86501349D01*
X121941632Y-86492170D01*
X121923219Y-86481134D01*
X121905976Y-86468346D01*
X121890070Y-86453930D01*
X121875654Y-86438024D01*
X121862866Y-86420781D01*
X121851830Y-86402368D01*
X121842651Y-86382962D01*
X121835419Y-86362750D01*
X121830203Y-86341926D01*
X121827053Y-86320691D01*
X121826000Y-86299250D01*
X121826000Y-85861750D01*
X121827053Y-85840309D01*
X121830203Y-85819074D01*
X121835419Y-85798250D01*
X121842651Y-85778038D01*
X121851830Y-85758632D01*
X121862866Y-85740219D01*
X121875654Y-85722976D01*
X121890070Y-85707070D01*
X121905976Y-85692654D01*
X121923219Y-85679866D01*
X121941632Y-85668830D01*
X121961038Y-85659651D01*
X121981250Y-85652419D01*
X122002074Y-85647203D01*
X122023309Y-85644053D01*
X122044750Y-85643000D01*
X122557250Y-85643000D01*
X122578691Y-85644053D01*
X122578691Y-85644053D01*
G37*
D18*
G04 #@! TD*
G04 #@! TO.P,C5,1*
G04 #@! TO.N,+BATT*
X122301000Y-86080500D03*
D17*
G04 #@! TO.N,GND*
G04 #@! TO.C,C5*
G36*
X122578691Y-87219053D02*
X122599926Y-87222203D01*
X122620750Y-87227419D01*
X122640962Y-87234651D01*
X122660368Y-87243830D01*
X122678781Y-87254866D01*
X122696024Y-87267654D01*
X122711930Y-87282070D01*
X122726346Y-87297976D01*
X122739134Y-87315219D01*
X122750170Y-87333632D01*
X122759349Y-87353038D01*
X122766581Y-87373250D01*
X122771797Y-87394074D01*
X122774947Y-87415309D01*
X122776000Y-87436750D01*
X122776000Y-87874250D01*
X122774947Y-87895691D01*
X122771797Y-87916926D01*
X122766581Y-87937750D01*
X122759349Y-87957962D01*
X122750170Y-87977368D01*
X122739134Y-87995781D01*
X122726346Y-88013024D01*
X122711930Y-88028930D01*
X122696024Y-88043346D01*
X122678781Y-88056134D01*
X122660368Y-88067170D01*
X122640962Y-88076349D01*
X122620750Y-88083581D01*
X122599926Y-88088797D01*
X122578691Y-88091947D01*
X122557250Y-88093000D01*
X122044750Y-88093000D01*
X122023309Y-88091947D01*
X122002074Y-88088797D01*
X121981250Y-88083581D01*
X121961038Y-88076349D01*
X121941632Y-88067170D01*
X121923219Y-88056134D01*
X121905976Y-88043346D01*
X121890070Y-88028930D01*
X121875654Y-88013024D01*
X121862866Y-87995781D01*
X121851830Y-87977368D01*
X121842651Y-87957962D01*
X121835419Y-87937750D01*
X121830203Y-87916926D01*
X121827053Y-87895691D01*
X121826000Y-87874250D01*
X121826000Y-87436750D01*
X121827053Y-87415309D01*
X121830203Y-87394074D01*
X121835419Y-87373250D01*
X121842651Y-87353038D01*
X121851830Y-87333632D01*
X121862866Y-87315219D01*
X121875654Y-87297976D01*
X121890070Y-87282070D01*
X121905976Y-87267654D01*
X121923219Y-87254866D01*
X121941632Y-87243830D01*
X121961038Y-87234651D01*
X121981250Y-87227419D01*
X122002074Y-87222203D01*
X122023309Y-87219053D01*
X122044750Y-87218000D01*
X122557250Y-87218000D01*
X122578691Y-87219053D01*
X122578691Y-87219053D01*
G37*
D18*
G04 #@! TD*
G04 #@! TO.P,C5,2*
G04 #@! TO.N,GND*
X122301000Y-87655500D03*
D17*
G04 #@! TO.N,+5V*
G04 #@! TO.C,C7*
G36*
X114058504Y-97456704D02*
X114082773Y-97460304D01*
X114106571Y-97466265D01*
X114129671Y-97474530D01*
X114151849Y-97485020D01*
X114172893Y-97497633D01*
X114192598Y-97512247D01*
X114210777Y-97528723D01*
X114227253Y-97546902D01*
X114241867Y-97566607D01*
X114254480Y-97587651D01*
X114264970Y-97609829D01*
X114273235Y-97632929D01*
X114279196Y-97656727D01*
X114282796Y-97680996D01*
X114284000Y-97705500D01*
X114284000Y-99855500D01*
X114282796Y-99880004D01*
X114279196Y-99904273D01*
X114273235Y-99928071D01*
X114264970Y-99951171D01*
X114254480Y-99973349D01*
X114241867Y-99994393D01*
X114227253Y-100014098D01*
X114210777Y-100032277D01*
X114192598Y-100048753D01*
X114172893Y-100063367D01*
X114151849Y-100075980D01*
X114129671Y-100086470D01*
X114106571Y-100094735D01*
X114082773Y-100100696D01*
X114058504Y-100104296D01*
X114034000Y-100105500D01*
X113284000Y-100105500D01*
X113259496Y-100104296D01*
X113235227Y-100100696D01*
X113211429Y-100094735D01*
X113188329Y-100086470D01*
X113166151Y-100075980D01*
X113145107Y-100063367D01*
X113125402Y-100048753D01*
X113107223Y-100032277D01*
X113090747Y-100014098D01*
X113076133Y-99994393D01*
X113063520Y-99973349D01*
X113053030Y-99951171D01*
X113044765Y-99928071D01*
X113038804Y-99904273D01*
X113035204Y-99880004D01*
X113034000Y-99855500D01*
X113034000Y-97705500D01*
X113035204Y-97680996D01*
X113038804Y-97656727D01*
X113044765Y-97632929D01*
X113053030Y-97609829D01*
X113063520Y-97587651D01*
X113076133Y-97566607D01*
X113090747Y-97546902D01*
X113107223Y-97528723D01*
X113125402Y-97512247D01*
X113145107Y-97497633D01*
X113166151Y-97485020D01*
X113188329Y-97474530D01*
X113211429Y-97466265D01*
X113235227Y-97460304D01*
X113259496Y-97456704D01*
X113284000Y-97455500D01*
X114034000Y-97455500D01*
X114058504Y-97456704D01*
X114058504Y-97456704D01*
G37*
D19*
G04 #@! TD*
G04 #@! TO.P,C7,1*
G04 #@! TO.N,+5V*
X113659000Y-98780500D03*
D17*
G04 #@! TO.N,GND*
G04 #@! TO.C,C7*
G36*
X116858504Y-97456704D02*
X116882773Y-97460304D01*
X116906571Y-97466265D01*
X116929671Y-97474530D01*
X116951849Y-97485020D01*
X116972893Y-97497633D01*
X116992598Y-97512247D01*
X117010777Y-97528723D01*
X117027253Y-97546902D01*
X117041867Y-97566607D01*
X117054480Y-97587651D01*
X117064970Y-97609829D01*
X117073235Y-97632929D01*
X117079196Y-97656727D01*
X117082796Y-97680996D01*
X117084000Y-97705500D01*
X117084000Y-99855500D01*
X117082796Y-99880004D01*
X117079196Y-99904273D01*
X117073235Y-99928071D01*
X117064970Y-99951171D01*
X117054480Y-99973349D01*
X117041867Y-99994393D01*
X117027253Y-100014098D01*
X117010777Y-100032277D01*
X116992598Y-100048753D01*
X116972893Y-100063367D01*
X116951849Y-100075980D01*
X116929671Y-100086470D01*
X116906571Y-100094735D01*
X116882773Y-100100696D01*
X116858504Y-100104296D01*
X116834000Y-100105500D01*
X116084000Y-100105500D01*
X116059496Y-100104296D01*
X116035227Y-100100696D01*
X116011429Y-100094735D01*
X115988329Y-100086470D01*
X115966151Y-100075980D01*
X115945107Y-100063367D01*
X115925402Y-100048753D01*
X115907223Y-100032277D01*
X115890747Y-100014098D01*
X115876133Y-99994393D01*
X115863520Y-99973349D01*
X115853030Y-99951171D01*
X115844765Y-99928071D01*
X115838804Y-99904273D01*
X115835204Y-99880004D01*
X115834000Y-99855500D01*
X115834000Y-97705500D01*
X115835204Y-97680996D01*
X115838804Y-97656727D01*
X115844765Y-97632929D01*
X115853030Y-97609829D01*
X115863520Y-97587651D01*
X115876133Y-97566607D01*
X115890747Y-97546902D01*
X115907223Y-97528723D01*
X115925402Y-97512247D01*
X115945107Y-97497633D01*
X115966151Y-97485020D01*
X115988329Y-97474530D01*
X116011429Y-97466265D01*
X116035227Y-97460304D01*
X116059496Y-97456704D01*
X116084000Y-97455500D01*
X116834000Y-97455500D01*
X116858504Y-97456704D01*
X116858504Y-97456704D01*
G37*
D19*
G04 #@! TD*
G04 #@! TO.P,C7,2*
G04 #@! TO.N,GND*
X116459000Y-98780500D03*
D17*
G04 #@! TO.N,Net-(D1-Pad1)*
G04 #@! TO.C,D1*
G36*
X116318191Y-89289553D02*
X116339426Y-89292703D01*
X116360250Y-89297919D01*
X116380462Y-89305151D01*
X116399868Y-89314330D01*
X116418281Y-89325366D01*
X116435524Y-89338154D01*
X116451430Y-89352570D01*
X116465846Y-89368476D01*
X116478634Y-89385719D01*
X116489670Y-89404132D01*
X116498849Y-89423538D01*
X116506081Y-89443750D01*
X116511297Y-89464574D01*
X116514447Y-89485809D01*
X116515500Y-89507250D01*
X116515500Y-90019750D01*
X116514447Y-90041191D01*
X116511297Y-90062426D01*
X116506081Y-90083250D01*
X116498849Y-90103462D01*
X116489670Y-90122868D01*
X116478634Y-90141281D01*
X116465846Y-90158524D01*
X116451430Y-90174430D01*
X116435524Y-90188846D01*
X116418281Y-90201634D01*
X116399868Y-90212670D01*
X116380462Y-90221849D01*
X116360250Y-90229081D01*
X116339426Y-90234297D01*
X116318191Y-90237447D01*
X116296750Y-90238500D01*
X115859250Y-90238500D01*
X115837809Y-90237447D01*
X115816574Y-90234297D01*
X115795750Y-90229081D01*
X115775538Y-90221849D01*
X115756132Y-90212670D01*
X115737719Y-90201634D01*
X115720476Y-90188846D01*
X115704570Y-90174430D01*
X115690154Y-90158524D01*
X115677366Y-90141281D01*
X115666330Y-90122868D01*
X115657151Y-90103462D01*
X115649919Y-90083250D01*
X115644703Y-90062426D01*
X115641553Y-90041191D01*
X115640500Y-90019750D01*
X115640500Y-89507250D01*
X115641553Y-89485809D01*
X115644703Y-89464574D01*
X115649919Y-89443750D01*
X115657151Y-89423538D01*
X115666330Y-89404132D01*
X115677366Y-89385719D01*
X115690154Y-89368476D01*
X115704570Y-89352570D01*
X115720476Y-89338154D01*
X115737719Y-89325366D01*
X115756132Y-89314330D01*
X115775538Y-89305151D01*
X115795750Y-89297919D01*
X115816574Y-89292703D01*
X115837809Y-89289553D01*
X115859250Y-89288500D01*
X116296750Y-89288500D01*
X116318191Y-89289553D01*
X116318191Y-89289553D01*
G37*
D18*
G04 #@! TD*
G04 #@! TO.P,D1,1*
G04 #@! TO.N,Net-(D1-Pad1)*
X116078000Y-89763500D03*
D17*
G04 #@! TO.N,+BATT*
G04 #@! TO.C,D1*
G36*
X117893191Y-89289553D02*
X117914426Y-89292703D01*
X117935250Y-89297919D01*
X117955462Y-89305151D01*
X117974868Y-89314330D01*
X117993281Y-89325366D01*
X118010524Y-89338154D01*
X118026430Y-89352570D01*
X118040846Y-89368476D01*
X118053634Y-89385719D01*
X118064670Y-89404132D01*
X118073849Y-89423538D01*
X118081081Y-89443750D01*
X118086297Y-89464574D01*
X118089447Y-89485809D01*
X118090500Y-89507250D01*
X118090500Y-90019750D01*
X118089447Y-90041191D01*
X118086297Y-90062426D01*
X118081081Y-90083250D01*
X118073849Y-90103462D01*
X118064670Y-90122868D01*
X118053634Y-90141281D01*
X118040846Y-90158524D01*
X118026430Y-90174430D01*
X118010524Y-90188846D01*
X117993281Y-90201634D01*
X117974868Y-90212670D01*
X117955462Y-90221849D01*
X117935250Y-90229081D01*
X117914426Y-90234297D01*
X117893191Y-90237447D01*
X117871750Y-90238500D01*
X117434250Y-90238500D01*
X117412809Y-90237447D01*
X117391574Y-90234297D01*
X117370750Y-90229081D01*
X117350538Y-90221849D01*
X117331132Y-90212670D01*
X117312719Y-90201634D01*
X117295476Y-90188846D01*
X117279570Y-90174430D01*
X117265154Y-90158524D01*
X117252366Y-90141281D01*
X117241330Y-90122868D01*
X117232151Y-90103462D01*
X117224919Y-90083250D01*
X117219703Y-90062426D01*
X117216553Y-90041191D01*
X117215500Y-90019750D01*
X117215500Y-89507250D01*
X117216553Y-89485809D01*
X117219703Y-89464574D01*
X117224919Y-89443750D01*
X117232151Y-89423538D01*
X117241330Y-89404132D01*
X117252366Y-89385719D01*
X117265154Y-89368476D01*
X117279570Y-89352570D01*
X117295476Y-89338154D01*
X117312719Y-89325366D01*
X117331132Y-89314330D01*
X117350538Y-89305151D01*
X117370750Y-89297919D01*
X117391574Y-89292703D01*
X117412809Y-89289553D01*
X117434250Y-89288500D01*
X117871750Y-89288500D01*
X117893191Y-89289553D01*
X117893191Y-89289553D01*
G37*
D18*
G04 #@! TD*
G04 #@! TO.P,D1,2*
G04 #@! TO.N,+BATT*
X117653000Y-89763500D03*
D17*
G04 #@! TO.N,Net-(D2-Pad2)*
G04 #@! TO.C,D2*
G36*
X114323691Y-86076053D02*
X114344926Y-86079203D01*
X114365750Y-86084419D01*
X114385962Y-86091651D01*
X114405368Y-86100830D01*
X114423781Y-86111866D01*
X114441024Y-86124654D01*
X114456930Y-86139070D01*
X114471346Y-86154976D01*
X114484134Y-86172219D01*
X114495170Y-86190632D01*
X114504349Y-86210038D01*
X114511581Y-86230250D01*
X114516797Y-86251074D01*
X114519947Y-86272309D01*
X114521000Y-86293750D01*
X114521000Y-86731250D01*
X114519947Y-86752691D01*
X114516797Y-86773926D01*
X114511581Y-86794750D01*
X114504349Y-86814962D01*
X114495170Y-86834368D01*
X114484134Y-86852781D01*
X114471346Y-86870024D01*
X114456930Y-86885930D01*
X114441024Y-86900346D01*
X114423781Y-86913134D01*
X114405368Y-86924170D01*
X114385962Y-86933349D01*
X114365750Y-86940581D01*
X114344926Y-86945797D01*
X114323691Y-86948947D01*
X114302250Y-86950000D01*
X113789750Y-86950000D01*
X113768309Y-86948947D01*
X113747074Y-86945797D01*
X113726250Y-86940581D01*
X113706038Y-86933349D01*
X113686632Y-86924170D01*
X113668219Y-86913134D01*
X113650976Y-86900346D01*
X113635070Y-86885930D01*
X113620654Y-86870024D01*
X113607866Y-86852781D01*
X113596830Y-86834368D01*
X113587651Y-86814962D01*
X113580419Y-86794750D01*
X113575203Y-86773926D01*
X113572053Y-86752691D01*
X113571000Y-86731250D01*
X113571000Y-86293750D01*
X113572053Y-86272309D01*
X113575203Y-86251074D01*
X113580419Y-86230250D01*
X113587651Y-86210038D01*
X113596830Y-86190632D01*
X113607866Y-86172219D01*
X113620654Y-86154976D01*
X113635070Y-86139070D01*
X113650976Y-86124654D01*
X113668219Y-86111866D01*
X113686632Y-86100830D01*
X113706038Y-86091651D01*
X113726250Y-86084419D01*
X113747074Y-86079203D01*
X113768309Y-86076053D01*
X113789750Y-86075000D01*
X114302250Y-86075000D01*
X114323691Y-86076053D01*
X114323691Y-86076053D01*
G37*
D18*
G04 #@! TD*
G04 #@! TO.P,D2,2*
G04 #@! TO.N,Net-(D2-Pad2)*
X114046000Y-86512500D03*
D17*
G04 #@! TO.N,GND*
G04 #@! TO.C,D2*
G36*
X114323691Y-84501053D02*
X114344926Y-84504203D01*
X114365750Y-84509419D01*
X114385962Y-84516651D01*
X114405368Y-84525830D01*
X114423781Y-84536866D01*
X114441024Y-84549654D01*
X114456930Y-84564070D01*
X114471346Y-84579976D01*
X114484134Y-84597219D01*
X114495170Y-84615632D01*
X114504349Y-84635038D01*
X114511581Y-84655250D01*
X114516797Y-84676074D01*
X114519947Y-84697309D01*
X114521000Y-84718750D01*
X114521000Y-85156250D01*
X114519947Y-85177691D01*
X114516797Y-85198926D01*
X114511581Y-85219750D01*
X114504349Y-85239962D01*
X114495170Y-85259368D01*
X114484134Y-85277781D01*
X114471346Y-85295024D01*
X114456930Y-85310930D01*
X114441024Y-85325346D01*
X114423781Y-85338134D01*
X114405368Y-85349170D01*
X114385962Y-85358349D01*
X114365750Y-85365581D01*
X114344926Y-85370797D01*
X114323691Y-85373947D01*
X114302250Y-85375000D01*
X113789750Y-85375000D01*
X113768309Y-85373947D01*
X113747074Y-85370797D01*
X113726250Y-85365581D01*
X113706038Y-85358349D01*
X113686632Y-85349170D01*
X113668219Y-85338134D01*
X113650976Y-85325346D01*
X113635070Y-85310930D01*
X113620654Y-85295024D01*
X113607866Y-85277781D01*
X113596830Y-85259368D01*
X113587651Y-85239962D01*
X113580419Y-85219750D01*
X113575203Y-85198926D01*
X113572053Y-85177691D01*
X113571000Y-85156250D01*
X113571000Y-84718750D01*
X113572053Y-84697309D01*
X113575203Y-84676074D01*
X113580419Y-84655250D01*
X113587651Y-84635038D01*
X113596830Y-84615632D01*
X113607866Y-84597219D01*
X113620654Y-84579976D01*
X113635070Y-84564070D01*
X113650976Y-84549654D01*
X113668219Y-84536866D01*
X113686632Y-84525830D01*
X113706038Y-84516651D01*
X113726250Y-84509419D01*
X113747074Y-84504203D01*
X113768309Y-84501053D01*
X113789750Y-84500000D01*
X114302250Y-84500000D01*
X114323691Y-84501053D01*
X114323691Y-84501053D01*
G37*
D18*
G04 #@! TD*
G04 #@! TO.P,D2,1*
G04 #@! TO.N,GND*
X114046000Y-84937500D03*
D17*
G04 #@! TO.N,Net-(D3-Pad1)*
G04 #@! TO.C,D3*
G36*
X114323691Y-87549053D02*
X114344926Y-87552203D01*
X114365750Y-87557419D01*
X114385962Y-87564651D01*
X114405368Y-87573830D01*
X114423781Y-87584866D01*
X114441024Y-87597654D01*
X114456930Y-87612070D01*
X114471346Y-87627976D01*
X114484134Y-87645219D01*
X114495170Y-87663632D01*
X114504349Y-87683038D01*
X114511581Y-87703250D01*
X114516797Y-87724074D01*
X114519947Y-87745309D01*
X114521000Y-87766750D01*
X114521000Y-88204250D01*
X114519947Y-88225691D01*
X114516797Y-88246926D01*
X114511581Y-88267750D01*
X114504349Y-88287962D01*
X114495170Y-88307368D01*
X114484134Y-88325781D01*
X114471346Y-88343024D01*
X114456930Y-88358930D01*
X114441024Y-88373346D01*
X114423781Y-88386134D01*
X114405368Y-88397170D01*
X114385962Y-88406349D01*
X114365750Y-88413581D01*
X114344926Y-88418797D01*
X114323691Y-88421947D01*
X114302250Y-88423000D01*
X113789750Y-88423000D01*
X113768309Y-88421947D01*
X113747074Y-88418797D01*
X113726250Y-88413581D01*
X113706038Y-88406349D01*
X113686632Y-88397170D01*
X113668219Y-88386134D01*
X113650976Y-88373346D01*
X113635070Y-88358930D01*
X113620654Y-88343024D01*
X113607866Y-88325781D01*
X113596830Y-88307368D01*
X113587651Y-88287962D01*
X113580419Y-88267750D01*
X113575203Y-88246926D01*
X113572053Y-88225691D01*
X113571000Y-88204250D01*
X113571000Y-87766750D01*
X113572053Y-87745309D01*
X113575203Y-87724074D01*
X113580419Y-87703250D01*
X113587651Y-87683038D01*
X113596830Y-87663632D01*
X113607866Y-87645219D01*
X113620654Y-87627976D01*
X113635070Y-87612070D01*
X113650976Y-87597654D01*
X113668219Y-87584866D01*
X113686632Y-87573830D01*
X113706038Y-87564651D01*
X113726250Y-87557419D01*
X113747074Y-87552203D01*
X113768309Y-87549053D01*
X113789750Y-87548000D01*
X114302250Y-87548000D01*
X114323691Y-87549053D01*
X114323691Y-87549053D01*
G37*
D18*
G04 #@! TD*
G04 #@! TO.P,D3,1*
G04 #@! TO.N,Net-(D3-Pad1)*
X114046000Y-87985500D03*
D17*
G04 #@! TO.N,+VSW*
G04 #@! TO.C,D3*
G36*
X114323691Y-89124053D02*
X114344926Y-89127203D01*
X114365750Y-89132419D01*
X114385962Y-89139651D01*
X114405368Y-89148830D01*
X114423781Y-89159866D01*
X114441024Y-89172654D01*
X114456930Y-89187070D01*
X114471346Y-89202976D01*
X114484134Y-89220219D01*
X114495170Y-89238632D01*
X114504349Y-89258038D01*
X114511581Y-89278250D01*
X114516797Y-89299074D01*
X114519947Y-89320309D01*
X114521000Y-89341750D01*
X114521000Y-89779250D01*
X114519947Y-89800691D01*
X114516797Y-89821926D01*
X114511581Y-89842750D01*
X114504349Y-89862962D01*
X114495170Y-89882368D01*
X114484134Y-89900781D01*
X114471346Y-89918024D01*
X114456930Y-89933930D01*
X114441024Y-89948346D01*
X114423781Y-89961134D01*
X114405368Y-89972170D01*
X114385962Y-89981349D01*
X114365750Y-89988581D01*
X114344926Y-89993797D01*
X114323691Y-89996947D01*
X114302250Y-89998000D01*
X113789750Y-89998000D01*
X113768309Y-89996947D01*
X113747074Y-89993797D01*
X113726250Y-89988581D01*
X113706038Y-89981349D01*
X113686632Y-89972170D01*
X113668219Y-89961134D01*
X113650976Y-89948346D01*
X113635070Y-89933930D01*
X113620654Y-89918024D01*
X113607866Y-89900781D01*
X113596830Y-89882368D01*
X113587651Y-89862962D01*
X113580419Y-89842750D01*
X113575203Y-89821926D01*
X113572053Y-89800691D01*
X113571000Y-89779250D01*
X113571000Y-89341750D01*
X113572053Y-89320309D01*
X113575203Y-89299074D01*
X113580419Y-89278250D01*
X113587651Y-89258038D01*
X113596830Y-89238632D01*
X113607866Y-89220219D01*
X113620654Y-89202976D01*
X113635070Y-89187070D01*
X113650976Y-89172654D01*
X113668219Y-89159866D01*
X113686632Y-89148830D01*
X113706038Y-89139651D01*
X113726250Y-89132419D01*
X113747074Y-89127203D01*
X113768309Y-89124053D01*
X113789750Y-89123000D01*
X114302250Y-89123000D01*
X114323691Y-89124053D01*
X114323691Y-89124053D01*
G37*
D18*
G04 #@! TD*
G04 #@! TO.P,D3,2*
G04 #@! TO.N,+VSW*
X114046000Y-89560500D03*
D17*
G04 #@! TO.N,Net-(R1-Pad1)*
G04 #@! TO.C,R1*
G36*
X120509191Y-89162553D02*
X120530426Y-89165703D01*
X120551250Y-89170919D01*
X120571462Y-89178151D01*
X120590868Y-89187330D01*
X120609281Y-89198366D01*
X120626524Y-89211154D01*
X120642430Y-89225570D01*
X120656846Y-89241476D01*
X120669634Y-89258719D01*
X120680670Y-89277132D01*
X120689849Y-89296538D01*
X120697081Y-89316750D01*
X120702297Y-89337574D01*
X120705447Y-89358809D01*
X120706500Y-89380250D01*
X120706500Y-89892750D01*
X120705447Y-89914191D01*
X120702297Y-89935426D01*
X120697081Y-89956250D01*
X120689849Y-89976462D01*
X120680670Y-89995868D01*
X120669634Y-90014281D01*
X120656846Y-90031524D01*
X120642430Y-90047430D01*
X120626524Y-90061846D01*
X120609281Y-90074634D01*
X120590868Y-90085670D01*
X120571462Y-90094849D01*
X120551250Y-90102081D01*
X120530426Y-90107297D01*
X120509191Y-90110447D01*
X120487750Y-90111500D01*
X120050250Y-90111500D01*
X120028809Y-90110447D01*
X120007574Y-90107297D01*
X119986750Y-90102081D01*
X119966538Y-90094849D01*
X119947132Y-90085670D01*
X119928719Y-90074634D01*
X119911476Y-90061846D01*
X119895570Y-90047430D01*
X119881154Y-90031524D01*
X119868366Y-90014281D01*
X119857330Y-89995868D01*
X119848151Y-89976462D01*
X119840919Y-89956250D01*
X119835703Y-89935426D01*
X119832553Y-89914191D01*
X119831500Y-89892750D01*
X119831500Y-89380250D01*
X119832553Y-89358809D01*
X119835703Y-89337574D01*
X119840919Y-89316750D01*
X119848151Y-89296538D01*
X119857330Y-89277132D01*
X119868366Y-89258719D01*
X119881154Y-89241476D01*
X119895570Y-89225570D01*
X119911476Y-89211154D01*
X119928719Y-89198366D01*
X119947132Y-89187330D01*
X119966538Y-89178151D01*
X119986750Y-89170919D01*
X120007574Y-89165703D01*
X120028809Y-89162553D01*
X120050250Y-89161500D01*
X120487750Y-89161500D01*
X120509191Y-89162553D01*
X120509191Y-89162553D01*
G37*
D18*
G04 #@! TD*
G04 #@! TO.P,R1,1*
G04 #@! TO.N,Net-(R1-Pad1)*
X120269000Y-89636500D03*
D17*
G04 #@! TO.N,GND*
G04 #@! TO.C,R1*
G36*
X122084191Y-89162553D02*
X122105426Y-89165703D01*
X122126250Y-89170919D01*
X122146462Y-89178151D01*
X122165868Y-89187330D01*
X122184281Y-89198366D01*
X122201524Y-89211154D01*
X122217430Y-89225570D01*
X122231846Y-89241476D01*
X122244634Y-89258719D01*
X122255670Y-89277132D01*
X122264849Y-89296538D01*
X122272081Y-89316750D01*
X122277297Y-89337574D01*
X122280447Y-89358809D01*
X122281500Y-89380250D01*
X122281500Y-89892750D01*
X122280447Y-89914191D01*
X122277297Y-89935426D01*
X122272081Y-89956250D01*
X122264849Y-89976462D01*
X122255670Y-89995868D01*
X122244634Y-90014281D01*
X122231846Y-90031524D01*
X122217430Y-90047430D01*
X122201524Y-90061846D01*
X122184281Y-90074634D01*
X122165868Y-90085670D01*
X122146462Y-90094849D01*
X122126250Y-90102081D01*
X122105426Y-90107297D01*
X122084191Y-90110447D01*
X122062750Y-90111500D01*
X121625250Y-90111500D01*
X121603809Y-90110447D01*
X121582574Y-90107297D01*
X121561750Y-90102081D01*
X121541538Y-90094849D01*
X121522132Y-90085670D01*
X121503719Y-90074634D01*
X121486476Y-90061846D01*
X121470570Y-90047430D01*
X121456154Y-90031524D01*
X121443366Y-90014281D01*
X121432330Y-89995868D01*
X121423151Y-89976462D01*
X121415919Y-89956250D01*
X121410703Y-89935426D01*
X121407553Y-89914191D01*
X121406500Y-89892750D01*
X121406500Y-89380250D01*
X121407553Y-89358809D01*
X121410703Y-89337574D01*
X121415919Y-89316750D01*
X121423151Y-89296538D01*
X121432330Y-89277132D01*
X121443366Y-89258719D01*
X121456154Y-89241476D01*
X121470570Y-89225570D01*
X121486476Y-89211154D01*
X121503719Y-89198366D01*
X121522132Y-89187330D01*
X121541538Y-89178151D01*
X121561750Y-89170919D01*
X121582574Y-89165703D01*
X121603809Y-89162553D01*
X121625250Y-89161500D01*
X122062750Y-89161500D01*
X122084191Y-89162553D01*
X122084191Y-89162553D01*
G37*
D18*
G04 #@! TD*
G04 #@! TO.P,R1,2*
G04 #@! TO.N,GND*
X121844000Y-89636500D03*
D17*
G04 #@! TO.N,Net-(C2-Pad2)*
G04 #@! TO.C,R2*
G36*
X122541191Y-104148553D02*
X122562426Y-104151703D01*
X122583250Y-104156919D01*
X122603462Y-104164151D01*
X122622868Y-104173330D01*
X122641281Y-104184366D01*
X122658524Y-104197154D01*
X122674430Y-104211570D01*
X122688846Y-104227476D01*
X122701634Y-104244719D01*
X122712670Y-104263132D01*
X122721849Y-104282538D01*
X122729081Y-104302750D01*
X122734297Y-104323574D01*
X122737447Y-104344809D01*
X122738500Y-104366250D01*
X122738500Y-104878750D01*
X122737447Y-104900191D01*
X122734297Y-104921426D01*
X122729081Y-104942250D01*
X122721849Y-104962462D01*
X122712670Y-104981868D01*
X122701634Y-105000281D01*
X122688846Y-105017524D01*
X122674430Y-105033430D01*
X122658524Y-105047846D01*
X122641281Y-105060634D01*
X122622868Y-105071670D01*
X122603462Y-105080849D01*
X122583250Y-105088081D01*
X122562426Y-105093297D01*
X122541191Y-105096447D01*
X122519750Y-105097500D01*
X122082250Y-105097500D01*
X122060809Y-105096447D01*
X122039574Y-105093297D01*
X122018750Y-105088081D01*
X121998538Y-105080849D01*
X121979132Y-105071670D01*
X121960719Y-105060634D01*
X121943476Y-105047846D01*
X121927570Y-105033430D01*
X121913154Y-105017524D01*
X121900366Y-105000281D01*
X121889330Y-104981868D01*
X121880151Y-104962462D01*
X121872919Y-104942250D01*
X121867703Y-104921426D01*
X121864553Y-104900191D01*
X121863500Y-104878750D01*
X121863500Y-104366250D01*
X121864553Y-104344809D01*
X121867703Y-104323574D01*
X121872919Y-104302750D01*
X121880151Y-104282538D01*
X121889330Y-104263132D01*
X121900366Y-104244719D01*
X121913154Y-104227476D01*
X121927570Y-104211570D01*
X121943476Y-104197154D01*
X121960719Y-104184366D01*
X121979132Y-104173330D01*
X121998538Y-104164151D01*
X122018750Y-104156919D01*
X122039574Y-104151703D01*
X122060809Y-104148553D01*
X122082250Y-104147500D01*
X122519750Y-104147500D01*
X122541191Y-104148553D01*
X122541191Y-104148553D01*
G37*
D18*
G04 #@! TD*
G04 #@! TO.P,R2,1*
G04 #@! TO.N,Net-(C2-Pad2)*
X122301000Y-104622500D03*
D17*
G04 #@! TO.N,Net-(D4-Pad2)*
G04 #@! TO.C,R2*
G36*
X120966191Y-104148553D02*
X120987426Y-104151703D01*
X121008250Y-104156919D01*
X121028462Y-104164151D01*
X121047868Y-104173330D01*
X121066281Y-104184366D01*
X121083524Y-104197154D01*
X121099430Y-104211570D01*
X121113846Y-104227476D01*
X121126634Y-104244719D01*
X121137670Y-104263132D01*
X121146849Y-104282538D01*
X121154081Y-104302750D01*
X121159297Y-104323574D01*
X121162447Y-104344809D01*
X121163500Y-104366250D01*
X121163500Y-104878750D01*
X121162447Y-104900191D01*
X121159297Y-104921426D01*
X121154081Y-104942250D01*
X121146849Y-104962462D01*
X121137670Y-104981868D01*
X121126634Y-105000281D01*
X121113846Y-105017524D01*
X121099430Y-105033430D01*
X121083524Y-105047846D01*
X121066281Y-105060634D01*
X121047868Y-105071670D01*
X121028462Y-105080849D01*
X121008250Y-105088081D01*
X120987426Y-105093297D01*
X120966191Y-105096447D01*
X120944750Y-105097500D01*
X120507250Y-105097500D01*
X120485809Y-105096447D01*
X120464574Y-105093297D01*
X120443750Y-105088081D01*
X120423538Y-105080849D01*
X120404132Y-105071670D01*
X120385719Y-105060634D01*
X120368476Y-105047846D01*
X120352570Y-105033430D01*
X120338154Y-105017524D01*
X120325366Y-105000281D01*
X120314330Y-104981868D01*
X120305151Y-104962462D01*
X120297919Y-104942250D01*
X120292703Y-104921426D01*
X120289553Y-104900191D01*
X120288500Y-104878750D01*
X120288500Y-104366250D01*
X120289553Y-104344809D01*
X120292703Y-104323574D01*
X120297919Y-104302750D01*
X120305151Y-104282538D01*
X120314330Y-104263132D01*
X120325366Y-104244719D01*
X120338154Y-104227476D01*
X120352570Y-104211570D01*
X120368476Y-104197154D01*
X120385719Y-104184366D01*
X120404132Y-104173330D01*
X120423538Y-104164151D01*
X120443750Y-104156919D01*
X120464574Y-104151703D01*
X120485809Y-104148553D01*
X120507250Y-104147500D01*
X120944750Y-104147500D01*
X120966191Y-104148553D01*
X120966191Y-104148553D01*
G37*
D18*
G04 #@! TD*
G04 #@! TO.P,R2,2*
G04 #@! TO.N,Net-(D4-Pad2)*
X120726000Y-104622500D03*
D17*
G04 #@! TO.N,Net-(R4-Pad1)*
G04 #@! TO.C,R4*
G36*
X121562691Y-97201053D02*
X121583926Y-97204203D01*
X121604750Y-97209419D01*
X121624962Y-97216651D01*
X121644368Y-97225830D01*
X121662781Y-97236866D01*
X121680024Y-97249654D01*
X121695930Y-97264070D01*
X121710346Y-97279976D01*
X121723134Y-97297219D01*
X121734170Y-97315632D01*
X121743349Y-97335038D01*
X121750581Y-97355250D01*
X121755797Y-97376074D01*
X121758947Y-97397309D01*
X121760000Y-97418750D01*
X121760000Y-97856250D01*
X121758947Y-97877691D01*
X121755797Y-97898926D01*
X121750581Y-97919750D01*
X121743349Y-97939962D01*
X121734170Y-97959368D01*
X121723134Y-97977781D01*
X121710346Y-97995024D01*
X121695930Y-98010930D01*
X121680024Y-98025346D01*
X121662781Y-98038134D01*
X121644368Y-98049170D01*
X121624962Y-98058349D01*
X121604750Y-98065581D01*
X121583926Y-98070797D01*
X121562691Y-98073947D01*
X121541250Y-98075000D01*
X121028750Y-98075000D01*
X121007309Y-98073947D01*
X120986074Y-98070797D01*
X120965250Y-98065581D01*
X120945038Y-98058349D01*
X120925632Y-98049170D01*
X120907219Y-98038134D01*
X120889976Y-98025346D01*
X120874070Y-98010930D01*
X120859654Y-97995024D01*
X120846866Y-97977781D01*
X120835830Y-97959368D01*
X120826651Y-97939962D01*
X120819419Y-97919750D01*
X120814203Y-97898926D01*
X120811053Y-97877691D01*
X120810000Y-97856250D01*
X120810000Y-97418750D01*
X120811053Y-97397309D01*
X120814203Y-97376074D01*
X120819419Y-97355250D01*
X120826651Y-97335038D01*
X120835830Y-97315632D01*
X120846866Y-97297219D01*
X120859654Y-97279976D01*
X120874070Y-97264070D01*
X120889976Y-97249654D01*
X120907219Y-97236866D01*
X120925632Y-97225830D01*
X120945038Y-97216651D01*
X120965250Y-97209419D01*
X120986074Y-97204203D01*
X121007309Y-97201053D01*
X121028750Y-97200000D01*
X121541250Y-97200000D01*
X121562691Y-97201053D01*
X121562691Y-97201053D01*
G37*
D18*
G04 #@! TD*
G04 #@! TO.P,R4,1*
G04 #@! TO.N,Net-(R4-Pad1)*
X121285000Y-97637500D03*
D17*
G04 #@! TO.N,GND*
G04 #@! TO.C,R4*
G36*
X121562691Y-98776053D02*
X121583926Y-98779203D01*
X121604750Y-98784419D01*
X121624962Y-98791651D01*
X121644368Y-98800830D01*
X121662781Y-98811866D01*
X121680024Y-98824654D01*
X121695930Y-98839070D01*
X121710346Y-98854976D01*
X121723134Y-98872219D01*
X121734170Y-98890632D01*
X121743349Y-98910038D01*
X121750581Y-98930250D01*
X121755797Y-98951074D01*
X121758947Y-98972309D01*
X121760000Y-98993750D01*
X121760000Y-99431250D01*
X121758947Y-99452691D01*
X121755797Y-99473926D01*
X121750581Y-99494750D01*
X121743349Y-99514962D01*
X121734170Y-99534368D01*
X121723134Y-99552781D01*
X121710346Y-99570024D01*
X121695930Y-99585930D01*
X121680024Y-99600346D01*
X121662781Y-99613134D01*
X121644368Y-99624170D01*
X121624962Y-99633349D01*
X121604750Y-99640581D01*
X121583926Y-99645797D01*
X121562691Y-99648947D01*
X121541250Y-99650000D01*
X121028750Y-99650000D01*
X121007309Y-99648947D01*
X120986074Y-99645797D01*
X120965250Y-99640581D01*
X120945038Y-99633349D01*
X120925632Y-99624170D01*
X120907219Y-99613134D01*
X120889976Y-99600346D01*
X120874070Y-99585930D01*
X120859654Y-99570024D01*
X120846866Y-99552781D01*
X120835830Y-99534368D01*
X120826651Y-99514962D01*
X120819419Y-99494750D01*
X120814203Y-99473926D01*
X120811053Y-99452691D01*
X120810000Y-99431250D01*
X120810000Y-98993750D01*
X120811053Y-98972309D01*
X120814203Y-98951074D01*
X120819419Y-98930250D01*
X120826651Y-98910038D01*
X120835830Y-98890632D01*
X120846866Y-98872219D01*
X120859654Y-98854976D01*
X120874070Y-98839070D01*
X120889976Y-98824654D01*
X120907219Y-98811866D01*
X120925632Y-98800830D01*
X120945038Y-98791651D01*
X120965250Y-98784419D01*
X120986074Y-98779203D01*
X121007309Y-98776053D01*
X121028750Y-98775000D01*
X121541250Y-98775000D01*
X121562691Y-98776053D01*
X121562691Y-98776053D01*
G37*
D18*
G04 #@! TD*
G04 #@! TO.P,R4,2*
G04 #@! TO.N,GND*
X121285000Y-99212500D03*
D17*
G04 #@! TO.N,Net-(R4-Pad1)*
G04 #@! TO.C,R7*
G36*
X122705691Y-102459053D02*
X122726926Y-102462203D01*
X122747750Y-102467419D01*
X122767962Y-102474651D01*
X122787368Y-102483830D01*
X122805781Y-102494866D01*
X122823024Y-102507654D01*
X122838930Y-102522070D01*
X122853346Y-102537976D01*
X122866134Y-102555219D01*
X122877170Y-102573632D01*
X122886349Y-102593038D01*
X122893581Y-102613250D01*
X122898797Y-102634074D01*
X122901947Y-102655309D01*
X122903000Y-102676750D01*
X122903000Y-103114250D01*
X122901947Y-103135691D01*
X122898797Y-103156926D01*
X122893581Y-103177750D01*
X122886349Y-103197962D01*
X122877170Y-103217368D01*
X122866134Y-103235781D01*
X122853346Y-103253024D01*
X122838930Y-103268930D01*
X122823024Y-103283346D01*
X122805781Y-103296134D01*
X122787368Y-103307170D01*
X122767962Y-103316349D01*
X122747750Y-103323581D01*
X122726926Y-103328797D01*
X122705691Y-103331947D01*
X122684250Y-103333000D01*
X122171750Y-103333000D01*
X122150309Y-103331947D01*
X122129074Y-103328797D01*
X122108250Y-103323581D01*
X122088038Y-103316349D01*
X122068632Y-103307170D01*
X122050219Y-103296134D01*
X122032976Y-103283346D01*
X122017070Y-103268930D01*
X122002654Y-103253024D01*
X121989866Y-103235781D01*
X121978830Y-103217368D01*
X121969651Y-103197962D01*
X121962419Y-103177750D01*
X121957203Y-103156926D01*
X121954053Y-103135691D01*
X121953000Y-103114250D01*
X121953000Y-102676750D01*
X121954053Y-102655309D01*
X121957203Y-102634074D01*
X121962419Y-102613250D01*
X121969651Y-102593038D01*
X121978830Y-102573632D01*
X121989866Y-102555219D01*
X122002654Y-102537976D01*
X122017070Y-102522070D01*
X122032976Y-102507654D01*
X122050219Y-102494866D01*
X122068632Y-102483830D01*
X122088038Y-102474651D01*
X122108250Y-102467419D01*
X122129074Y-102462203D01*
X122150309Y-102459053D01*
X122171750Y-102458000D01*
X122684250Y-102458000D01*
X122705691Y-102459053D01*
X122705691Y-102459053D01*
G37*
D18*
G04 #@! TD*
G04 #@! TO.P,R7,2*
G04 #@! TO.N,Net-(R4-Pad1)*
X122428000Y-102895500D03*
D17*
G04 #@! TO.N,+VSW*
G04 #@! TO.C,R7*
G36*
X122705691Y-100884053D02*
X122726926Y-100887203D01*
X122747750Y-100892419D01*
X122767962Y-100899651D01*
X122787368Y-100908830D01*
X122805781Y-100919866D01*
X122823024Y-100932654D01*
X122838930Y-100947070D01*
X122853346Y-100962976D01*
X122866134Y-100980219D01*
X122877170Y-100998632D01*
X122886349Y-101018038D01*
X122893581Y-101038250D01*
X122898797Y-101059074D01*
X122901947Y-101080309D01*
X122903000Y-101101750D01*
X122903000Y-101539250D01*
X122901947Y-101560691D01*
X122898797Y-101581926D01*
X122893581Y-101602750D01*
X122886349Y-101622962D01*
X122877170Y-101642368D01*
X122866134Y-101660781D01*
X122853346Y-101678024D01*
X122838930Y-101693930D01*
X122823024Y-101708346D01*
X122805781Y-101721134D01*
X122787368Y-101732170D01*
X122767962Y-101741349D01*
X122747750Y-101748581D01*
X122726926Y-101753797D01*
X122705691Y-101756947D01*
X122684250Y-101758000D01*
X122171750Y-101758000D01*
X122150309Y-101756947D01*
X122129074Y-101753797D01*
X122108250Y-101748581D01*
X122088038Y-101741349D01*
X122068632Y-101732170D01*
X122050219Y-101721134D01*
X122032976Y-101708346D01*
X122017070Y-101693930D01*
X122002654Y-101678024D01*
X121989866Y-101660781D01*
X121978830Y-101642368D01*
X121969651Y-101622962D01*
X121962419Y-101602750D01*
X121957203Y-101581926D01*
X121954053Y-101560691D01*
X121953000Y-101539250D01*
X121953000Y-101101750D01*
X121954053Y-101080309D01*
X121957203Y-101059074D01*
X121962419Y-101038250D01*
X121969651Y-101018038D01*
X121978830Y-100998632D01*
X121989866Y-100980219D01*
X122002654Y-100962976D01*
X122017070Y-100947070D01*
X122032976Y-100932654D01*
X122050219Y-100919866D01*
X122068632Y-100908830D01*
X122088038Y-100899651D01*
X122108250Y-100892419D01*
X122129074Y-100887203D01*
X122150309Y-100884053D01*
X122171750Y-100883000D01*
X122684250Y-100883000D01*
X122705691Y-100884053D01*
X122705691Y-100884053D01*
G37*
D18*
G04 #@! TD*
G04 #@! TO.P,R7,1*
G04 #@! TO.N,+VSW*
X122428000Y-101320500D03*
D20*
G04 #@! TO.P,U4,1*
G04 #@! TO.N,GND*
X119883000Y-97764500D03*
G04 #@! TO.P,U4,2*
G04 #@! TO.N,/BATT_LOW_LED*
X117983000Y-97764500D03*
G04 #@! TO.P,U4,3*
G04 #@! TO.N,Net-(R4-Pad1)*
X118933000Y-99764500D03*
G04 #@! TD*
D21*
G04 #@! TO.P,RN1,2*
G04 #@! TO.N,/BATT_LOW_LED*
X117004000Y-87680500D03*
G04 #@! TO.P,RN1,7*
G04 #@! TO.N,Net-(D3-Pad1)*
X115484000Y-87680500D03*
G04 #@! TO.P,RN1,3*
G04 #@! TO.N,/CHG_LED*
X117004000Y-86880500D03*
G04 #@! TO.P,RN1,6*
G04 #@! TO.N,Net-(D2-Pad2)*
X115484000Y-86880500D03*
G04 #@! TO.P,RN1,1*
G04 #@! TO.N,/CHG_LED*
X117004000Y-88480500D03*
G04 #@! TO.P,RN1,4*
G04 #@! TO.N,N/C*
X117004000Y-86080500D03*
G04 #@! TO.P,RN1,5*
X115484000Y-86080500D03*
G04 #@! TO.P,RN1,8*
G04 #@! TO.N,Net-(D1-Pad1)*
X115484000Y-88480500D03*
G04 #@! TD*
D22*
G04 #@! TO.P,D4,1*
G04 #@! TO.N,+5V*
X116967000Y-105130500D03*
G04 #@! TO.P,D4,2*
G04 #@! TO.N,Net-(D4-Pad2)*
X119067000Y-105130500D03*
G04 #@! TD*
D23*
G04 #@! TO.P,L1,1*
G04 #@! TO.N,+VSW*
X120523000Y-101320500D03*
G04 #@! TO.P,L1,2*
G04 #@! TO.N,Net-(D4-Pad2)*
X120523000Y-103320500D03*
G04 #@! TD*
D20*
G04 #@! TO.P,U1,1*
G04 #@! TO.N,+5V*
X116713000Y-102812500D03*
G04 #@! TO.P,U1,2*
G04 #@! TO.N,Net-(D4-Pad2)*
X118613000Y-102812500D03*
G04 #@! TO.P,U1,3*
G04 #@! TO.N,GND*
X117663000Y-100812500D03*
G04 #@! TD*
D24*
G04 #@! TO.N,+BATT*
X119761000Y-91414500D03*
X119761000Y-91414500D03*
G04 #@! TO.N,GND*
X118872000Y-89636500D03*
X120015000Y-100304500D03*
X119507000Y-96240500D03*
X113665000Y-101701500D03*
G04 #@! TO.N,+5V*
X116459000Y-94462500D03*
G04 #@! TD*
D25*
G04 #@! TO.N,+BATT*
X123317000Y-90355500D02*
X122258000Y-91414500D01*
X123317000Y-87096500D02*
X123317000Y-90355500D01*
X122301000Y-86080500D02*
X123317000Y-87096500D01*
X122169000Y-86212500D02*
X122301000Y-86080500D01*
X120818000Y-86212500D02*
X122169000Y-86212500D01*
X119304000Y-91414500D02*
X119761000Y-91414500D01*
X117653000Y-89763500D02*
X119304000Y-91414500D01*
X119761000Y-91414500D02*
X122387000Y-91414500D01*
D26*
G04 #@! TO.N,GND*
X114935000Y-81889500D02*
X115062000Y-81762500D01*
X113538000Y-81889500D02*
X114935000Y-81889500D01*
D25*
X121808000Y-87162500D02*
X122301000Y-87655500D01*
X120818000Y-87162500D02*
X121808000Y-87162500D01*
X113665000Y-102844500D02*
X113665000Y-101701500D01*
G04 #@! TO.N,VBUS*
X119862000Y-85442300D02*
X119862000Y-84462500D01*
X119862000Y-85803300D02*
X119862000Y-85442300D01*
X119452800Y-86212500D02*
X119862000Y-85803300D01*
X118618000Y-86212500D02*
X119452800Y-86212500D01*
X114113000Y-83464500D02*
X113538000Y-83464500D01*
X114509399Y-83068101D02*
X114113000Y-83464500D01*
X119241243Y-83068101D02*
X114509399Y-83068101D01*
X119862000Y-83688858D02*
X119241243Y-83068101D01*
X119862000Y-84462500D02*
X119862000Y-83688858D01*
G04 #@! TO.N,+VSW*
X113584388Y-90022112D02*
X114046000Y-89560500D01*
X113296399Y-90310101D02*
X113584388Y-90022112D01*
X113296399Y-92348981D02*
X113296399Y-90310101D01*
X113367519Y-92420101D02*
X113296399Y-92348981D01*
X115534891Y-92420101D02*
X113367519Y-92420101D01*
X117214601Y-94099811D02*
X115534891Y-92420101D01*
X117214601Y-94825189D02*
X117214601Y-94099811D01*
X116125290Y-95914500D02*
X117214601Y-94825189D01*
X114427000Y-95914500D02*
X116125290Y-95914500D01*
X122387000Y-101279500D02*
X122428000Y-101320500D01*
X122387000Y-95914500D02*
X122387000Y-101279500D01*
X120523000Y-101320500D02*
X122428000Y-101320500D01*
G04 #@! TO.N,Net-(D1-Pad1)*
X115394000Y-89079500D02*
X116078000Y-89763500D01*
X115394000Y-88480500D02*
X115394000Y-89079500D01*
G04 #@! TO.N,Net-(D2-Pad2)*
X114414000Y-86880500D02*
X115394000Y-86880500D01*
X114046000Y-86512500D02*
X114414000Y-86880500D01*
G04 #@! TO.N,Net-(D3-Pad1)*
X114351000Y-87680500D02*
X115394000Y-87680500D01*
X114046000Y-87985500D02*
X114351000Y-87680500D01*
G04 #@! TO.N,Net-(R1-Pad1)*
X120142000Y-89636500D02*
X118618000Y-88112500D01*
X120269000Y-89636500D02*
X120142000Y-89636500D01*
G04 #@! TO.N,+5V*
X115893315Y-94462500D02*
X116459000Y-94462500D01*
X113813918Y-94462500D02*
X115893315Y-94462500D01*
X113296399Y-94980019D02*
X113813918Y-94462500D01*
X113296399Y-96992899D02*
X113296399Y-94980019D01*
X113659000Y-97355500D02*
X113296399Y-96992899D01*
X113659000Y-98780500D02*
X113659000Y-97355500D01*
D26*
G04 #@! TO.N,Net-(R4-Pad1)*
X118933000Y-100417700D02*
X118933000Y-99764500D01*
X118933000Y-101679142D02*
X118933000Y-100417700D01*
X119687746Y-102433888D02*
X118933000Y-101679142D01*
X121966388Y-102433888D02*
X119687746Y-102433888D01*
X122428000Y-102895500D02*
X121966388Y-102433888D01*
X118933000Y-99714500D02*
X118933000Y-99764500D01*
X119536200Y-99111300D02*
X118933000Y-99714500D01*
X119934842Y-99111300D02*
X119536200Y-99111300D01*
X120823388Y-98222754D02*
X119934842Y-99111300D01*
X120823388Y-98099112D02*
X120823388Y-98222754D01*
X121285000Y-97637500D02*
X120823388Y-98099112D01*
G04 #@! TO.N,/CHG_LED*
X120364358Y-88112500D02*
X120818000Y-88112500D01*
X119132358Y-86880500D02*
X120364358Y-88112500D01*
X117798001Y-86938499D02*
X117856000Y-86880500D01*
X117798001Y-88083701D02*
X117798001Y-86938499D01*
X117401202Y-88480500D02*
X117798001Y-88083701D01*
X117094000Y-88480500D02*
X117401202Y-88480500D01*
X117094000Y-86880500D02*
X117856000Y-86880500D01*
X117856000Y-86880500D02*
X119132358Y-86880500D01*
D25*
G04 #@! TO.N,/BATT_LOW_LED*
X117983000Y-97968500D02*
X117983000Y-98018500D01*
D26*
X117983000Y-97365300D02*
X117983000Y-98018500D01*
X117983000Y-94221618D02*
X117983000Y-97365300D01*
X117094000Y-87680500D02*
X116440800Y-87680500D01*
X116440800Y-87680500D02*
X116205000Y-87916300D01*
X116205000Y-87916300D02*
X116205000Y-88698702D01*
X116205000Y-88698702D02*
X116910690Y-89404392D01*
X116910690Y-89404392D02*
X116910690Y-93149308D01*
X116910690Y-93149308D02*
X117983000Y-94221618D01*
D27*
G04 #@! TO.N,Net-(C2-Pad2)*
X114075612Y-104830112D02*
X113614000Y-104368500D01*
X115011000Y-105765500D02*
X114075612Y-104830112D01*
X121158000Y-105765500D02*
X115011000Y-105765500D01*
X122301000Y-104622500D02*
X121158000Y-105765500D01*
G04 #@! TD*
G04 #@! TO.N,GND*
G36*
X112750600Y-99862905D02*
X112750600Y-102336500D01*
X112771868Y-102443422D01*
X112832434Y-102534066D01*
X112897300Y-102577408D01*
X112897300Y-102584150D01*
X112979850Y-102666700D01*
X113487200Y-102666700D01*
X113487200Y-102646700D01*
X113842800Y-102646700D01*
X113842800Y-102666700D01*
X113862800Y-102666700D01*
X113862800Y-103022300D01*
X113842800Y-103022300D01*
X113842800Y-103042300D01*
X113487200Y-103042300D01*
X113487200Y-103022300D01*
X112979850Y-103022300D01*
X112897300Y-103104850D01*
X112897300Y-103385181D01*
X112947570Y-103506543D01*
X113040457Y-103599430D01*
X113161819Y-103649700D01*
X113198426Y-103649700D01*
X113039135Y-103756135D01*
X112929963Y-103919522D01*
X112891627Y-104112250D01*
X112891627Y-104624750D01*
X112929963Y-104817478D01*
X113039135Y-104980865D01*
X113202522Y-105090037D01*
X113395250Y-105128373D01*
X113832750Y-105128373D01*
X113864636Y-105122030D01*
X114734789Y-105992183D01*
X114754627Y-106021873D01*
X114790886Y-106046100D01*
X113445904Y-106046100D01*
X113160474Y-105989325D01*
X112948088Y-105847412D01*
X112806175Y-105635026D01*
X112749400Y-105349596D01*
X112749400Y-99856872D01*
X112750600Y-99862905D01*
X112750600Y-99862905D01*
G37*
X112750600Y-99862905D02*
X112750600Y-102336500D01*
X112771868Y-102443422D01*
X112832434Y-102534066D01*
X112897300Y-102577408D01*
X112897300Y-102584150D01*
X112979850Y-102666700D01*
X113487200Y-102666700D01*
X113487200Y-102646700D01*
X113842800Y-102646700D01*
X113842800Y-102666700D01*
X113862800Y-102666700D01*
X113862800Y-103022300D01*
X113842800Y-103022300D01*
X113842800Y-103042300D01*
X113487200Y-103042300D01*
X113487200Y-103022300D01*
X112979850Y-103022300D01*
X112897300Y-103104850D01*
X112897300Y-103385181D01*
X112947570Y-103506543D01*
X113040457Y-103599430D01*
X113161819Y-103649700D01*
X113198426Y-103649700D01*
X113039135Y-103756135D01*
X112929963Y-103919522D01*
X112891627Y-104112250D01*
X112891627Y-104624750D01*
X112929963Y-104817478D01*
X113039135Y-104980865D01*
X113202522Y-105090037D01*
X113395250Y-105128373D01*
X113832750Y-105128373D01*
X113864636Y-105122030D01*
X114734789Y-105992183D01*
X114754627Y-106021873D01*
X114790886Y-106046100D01*
X113445904Y-106046100D01*
X113160474Y-105989325D01*
X112948088Y-105847412D01*
X112806175Y-105635026D01*
X112749400Y-105349596D01*
X112749400Y-99856872D01*
X112750600Y-99862905D01*
G36*
X117434250Y-90523373D02*
X117802216Y-90523373D01*
X118968600Y-91689757D01*
X118992690Y-91725810D01*
X119028742Y-91749899D01*
X119135520Y-91821246D01*
X119224661Y-91838977D01*
X119376151Y-91990467D01*
X119625859Y-92093900D01*
X119896141Y-92093900D01*
X120145849Y-91990467D01*
X120290016Y-91846300D01*
X121327127Y-91846300D01*
X121327127Y-92064500D01*
X121348812Y-92173516D01*
X121410564Y-92265936D01*
X121502984Y-92327688D01*
X121612000Y-92349373D01*
X123162000Y-92349373D01*
X123271016Y-92327688D01*
X123363436Y-92265936D01*
X123425188Y-92173516D01*
X123446873Y-92064500D01*
X123446873Y-90836285D01*
X123592260Y-90690898D01*
X123628310Y-90666810D01*
X123723746Y-90523980D01*
X123724600Y-90519685D01*
X123724601Y-105349591D01*
X123667825Y-105635026D01*
X123525912Y-105847412D01*
X123313526Y-105989325D01*
X123028096Y-106046100D01*
X121378114Y-106046100D01*
X121414373Y-106021873D01*
X121434211Y-105992183D01*
X121678590Y-105747804D01*
X121736566Y-105709066D01*
X121775304Y-105651090D01*
X122050364Y-105376030D01*
X122082250Y-105382373D01*
X122519750Y-105382373D01*
X122712478Y-105344037D01*
X122875865Y-105234865D01*
X122985037Y-105071478D01*
X123023373Y-104878750D01*
X123023373Y-104366250D01*
X122985037Y-104173522D01*
X122875865Y-104010135D01*
X122712478Y-103900963D01*
X122519750Y-103862627D01*
X122082250Y-103862627D01*
X121889522Y-103900963D01*
X121818400Y-103948485D01*
X121818400Y-103472213D01*
X121979022Y-103579537D01*
X122171750Y-103617873D01*
X122684250Y-103617873D01*
X122876978Y-103579537D01*
X123040365Y-103470365D01*
X123149537Y-103306978D01*
X123187873Y-103114250D01*
X123187873Y-102676750D01*
X123149537Y-102484022D01*
X123040365Y-102320635D01*
X122876978Y-102211463D01*
X122684250Y-102173127D01*
X122250378Y-102173127D01*
X122241074Y-102159202D01*
X122115047Y-102074994D01*
X122003912Y-102052888D01*
X121966388Y-102045424D01*
X121928864Y-102052888D01*
X119845562Y-102052888D01*
X119798047Y-102005373D01*
X121523000Y-102005373D01*
X121632016Y-101983688D01*
X121724436Y-101921936D01*
X121778912Y-101840405D01*
X121815635Y-101895365D01*
X121979022Y-102004537D01*
X122171750Y-102042873D01*
X122684250Y-102042873D01*
X122876978Y-102004537D01*
X123040365Y-101895365D01*
X123149537Y-101731978D01*
X123187873Y-101539250D01*
X123187873Y-101101750D01*
X123149537Y-100909022D01*
X123040365Y-100745635D01*
X122876978Y-100636463D01*
X122818800Y-100624891D01*
X122818800Y-96849373D01*
X123162000Y-96849373D01*
X123271016Y-96827688D01*
X123363436Y-96765936D01*
X123425188Y-96673516D01*
X123446873Y-96564500D01*
X123446873Y-95264500D01*
X123425188Y-95155484D01*
X123363436Y-95063064D01*
X123271016Y-95001312D01*
X123162000Y-94979627D01*
X121612000Y-94979627D01*
X121502984Y-95001312D01*
X121410564Y-95063064D01*
X121348812Y-95155484D01*
X121327127Y-95264500D01*
X121327127Y-96564500D01*
X121348812Y-96673516D01*
X121410564Y-96765936D01*
X121502984Y-96827688D01*
X121612000Y-96849373D01*
X121955200Y-96849373D01*
X121955200Y-97149191D01*
X121897365Y-97062635D01*
X121733978Y-96953463D01*
X121541250Y-96915127D01*
X121028750Y-96915127D01*
X120836022Y-96953463D01*
X120672635Y-97062635D01*
X120588337Y-97188795D01*
X120562930Y-97127457D01*
X120470043Y-97034570D01*
X120348681Y-96984300D01*
X120143350Y-96984300D01*
X120060800Y-97066850D01*
X120060800Y-97586700D01*
X120080800Y-97586700D01*
X120080800Y-97942300D01*
X120060800Y-97942300D01*
X120060800Y-98446527D01*
X119777027Y-98730300D01*
X119573724Y-98730300D01*
X119536200Y-98722836D01*
X119498676Y-98730300D01*
X119387541Y-98752406D01*
X119261514Y-98836614D01*
X119240256Y-98868429D01*
X119079058Y-99029627D01*
X118533000Y-99029627D01*
X118423984Y-99051312D01*
X118331564Y-99113064D01*
X118269812Y-99205484D01*
X118248127Y-99314500D01*
X118248127Y-100081776D01*
X118128681Y-100032300D01*
X117923350Y-100032300D01*
X117840800Y-100114850D01*
X117840800Y-100634700D01*
X118310650Y-100634700D01*
X118393200Y-100552150D01*
X118393200Y-100457119D01*
X118423984Y-100477688D01*
X118533000Y-100499373D01*
X118552001Y-100499373D01*
X118552000Y-101641618D01*
X118544536Y-101679142D01*
X118574106Y-101827800D01*
X118658314Y-101953828D01*
X118690129Y-101975086D01*
X118772143Y-102057100D01*
X117983000Y-102057100D01*
X117876078Y-102078368D01*
X117785434Y-102138934D01*
X117726766Y-102226737D01*
X117693175Y-102161960D01*
X117237767Y-101592700D01*
X117402650Y-101592700D01*
X117485200Y-101510150D01*
X117485200Y-100990300D01*
X117840800Y-100990300D01*
X117840800Y-101510150D01*
X117923350Y-101592700D01*
X118128681Y-101592700D01*
X118250043Y-101542430D01*
X118342930Y-101449543D01*
X118393200Y-101328181D01*
X118393200Y-101072850D01*
X118310650Y-100990300D01*
X117840800Y-100990300D01*
X117485200Y-100990300D01*
X117015350Y-100990300D01*
X116932800Y-101072850D01*
X116932800Y-101211491D01*
X116722115Y-100948135D01*
X116633764Y-100435700D01*
X116636802Y-100435700D01*
X116636802Y-100353152D01*
X116719350Y-100435700D01*
X116932800Y-100435700D01*
X116932800Y-100552150D01*
X117015350Y-100634700D01*
X117485200Y-100634700D01*
X117485200Y-100114850D01*
X117414200Y-100043850D01*
X117414200Y-99040850D01*
X117331650Y-98958300D01*
X116636800Y-98958300D01*
X116636800Y-98978300D01*
X116382488Y-98978300D01*
X116281200Y-98390828D01*
X116281200Y-97207850D01*
X116198650Y-97125300D01*
X115930580Y-97125300D01*
X115824000Y-97104100D01*
X114010341Y-97104100D01*
X113970310Y-97044190D01*
X113934257Y-97020100D01*
X113763530Y-96849373D01*
X115202000Y-96849373D01*
X115311016Y-96827688D01*
X115403436Y-96765936D01*
X115465188Y-96673516D01*
X115486873Y-96564500D01*
X115486873Y-96346300D01*
X116082768Y-96346300D01*
X116125290Y-96354758D01*
X116167812Y-96346300D01*
X116167816Y-96346300D01*
X116293770Y-96321246D01*
X116436600Y-96225810D01*
X116460690Y-96189757D01*
X117489859Y-95160588D01*
X117525911Y-95136499D01*
X117602000Y-95022623D01*
X117602001Y-97029627D01*
X117583000Y-97029627D01*
X117473984Y-97051312D01*
X117381564Y-97113064D01*
X117319812Y-97205484D01*
X117316684Y-97221211D01*
X117271043Y-97175570D01*
X117149681Y-97125300D01*
X116719350Y-97125300D01*
X116636800Y-97207850D01*
X116636800Y-98602700D01*
X117331650Y-98602700D01*
X117414200Y-98520150D01*
X117414200Y-98437742D01*
X117473984Y-98477688D01*
X117583000Y-98499373D01*
X118383000Y-98499373D01*
X118492016Y-98477688D01*
X118584436Y-98415936D01*
X118646188Y-98323516D01*
X118667873Y-98214500D01*
X118667873Y-98024850D01*
X119152800Y-98024850D01*
X119152800Y-98280181D01*
X119203070Y-98401543D01*
X119295957Y-98494430D01*
X119417319Y-98544700D01*
X119622650Y-98544700D01*
X119705200Y-98462150D01*
X119705200Y-97942300D01*
X119235350Y-97942300D01*
X119152800Y-98024850D01*
X118667873Y-98024850D01*
X118667873Y-97314500D01*
X118654809Y-97248819D01*
X119152800Y-97248819D01*
X119152800Y-97504150D01*
X119235350Y-97586700D01*
X119705200Y-97586700D01*
X119705200Y-97066850D01*
X119622650Y-96984300D01*
X119417319Y-96984300D01*
X119295957Y-97034570D01*
X119203070Y-97127457D01*
X119152800Y-97248819D01*
X118654809Y-97248819D01*
X118646188Y-97205484D01*
X118584436Y-97113064D01*
X118492016Y-97051312D01*
X118383000Y-97029627D01*
X118364000Y-97029627D01*
X118364000Y-94259140D01*
X118371464Y-94221617D01*
X118357455Y-94151190D01*
X118341894Y-94072959D01*
X118257686Y-93946932D01*
X118225872Y-93925675D01*
X117291690Y-92991493D01*
X117291690Y-90495016D01*
X117434250Y-90523373D01*
X117434250Y-90523373D01*
G37*
X117434250Y-90523373D02*
X117802216Y-90523373D01*
X118968600Y-91689757D01*
X118992690Y-91725810D01*
X119028742Y-91749899D01*
X119135520Y-91821246D01*
X119224661Y-91838977D01*
X119376151Y-91990467D01*
X119625859Y-92093900D01*
X119896141Y-92093900D01*
X120145849Y-91990467D01*
X120290016Y-91846300D01*
X121327127Y-91846300D01*
X121327127Y-92064500D01*
X121348812Y-92173516D01*
X121410564Y-92265936D01*
X121502984Y-92327688D01*
X121612000Y-92349373D01*
X123162000Y-92349373D01*
X123271016Y-92327688D01*
X123363436Y-92265936D01*
X123425188Y-92173516D01*
X123446873Y-92064500D01*
X123446873Y-90836285D01*
X123592260Y-90690898D01*
X123628310Y-90666810D01*
X123723746Y-90523980D01*
X123724600Y-90519685D01*
X123724601Y-105349591D01*
X123667825Y-105635026D01*
X123525912Y-105847412D01*
X123313526Y-105989325D01*
X123028096Y-106046100D01*
X121378114Y-106046100D01*
X121414373Y-106021873D01*
X121434211Y-105992183D01*
X121678590Y-105747804D01*
X121736566Y-105709066D01*
X121775304Y-105651090D01*
X122050364Y-105376030D01*
X122082250Y-105382373D01*
X122519750Y-105382373D01*
X122712478Y-105344037D01*
X122875865Y-105234865D01*
X122985037Y-105071478D01*
X123023373Y-104878750D01*
X123023373Y-104366250D01*
X122985037Y-104173522D01*
X122875865Y-104010135D01*
X122712478Y-103900963D01*
X122519750Y-103862627D01*
X122082250Y-103862627D01*
X121889522Y-103900963D01*
X121818400Y-103948485D01*
X121818400Y-103472213D01*
X121979022Y-103579537D01*
X122171750Y-103617873D01*
X122684250Y-103617873D01*
X122876978Y-103579537D01*
X123040365Y-103470365D01*
X123149537Y-103306978D01*
X123187873Y-103114250D01*
X123187873Y-102676750D01*
X123149537Y-102484022D01*
X123040365Y-102320635D01*
X122876978Y-102211463D01*
X122684250Y-102173127D01*
X122250378Y-102173127D01*
X122241074Y-102159202D01*
X122115047Y-102074994D01*
X122003912Y-102052888D01*
X121966388Y-102045424D01*
X121928864Y-102052888D01*
X119845562Y-102052888D01*
X119798047Y-102005373D01*
X121523000Y-102005373D01*
X121632016Y-101983688D01*
X121724436Y-101921936D01*
X121778912Y-101840405D01*
X121815635Y-101895365D01*
X121979022Y-102004537D01*
X122171750Y-102042873D01*
X122684250Y-102042873D01*
X122876978Y-102004537D01*
X123040365Y-101895365D01*
X123149537Y-101731978D01*
X123187873Y-101539250D01*
X123187873Y-101101750D01*
X123149537Y-100909022D01*
X123040365Y-100745635D01*
X122876978Y-100636463D01*
X122818800Y-100624891D01*
X122818800Y-96849373D01*
X123162000Y-96849373D01*
X123271016Y-96827688D01*
X123363436Y-96765936D01*
X123425188Y-96673516D01*
X123446873Y-96564500D01*
X123446873Y-95264500D01*
X123425188Y-95155484D01*
X123363436Y-95063064D01*
X123271016Y-95001312D01*
X123162000Y-94979627D01*
X121612000Y-94979627D01*
X121502984Y-95001312D01*
X121410564Y-95063064D01*
X121348812Y-95155484D01*
X121327127Y-95264500D01*
X121327127Y-96564500D01*
X121348812Y-96673516D01*
X121410564Y-96765936D01*
X121502984Y-96827688D01*
X121612000Y-96849373D01*
X121955200Y-96849373D01*
X121955200Y-97149191D01*
X121897365Y-97062635D01*
X121733978Y-96953463D01*
X121541250Y-96915127D01*
X121028750Y-96915127D01*
X120836022Y-96953463D01*
X120672635Y-97062635D01*
X120588337Y-97188795D01*
X120562930Y-97127457D01*
X120470043Y-97034570D01*
X120348681Y-96984300D01*
X120143350Y-96984300D01*
X120060800Y-97066850D01*
X120060800Y-97586700D01*
X120080800Y-97586700D01*
X120080800Y-97942300D01*
X120060800Y-97942300D01*
X120060800Y-98446527D01*
X119777027Y-98730300D01*
X119573724Y-98730300D01*
X119536200Y-98722836D01*
X119498676Y-98730300D01*
X119387541Y-98752406D01*
X119261514Y-98836614D01*
X119240256Y-98868429D01*
X119079058Y-99029627D01*
X118533000Y-99029627D01*
X118423984Y-99051312D01*
X118331564Y-99113064D01*
X118269812Y-99205484D01*
X118248127Y-99314500D01*
X118248127Y-100081776D01*
X118128681Y-100032300D01*
X117923350Y-100032300D01*
X117840800Y-100114850D01*
X117840800Y-100634700D01*
X118310650Y-100634700D01*
X118393200Y-100552150D01*
X118393200Y-100457119D01*
X118423984Y-100477688D01*
X118533000Y-100499373D01*
X118552001Y-100499373D01*
X118552000Y-101641618D01*
X118544536Y-101679142D01*
X118574106Y-101827800D01*
X118658314Y-101953828D01*
X118690129Y-101975086D01*
X118772143Y-102057100D01*
X117983000Y-102057100D01*
X117876078Y-102078368D01*
X117785434Y-102138934D01*
X117726766Y-102226737D01*
X117693175Y-102161960D01*
X117237767Y-101592700D01*
X117402650Y-101592700D01*
X117485200Y-101510150D01*
X117485200Y-100990300D01*
X117840800Y-100990300D01*
X117840800Y-101510150D01*
X117923350Y-101592700D01*
X118128681Y-101592700D01*
X118250043Y-101542430D01*
X118342930Y-101449543D01*
X118393200Y-101328181D01*
X118393200Y-101072850D01*
X118310650Y-100990300D01*
X117840800Y-100990300D01*
X117485200Y-100990300D01*
X117015350Y-100990300D01*
X116932800Y-101072850D01*
X116932800Y-101211491D01*
X116722115Y-100948135D01*
X116633764Y-100435700D01*
X116636802Y-100435700D01*
X116636802Y-100353152D01*
X116719350Y-100435700D01*
X116932800Y-100435700D01*
X116932800Y-100552150D01*
X117015350Y-100634700D01*
X117485200Y-100634700D01*
X117485200Y-100114850D01*
X117414200Y-100043850D01*
X117414200Y-99040850D01*
X117331650Y-98958300D01*
X116636800Y-98958300D01*
X116636800Y-98978300D01*
X116382488Y-98978300D01*
X116281200Y-98390828D01*
X116281200Y-97207850D01*
X116198650Y-97125300D01*
X115930580Y-97125300D01*
X115824000Y-97104100D01*
X114010341Y-97104100D01*
X113970310Y-97044190D01*
X113934257Y-97020100D01*
X113763530Y-96849373D01*
X115202000Y-96849373D01*
X115311016Y-96827688D01*
X115403436Y-96765936D01*
X115465188Y-96673516D01*
X115486873Y-96564500D01*
X115486873Y-96346300D01*
X116082768Y-96346300D01*
X116125290Y-96354758D01*
X116167812Y-96346300D01*
X116167816Y-96346300D01*
X116293770Y-96321246D01*
X116436600Y-96225810D01*
X116460690Y-96189757D01*
X117489859Y-95160588D01*
X117525911Y-95136499D01*
X117602000Y-95022623D01*
X117602001Y-97029627D01*
X117583000Y-97029627D01*
X117473984Y-97051312D01*
X117381564Y-97113064D01*
X117319812Y-97205484D01*
X117316684Y-97221211D01*
X117271043Y-97175570D01*
X117149681Y-97125300D01*
X116719350Y-97125300D01*
X116636800Y-97207850D01*
X116636800Y-98602700D01*
X117331650Y-98602700D01*
X117414200Y-98520150D01*
X117414200Y-98437742D01*
X117473984Y-98477688D01*
X117583000Y-98499373D01*
X118383000Y-98499373D01*
X118492016Y-98477688D01*
X118584436Y-98415936D01*
X118646188Y-98323516D01*
X118667873Y-98214500D01*
X118667873Y-98024850D01*
X119152800Y-98024850D01*
X119152800Y-98280181D01*
X119203070Y-98401543D01*
X119295957Y-98494430D01*
X119417319Y-98544700D01*
X119622650Y-98544700D01*
X119705200Y-98462150D01*
X119705200Y-97942300D01*
X119235350Y-97942300D01*
X119152800Y-98024850D01*
X118667873Y-98024850D01*
X118667873Y-97314500D01*
X118654809Y-97248819D01*
X119152800Y-97248819D01*
X119152800Y-97504150D01*
X119235350Y-97586700D01*
X119705200Y-97586700D01*
X119705200Y-97066850D01*
X119622650Y-96984300D01*
X119417319Y-96984300D01*
X119295957Y-97034570D01*
X119203070Y-97127457D01*
X119152800Y-97248819D01*
X118654809Y-97248819D01*
X118646188Y-97205484D01*
X118584436Y-97113064D01*
X118492016Y-97051312D01*
X118383000Y-97029627D01*
X118364000Y-97029627D01*
X118364000Y-94259140D01*
X118371464Y-94221617D01*
X118357455Y-94151190D01*
X118341894Y-94072959D01*
X118257686Y-93946932D01*
X118225872Y-93925675D01*
X117291690Y-92991493D01*
X117291690Y-90495016D01*
X117434250Y-90523373D01*
G36*
X121955200Y-98503227D02*
X121947043Y-98495070D01*
X121825681Y-98444800D01*
X121545350Y-98444800D01*
X121462800Y-98527350D01*
X121462800Y-99034700D01*
X121482800Y-99034700D01*
X121482800Y-99390300D01*
X121462800Y-99390300D01*
X121462800Y-99897650D01*
X121545350Y-99980200D01*
X121825681Y-99980200D01*
X121947043Y-99929930D01*
X121955201Y-99921772D01*
X121955201Y-100652380D01*
X121815635Y-100745635D01*
X121778912Y-100800595D01*
X121724436Y-100719064D01*
X121632016Y-100657312D01*
X121523000Y-100635627D01*
X119523000Y-100635627D01*
X119413984Y-100657312D01*
X119321564Y-100719064D01*
X119314000Y-100730385D01*
X119314000Y-100499373D01*
X119333000Y-100499373D01*
X119442016Y-100477688D01*
X119534436Y-100415936D01*
X119596188Y-100323516D01*
X119617873Y-100214500D01*
X119617873Y-99568442D01*
X119694015Y-99492300D01*
X119897318Y-99492300D01*
X119934842Y-99499764D01*
X119972366Y-99492300D01*
X120070148Y-99472850D01*
X120479800Y-99472850D01*
X120479800Y-99715681D01*
X120530070Y-99837043D01*
X120622957Y-99929930D01*
X120744319Y-99980200D01*
X121024650Y-99980200D01*
X121107200Y-99897650D01*
X121107200Y-99390300D01*
X120562350Y-99390300D01*
X120479800Y-99472850D01*
X120070148Y-99472850D01*
X120083501Y-99470194D01*
X120209528Y-99385986D01*
X120230786Y-99354171D01*
X120556304Y-99028654D01*
X120562350Y-99034700D01*
X121107200Y-99034700D01*
X121107200Y-98527350D01*
X121085615Y-98505765D01*
X121098074Y-98497440D01*
X121182282Y-98371413D01*
X121184577Y-98359873D01*
X121541250Y-98359873D01*
X121733978Y-98321537D01*
X121897365Y-98212365D01*
X121955200Y-98125808D01*
X121955200Y-98503227D01*
X121955200Y-98503227D01*
G37*
X121955200Y-98503227D02*
X121947043Y-98495070D01*
X121825681Y-98444800D01*
X121545350Y-98444800D01*
X121462800Y-98527350D01*
X121462800Y-99034700D01*
X121482800Y-99034700D01*
X121482800Y-99390300D01*
X121462800Y-99390300D01*
X121462800Y-99897650D01*
X121545350Y-99980200D01*
X121825681Y-99980200D01*
X121947043Y-99929930D01*
X121955201Y-99921772D01*
X121955201Y-100652380D01*
X121815635Y-100745635D01*
X121778912Y-100800595D01*
X121724436Y-100719064D01*
X121632016Y-100657312D01*
X121523000Y-100635627D01*
X119523000Y-100635627D01*
X119413984Y-100657312D01*
X119321564Y-100719064D01*
X119314000Y-100730385D01*
X119314000Y-100499373D01*
X119333000Y-100499373D01*
X119442016Y-100477688D01*
X119534436Y-100415936D01*
X119596188Y-100323516D01*
X119617873Y-100214500D01*
X119617873Y-99568442D01*
X119694015Y-99492300D01*
X119897318Y-99492300D01*
X119934842Y-99499764D01*
X119972366Y-99492300D01*
X120070148Y-99472850D01*
X120479800Y-99472850D01*
X120479800Y-99715681D01*
X120530070Y-99837043D01*
X120622957Y-99929930D01*
X120744319Y-99980200D01*
X121024650Y-99980200D01*
X121107200Y-99897650D01*
X121107200Y-99390300D01*
X120562350Y-99390300D01*
X120479800Y-99472850D01*
X120070148Y-99472850D01*
X120083501Y-99470194D01*
X120209528Y-99385986D01*
X120230786Y-99354171D01*
X120556304Y-99028654D01*
X120562350Y-99034700D01*
X121107200Y-99034700D01*
X121107200Y-98527350D01*
X121085615Y-98505765D01*
X121098074Y-98497440D01*
X121182282Y-98371413D01*
X121184577Y-98359873D01*
X121541250Y-98359873D01*
X121733978Y-98321537D01*
X121897365Y-98212365D01*
X121955200Y-98125808D01*
X121955200Y-98503227D01*
G36*
X114165007Y-81064783D02*
X114149851Y-81151280D01*
X114078681Y-81121800D01*
X113798350Y-81121800D01*
X113715800Y-81204350D01*
X113715800Y-81711700D01*
X114260650Y-81711700D01*
X114343200Y-81629150D01*
X114343200Y-81584700D01*
X116509650Y-81584700D01*
X116537000Y-81557350D01*
X116564350Y-81584700D01*
X117384200Y-81584700D01*
X117384200Y-81564700D01*
X117739800Y-81564700D01*
X117739800Y-81584700D01*
X118559650Y-81584700D01*
X118562000Y-81582350D01*
X118564350Y-81584700D01*
X119384200Y-81584700D01*
X119384200Y-81564700D01*
X119739800Y-81564700D01*
X119739800Y-81584700D01*
X120559650Y-81584700D01*
X120587000Y-81557350D01*
X120614350Y-81584700D01*
X122925944Y-81584700D01*
X123023779Y-81434516D01*
X122958993Y-81064783D01*
X122820514Y-80846900D01*
X123028096Y-80846900D01*
X123313526Y-80903675D01*
X123525912Y-81045588D01*
X123667825Y-81257974D01*
X123724600Y-81543404D01*
X123724600Y-86932314D01*
X123723746Y-86928020D01*
X123628310Y-86785190D01*
X123592261Y-86761103D01*
X123060873Y-86229716D01*
X123060873Y-85861750D01*
X123022537Y-85669022D01*
X122913365Y-85505635D01*
X122749978Y-85396463D01*
X122557250Y-85358127D01*
X122044750Y-85358127D01*
X121852022Y-85396463D01*
X121688635Y-85505635D01*
X121579463Y-85669022D01*
X121569962Y-85716785D01*
X121549436Y-85686064D01*
X121457016Y-85624312D01*
X121348000Y-85602627D01*
X120293800Y-85602627D01*
X120293800Y-85293492D01*
X120325188Y-85246516D01*
X120325425Y-85245327D01*
X120428024Y-85347926D01*
X120496683Y-85279267D01*
X120582156Y-85425439D01*
X120987183Y-85535769D01*
X121403600Y-85482702D01*
X121541844Y-85425439D01*
X121627318Y-85279266D01*
X121062000Y-84713947D01*
X121047858Y-84728090D01*
X120796410Y-84476642D01*
X120810553Y-84462500D01*
X121313447Y-84462500D01*
X121878766Y-85027818D01*
X122024939Y-84942344D01*
X122135269Y-84537317D01*
X122082202Y-84120900D01*
X122024939Y-83982656D01*
X121878766Y-83897182D01*
X121313447Y-84462500D01*
X120810553Y-84462500D01*
X120796410Y-84448358D01*
X121047858Y-84196910D01*
X121062000Y-84211053D01*
X121627318Y-83645734D01*
X121541844Y-83499561D01*
X121136817Y-83389231D01*
X120720400Y-83442298D01*
X120582156Y-83499561D01*
X120496683Y-83645733D01*
X120428024Y-83577074D01*
X120325425Y-83679673D01*
X120325188Y-83678484D01*
X120289601Y-83625224D01*
X120268746Y-83520378D01*
X120238323Y-83474847D01*
X120197399Y-83413599D01*
X120197398Y-83413598D01*
X120173310Y-83377548D01*
X120137260Y-83353460D01*
X119826499Y-83042700D01*
X120377681Y-83042700D01*
X120499043Y-82992430D01*
X120587000Y-82904473D01*
X120674957Y-82992430D01*
X120796319Y-83042700D01*
X121201650Y-83042700D01*
X121284200Y-82960150D01*
X121284200Y-82647755D01*
X121366352Y-82777013D01*
X121639800Y-82928872D01*
X121639800Y-82960150D01*
X121722350Y-83042700D01*
X122127681Y-83042700D01*
X122249043Y-82992430D01*
X122285494Y-82955979D01*
X122380443Y-82986494D01*
X122757648Y-82777013D01*
X122958993Y-82460217D01*
X123023779Y-82090484D01*
X122925944Y-81940300D01*
X120614350Y-81940300D01*
X120587000Y-81967650D01*
X120559650Y-81940300D01*
X119739800Y-81940300D01*
X119739800Y-81960300D01*
X119384200Y-81960300D01*
X119384200Y-81940300D01*
X118564350Y-81940300D01*
X118562000Y-81942650D01*
X118559650Y-81940300D01*
X117739800Y-81940300D01*
X117739800Y-81960300D01*
X117384200Y-81960300D01*
X117384200Y-81940300D01*
X116564350Y-81940300D01*
X116537000Y-81967650D01*
X116509650Y-81940300D01*
X114198056Y-81940300D01*
X114115324Y-82067300D01*
X113715800Y-82067300D01*
X113715800Y-82574650D01*
X113798350Y-82657200D01*
X114078681Y-82657200D01*
X114200043Y-82606930D01*
X114235633Y-82571340D01*
X114307174Y-82683903D01*
X114234140Y-82732702D01*
X114234139Y-82732703D01*
X114198089Y-82756791D01*
X114174001Y-82792841D01*
X114106510Y-82860332D01*
X113986978Y-82780463D01*
X113794250Y-82742127D01*
X113281750Y-82742127D01*
X113089022Y-82780463D01*
X112925635Y-82889635D01*
X112816463Y-83053022D01*
X112778127Y-83245750D01*
X112778127Y-83683250D01*
X112816463Y-83875978D01*
X112925635Y-84039365D01*
X113089022Y-84148537D01*
X113281750Y-84186873D01*
X113464101Y-84186873D01*
X113383957Y-84220070D01*
X113291070Y-84312957D01*
X113240800Y-84434319D01*
X113240800Y-84677150D01*
X113323350Y-84759700D01*
X113868200Y-84759700D01*
X113868200Y-84252350D01*
X114223800Y-84252350D01*
X114223800Y-84759700D01*
X114768650Y-84759700D01*
X114851200Y-84677150D01*
X114851200Y-84434319D01*
X114831883Y-84387683D01*
X114988731Y-84387683D01*
X115041798Y-84804100D01*
X115099061Y-84942344D01*
X115245234Y-85027818D01*
X115810553Y-84462500D01*
X115245234Y-83897182D01*
X115099061Y-83982656D01*
X114988731Y-84387683D01*
X114831883Y-84387683D01*
X114800930Y-84312957D01*
X114708043Y-84220070D01*
X114586681Y-84169800D01*
X114306350Y-84169800D01*
X114223800Y-84252350D01*
X113868200Y-84252350D01*
X113801317Y-84185467D01*
X113986978Y-84148537D01*
X114150365Y-84039365D01*
X114259537Y-83875978D01*
X114259613Y-83875596D01*
X114281480Y-83871246D01*
X114424310Y-83775810D01*
X114448399Y-83739758D01*
X114688257Y-83499901D01*
X115581957Y-83499901D01*
X115496682Y-83645734D01*
X116062000Y-84211053D01*
X116076142Y-84196910D01*
X116327590Y-84448358D01*
X116313447Y-84462500D01*
X116327590Y-84476642D01*
X116076142Y-84728090D01*
X116062000Y-84713947D01*
X115496682Y-85279266D01*
X115582156Y-85425439D01*
X115987183Y-85535769D01*
X116403600Y-85482702D01*
X116541844Y-85425439D01*
X116627317Y-85279267D01*
X116695976Y-85347926D01*
X116763702Y-85280200D01*
X116782070Y-85324543D01*
X116874957Y-85417430D01*
X116996319Y-85467700D01*
X117079450Y-85467700D01*
X117162000Y-85385150D01*
X117162000Y-84640300D01*
X117107216Y-84640300D01*
X117135269Y-84537317D01*
X117103076Y-84284700D01*
X117162000Y-84284700D01*
X117162000Y-84264700D01*
X117362000Y-84264700D01*
X117362000Y-84284700D01*
X117427127Y-84284700D01*
X117427127Y-84640300D01*
X117362000Y-84640300D01*
X117362000Y-85385150D01*
X117444550Y-85467700D01*
X117527681Y-85467700D01*
X117649043Y-85417430D01*
X117655365Y-85411108D01*
X117712000Y-85422373D01*
X118112000Y-85422373D01*
X118221016Y-85400688D01*
X118237000Y-85390008D01*
X118252984Y-85400688D01*
X118362000Y-85422373D01*
X118762000Y-85422373D01*
X118871016Y-85400688D01*
X118887000Y-85390008D01*
X118902984Y-85400688D01*
X119012000Y-85422373D01*
X119412000Y-85422373D01*
X119430200Y-85418753D01*
X119430200Y-85624443D01*
X119357104Y-85697539D01*
X119349436Y-85686064D01*
X119257016Y-85624312D01*
X119148000Y-85602627D01*
X118088000Y-85602627D01*
X117978984Y-85624312D01*
X117886564Y-85686064D01*
X117824812Y-85778484D01*
X117803127Y-85887500D01*
X117803127Y-86499500D01*
X117609113Y-86499500D01*
X117596418Y-86480500D01*
X117647188Y-86404516D01*
X117668873Y-86295500D01*
X117668873Y-85865500D01*
X117647188Y-85756484D01*
X117585436Y-85664064D01*
X117493016Y-85602312D01*
X117384000Y-85580627D01*
X116624000Y-85580627D01*
X116514984Y-85602312D01*
X116422564Y-85664064D01*
X116360812Y-85756484D01*
X116339127Y-85865500D01*
X116339127Y-86295500D01*
X116360812Y-86404516D01*
X116411582Y-86480500D01*
X116360812Y-86556484D01*
X116339127Y-86665500D01*
X116339127Y-87095500D01*
X116360812Y-87204516D01*
X116411582Y-87280500D01*
X116398214Y-87300507D01*
X116292141Y-87321606D01*
X116166114Y-87405814D01*
X116144854Y-87437631D01*
X116143582Y-87438903D01*
X116127188Y-87356484D01*
X116076418Y-87280500D01*
X116127188Y-87204516D01*
X116148873Y-87095500D01*
X116148873Y-86665500D01*
X116127188Y-86556484D01*
X116076418Y-86480500D01*
X116127188Y-86404516D01*
X116148873Y-86295500D01*
X116148873Y-85865500D01*
X116127188Y-85756484D01*
X116065436Y-85664064D01*
X115973016Y-85602312D01*
X115864000Y-85580627D01*
X115104000Y-85580627D01*
X114994984Y-85602312D01*
X114902564Y-85664064D01*
X114840812Y-85756484D01*
X114819127Y-85865500D01*
X114819127Y-86295500D01*
X114840812Y-86404516D01*
X114870334Y-86448700D01*
X114805873Y-86448700D01*
X114805873Y-86293750D01*
X114767537Y-86101022D01*
X114658365Y-85937635D01*
X114494978Y-85828463D01*
X114302250Y-85790127D01*
X113789750Y-85790127D01*
X113597022Y-85828463D01*
X113433635Y-85937635D01*
X113324463Y-86101022D01*
X113286127Y-86293750D01*
X113286127Y-86731250D01*
X113324463Y-86923978D01*
X113433635Y-87087365D01*
X113597022Y-87196537D01*
X113789750Y-87234873D01*
X114167138Y-87234873D01*
X114209423Y-87263127D01*
X113789750Y-87263127D01*
X113597022Y-87301463D01*
X113433635Y-87410635D01*
X113324463Y-87574022D01*
X113286127Y-87766750D01*
X113286127Y-88204250D01*
X113324463Y-88396978D01*
X113433635Y-88560365D01*
X113597022Y-88669537D01*
X113789750Y-88707873D01*
X114302250Y-88707873D01*
X114494978Y-88669537D01*
X114658365Y-88560365D01*
X114767537Y-88396978D01*
X114805873Y-88204250D01*
X114805873Y-88112300D01*
X114870334Y-88112300D01*
X114840812Y-88156484D01*
X114819127Y-88265500D01*
X114819127Y-88695500D01*
X114840812Y-88804516D01*
X114902564Y-88896936D01*
X114962201Y-88936783D01*
X114962201Y-89036974D01*
X114953742Y-89079500D01*
X114987254Y-89247979D01*
X115058601Y-89354758D01*
X115058603Y-89354760D01*
X115082691Y-89390810D01*
X115118740Y-89414897D01*
X115355627Y-89651784D01*
X115355627Y-90019750D01*
X115393963Y-90212478D01*
X115503135Y-90375865D01*
X115666522Y-90485037D01*
X115859250Y-90523373D01*
X116296750Y-90523373D01*
X116489478Y-90485037D01*
X116529690Y-90458168D01*
X116529691Y-92804243D01*
X115870290Y-92144843D01*
X115846201Y-92108791D01*
X115703371Y-92013355D01*
X115577417Y-91988301D01*
X115577413Y-91988301D01*
X115534891Y-91979843D01*
X115492369Y-91988301D01*
X115486873Y-91988301D01*
X115486873Y-90764500D01*
X115465188Y-90655484D01*
X115403436Y-90563064D01*
X115311016Y-90501312D01*
X115202000Y-90479627D01*
X113737530Y-90479627D01*
X113919787Y-90297371D01*
X113919789Y-90297368D01*
X113934284Y-90282873D01*
X114302250Y-90282873D01*
X114494978Y-90244537D01*
X114658365Y-90135365D01*
X114767537Y-89971978D01*
X114805873Y-89779250D01*
X114805873Y-89341750D01*
X114767537Y-89149022D01*
X114658365Y-88985635D01*
X114494978Y-88876463D01*
X114302250Y-88838127D01*
X113789750Y-88838127D01*
X113597022Y-88876463D01*
X113433635Y-88985635D01*
X113324463Y-89149022D01*
X113286127Y-89341750D01*
X113286127Y-89709715D01*
X113021139Y-89974704D01*
X112985090Y-89998791D01*
X112961002Y-90034841D01*
X112961000Y-90034843D01*
X112889653Y-90141622D01*
X112856141Y-90310101D01*
X112864600Y-90352628D01*
X112864599Y-92306459D01*
X112856141Y-92348981D01*
X112864599Y-92391503D01*
X112864599Y-92391506D01*
X112889653Y-92517460D01*
X112985089Y-92660291D01*
X113021142Y-92684381D01*
X113032119Y-92695358D01*
X113056209Y-92731411D01*
X113199039Y-92826847D01*
X113324993Y-92851901D01*
X113324997Y-92851901D01*
X113367519Y-92860359D01*
X113410041Y-92851901D01*
X115356034Y-92851901D01*
X116297960Y-93793828D01*
X116074151Y-93886533D01*
X115929984Y-94030700D01*
X113856438Y-94030700D01*
X113813917Y-94022242D01*
X113771396Y-94030700D01*
X113771392Y-94030700D01*
X113645438Y-94055754D01*
X113502608Y-94151190D01*
X113478518Y-94187243D01*
X113021140Y-94644621D01*
X112985090Y-94668709D01*
X112961002Y-94704759D01*
X112961000Y-94704761D01*
X112889653Y-94811540D01*
X112856141Y-94980019D01*
X112864600Y-95022546D01*
X112864599Y-96950377D01*
X112856141Y-96992899D01*
X112864599Y-97035421D01*
X112864599Y-97035424D01*
X112887252Y-97149306D01*
X112832434Y-97185934D01*
X112771868Y-97276578D01*
X112750600Y-97383500D01*
X112750600Y-97698095D01*
X112749400Y-97704128D01*
X112749400Y-85197850D01*
X113240800Y-85197850D01*
X113240800Y-85440681D01*
X113291070Y-85562043D01*
X113383957Y-85654930D01*
X113505319Y-85705200D01*
X113785650Y-85705200D01*
X113868200Y-85622650D01*
X113868200Y-85115300D01*
X114223800Y-85115300D01*
X114223800Y-85622650D01*
X114306350Y-85705200D01*
X114586681Y-85705200D01*
X114708043Y-85654930D01*
X114800930Y-85562043D01*
X114851200Y-85440681D01*
X114851200Y-85197850D01*
X114768650Y-85115300D01*
X114223800Y-85115300D01*
X113868200Y-85115300D01*
X113323350Y-85115300D01*
X113240800Y-85197850D01*
X112749400Y-85197850D01*
X112749400Y-82432757D01*
X112783070Y-82514043D01*
X112875957Y-82606930D01*
X112997319Y-82657200D01*
X113277650Y-82657200D01*
X113360200Y-82574650D01*
X113360200Y-82067300D01*
X113340200Y-82067300D01*
X113340200Y-81711700D01*
X113360200Y-81711700D01*
X113360200Y-81204350D01*
X113277650Y-81121800D01*
X112997319Y-81121800D01*
X112875957Y-81172070D01*
X112838641Y-81209386D01*
X112948088Y-81045588D01*
X113160474Y-80903675D01*
X113445904Y-80846900D01*
X114303486Y-80846900D01*
X114165007Y-81064783D01*
X114165007Y-81064783D01*
G37*
X114165007Y-81064783D02*
X114149851Y-81151280D01*
X114078681Y-81121800D01*
X113798350Y-81121800D01*
X113715800Y-81204350D01*
X113715800Y-81711700D01*
X114260650Y-81711700D01*
X114343200Y-81629150D01*
X114343200Y-81584700D01*
X116509650Y-81584700D01*
X116537000Y-81557350D01*
X116564350Y-81584700D01*
X117384200Y-81584700D01*
X117384200Y-81564700D01*
X117739800Y-81564700D01*
X117739800Y-81584700D01*
X118559650Y-81584700D01*
X118562000Y-81582350D01*
X118564350Y-81584700D01*
X119384200Y-81584700D01*
X119384200Y-81564700D01*
X119739800Y-81564700D01*
X119739800Y-81584700D01*
X120559650Y-81584700D01*
X120587000Y-81557350D01*
X120614350Y-81584700D01*
X122925944Y-81584700D01*
X123023779Y-81434516D01*
X122958993Y-81064783D01*
X122820514Y-80846900D01*
X123028096Y-80846900D01*
X123313526Y-80903675D01*
X123525912Y-81045588D01*
X123667825Y-81257974D01*
X123724600Y-81543404D01*
X123724600Y-86932314D01*
X123723746Y-86928020D01*
X123628310Y-86785190D01*
X123592261Y-86761103D01*
X123060873Y-86229716D01*
X123060873Y-85861750D01*
X123022537Y-85669022D01*
X122913365Y-85505635D01*
X122749978Y-85396463D01*
X122557250Y-85358127D01*
X122044750Y-85358127D01*
X121852022Y-85396463D01*
X121688635Y-85505635D01*
X121579463Y-85669022D01*
X121569962Y-85716785D01*
X121549436Y-85686064D01*
X121457016Y-85624312D01*
X121348000Y-85602627D01*
X120293800Y-85602627D01*
X120293800Y-85293492D01*
X120325188Y-85246516D01*
X120325425Y-85245327D01*
X120428024Y-85347926D01*
X120496683Y-85279267D01*
X120582156Y-85425439D01*
X120987183Y-85535769D01*
X121403600Y-85482702D01*
X121541844Y-85425439D01*
X121627318Y-85279266D01*
X121062000Y-84713947D01*
X121047858Y-84728090D01*
X120796410Y-84476642D01*
X120810553Y-84462500D01*
X121313447Y-84462500D01*
X121878766Y-85027818D01*
X122024939Y-84942344D01*
X122135269Y-84537317D01*
X122082202Y-84120900D01*
X122024939Y-83982656D01*
X121878766Y-83897182D01*
X121313447Y-84462500D01*
X120810553Y-84462500D01*
X120796410Y-84448358D01*
X121047858Y-84196910D01*
X121062000Y-84211053D01*
X121627318Y-83645734D01*
X121541844Y-83499561D01*
X121136817Y-83389231D01*
X120720400Y-83442298D01*
X120582156Y-83499561D01*
X120496683Y-83645733D01*
X120428024Y-83577074D01*
X120325425Y-83679673D01*
X120325188Y-83678484D01*
X120289601Y-83625224D01*
X120268746Y-83520378D01*
X120238323Y-83474847D01*
X120197399Y-83413599D01*
X120197398Y-83413598D01*
X120173310Y-83377548D01*
X120137260Y-83353460D01*
X119826499Y-83042700D01*
X120377681Y-83042700D01*
X120499043Y-82992430D01*
X120587000Y-82904473D01*
X120674957Y-82992430D01*
X120796319Y-83042700D01*
X121201650Y-83042700D01*
X121284200Y-82960150D01*
X121284200Y-82647755D01*
X121366352Y-82777013D01*
X121639800Y-82928872D01*
X121639800Y-82960150D01*
X121722350Y-83042700D01*
X122127681Y-83042700D01*
X122249043Y-82992430D01*
X122285494Y-82955979D01*
X122380443Y-82986494D01*
X122757648Y-82777013D01*
X122958993Y-82460217D01*
X123023779Y-82090484D01*
X122925944Y-81940300D01*
X120614350Y-81940300D01*
X120587000Y-81967650D01*
X120559650Y-81940300D01*
X119739800Y-81940300D01*
X119739800Y-81960300D01*
X119384200Y-81960300D01*
X119384200Y-81940300D01*
X118564350Y-81940300D01*
X118562000Y-81942650D01*
X118559650Y-81940300D01*
X117739800Y-81940300D01*
X117739800Y-81960300D01*
X117384200Y-81960300D01*
X117384200Y-81940300D01*
X116564350Y-81940300D01*
X116537000Y-81967650D01*
X116509650Y-81940300D01*
X114198056Y-81940300D01*
X114115324Y-82067300D01*
X113715800Y-82067300D01*
X113715800Y-82574650D01*
X113798350Y-82657200D01*
X114078681Y-82657200D01*
X114200043Y-82606930D01*
X114235633Y-82571340D01*
X114307174Y-82683903D01*
X114234140Y-82732702D01*
X114234139Y-82732703D01*
X114198089Y-82756791D01*
X114174001Y-82792841D01*
X114106510Y-82860332D01*
X113986978Y-82780463D01*
X113794250Y-82742127D01*
X113281750Y-82742127D01*
X113089022Y-82780463D01*
X112925635Y-82889635D01*
X112816463Y-83053022D01*
X112778127Y-83245750D01*
X112778127Y-83683250D01*
X112816463Y-83875978D01*
X112925635Y-84039365D01*
X113089022Y-84148537D01*
X113281750Y-84186873D01*
X113464101Y-84186873D01*
X113383957Y-84220070D01*
X113291070Y-84312957D01*
X113240800Y-84434319D01*
X113240800Y-84677150D01*
X113323350Y-84759700D01*
X113868200Y-84759700D01*
X113868200Y-84252350D01*
X114223800Y-84252350D01*
X114223800Y-84759700D01*
X114768650Y-84759700D01*
X114851200Y-84677150D01*
X114851200Y-84434319D01*
X114831883Y-84387683D01*
X114988731Y-84387683D01*
X115041798Y-84804100D01*
X115099061Y-84942344D01*
X115245234Y-85027818D01*
X115810553Y-84462500D01*
X115245234Y-83897182D01*
X115099061Y-83982656D01*
X114988731Y-84387683D01*
X114831883Y-84387683D01*
X114800930Y-84312957D01*
X114708043Y-84220070D01*
X114586681Y-84169800D01*
X114306350Y-84169800D01*
X114223800Y-84252350D01*
X113868200Y-84252350D01*
X113801317Y-84185467D01*
X113986978Y-84148537D01*
X114150365Y-84039365D01*
X114259537Y-83875978D01*
X114259613Y-83875596D01*
X114281480Y-83871246D01*
X114424310Y-83775810D01*
X114448399Y-83739758D01*
X114688257Y-83499901D01*
X115581957Y-83499901D01*
X115496682Y-83645734D01*
X116062000Y-84211053D01*
X116076142Y-84196910D01*
X116327590Y-84448358D01*
X116313447Y-84462500D01*
X116327590Y-84476642D01*
X116076142Y-84728090D01*
X116062000Y-84713947D01*
X115496682Y-85279266D01*
X115582156Y-85425439D01*
X115987183Y-85535769D01*
X116403600Y-85482702D01*
X116541844Y-85425439D01*
X116627317Y-85279267D01*
X116695976Y-85347926D01*
X116763702Y-85280200D01*
X116782070Y-85324543D01*
X116874957Y-85417430D01*
X116996319Y-85467700D01*
X117079450Y-85467700D01*
X117162000Y-85385150D01*
X117162000Y-84640300D01*
X117107216Y-84640300D01*
X117135269Y-84537317D01*
X117103076Y-84284700D01*
X117162000Y-84284700D01*
X117162000Y-84264700D01*
X117362000Y-84264700D01*
X117362000Y-84284700D01*
X117427127Y-84284700D01*
X117427127Y-84640300D01*
X117362000Y-84640300D01*
X117362000Y-85385150D01*
X117444550Y-85467700D01*
X117527681Y-85467700D01*
X117649043Y-85417430D01*
X117655365Y-85411108D01*
X117712000Y-85422373D01*
X118112000Y-85422373D01*
X118221016Y-85400688D01*
X118237000Y-85390008D01*
X118252984Y-85400688D01*
X118362000Y-85422373D01*
X118762000Y-85422373D01*
X118871016Y-85400688D01*
X118887000Y-85390008D01*
X118902984Y-85400688D01*
X119012000Y-85422373D01*
X119412000Y-85422373D01*
X119430200Y-85418753D01*
X119430200Y-85624443D01*
X119357104Y-85697539D01*
X119349436Y-85686064D01*
X119257016Y-85624312D01*
X119148000Y-85602627D01*
X118088000Y-85602627D01*
X117978984Y-85624312D01*
X117886564Y-85686064D01*
X117824812Y-85778484D01*
X117803127Y-85887500D01*
X117803127Y-86499500D01*
X117609113Y-86499500D01*
X117596418Y-86480500D01*
X117647188Y-86404516D01*
X117668873Y-86295500D01*
X117668873Y-85865500D01*
X117647188Y-85756484D01*
X117585436Y-85664064D01*
X117493016Y-85602312D01*
X117384000Y-85580627D01*
X116624000Y-85580627D01*
X116514984Y-85602312D01*
X116422564Y-85664064D01*
X116360812Y-85756484D01*
X116339127Y-85865500D01*
X116339127Y-86295500D01*
X116360812Y-86404516D01*
X116411582Y-86480500D01*
X116360812Y-86556484D01*
X116339127Y-86665500D01*
X116339127Y-87095500D01*
X116360812Y-87204516D01*
X116411582Y-87280500D01*
X116398214Y-87300507D01*
X116292141Y-87321606D01*
X116166114Y-87405814D01*
X116144854Y-87437631D01*
X116143582Y-87438903D01*
X116127188Y-87356484D01*
X116076418Y-87280500D01*
X116127188Y-87204516D01*
X116148873Y-87095500D01*
X116148873Y-86665500D01*
X116127188Y-86556484D01*
X116076418Y-86480500D01*
X116127188Y-86404516D01*
X116148873Y-86295500D01*
X116148873Y-85865500D01*
X116127188Y-85756484D01*
X116065436Y-85664064D01*
X115973016Y-85602312D01*
X115864000Y-85580627D01*
X115104000Y-85580627D01*
X114994984Y-85602312D01*
X114902564Y-85664064D01*
X114840812Y-85756484D01*
X114819127Y-85865500D01*
X114819127Y-86295500D01*
X114840812Y-86404516D01*
X114870334Y-86448700D01*
X114805873Y-86448700D01*
X114805873Y-86293750D01*
X114767537Y-86101022D01*
X114658365Y-85937635D01*
X114494978Y-85828463D01*
X114302250Y-85790127D01*
X113789750Y-85790127D01*
X113597022Y-85828463D01*
X113433635Y-85937635D01*
X113324463Y-86101022D01*
X113286127Y-86293750D01*
X113286127Y-86731250D01*
X113324463Y-86923978D01*
X113433635Y-87087365D01*
X113597022Y-87196537D01*
X113789750Y-87234873D01*
X114167138Y-87234873D01*
X114209423Y-87263127D01*
X113789750Y-87263127D01*
X113597022Y-87301463D01*
X113433635Y-87410635D01*
X113324463Y-87574022D01*
X113286127Y-87766750D01*
X113286127Y-88204250D01*
X113324463Y-88396978D01*
X113433635Y-88560365D01*
X113597022Y-88669537D01*
X113789750Y-88707873D01*
X114302250Y-88707873D01*
X114494978Y-88669537D01*
X114658365Y-88560365D01*
X114767537Y-88396978D01*
X114805873Y-88204250D01*
X114805873Y-88112300D01*
X114870334Y-88112300D01*
X114840812Y-88156484D01*
X114819127Y-88265500D01*
X114819127Y-88695500D01*
X114840812Y-88804516D01*
X114902564Y-88896936D01*
X114962201Y-88936783D01*
X114962201Y-89036974D01*
X114953742Y-89079500D01*
X114987254Y-89247979D01*
X115058601Y-89354758D01*
X115058603Y-89354760D01*
X115082691Y-89390810D01*
X115118740Y-89414897D01*
X115355627Y-89651784D01*
X115355627Y-90019750D01*
X115393963Y-90212478D01*
X115503135Y-90375865D01*
X115666522Y-90485037D01*
X115859250Y-90523373D01*
X116296750Y-90523373D01*
X116489478Y-90485037D01*
X116529690Y-90458168D01*
X116529691Y-92804243D01*
X115870290Y-92144843D01*
X115846201Y-92108791D01*
X115703371Y-92013355D01*
X115577417Y-91988301D01*
X115577413Y-91988301D01*
X115534891Y-91979843D01*
X115492369Y-91988301D01*
X115486873Y-91988301D01*
X115486873Y-90764500D01*
X115465188Y-90655484D01*
X115403436Y-90563064D01*
X115311016Y-90501312D01*
X115202000Y-90479627D01*
X113737530Y-90479627D01*
X113919787Y-90297371D01*
X113919789Y-90297368D01*
X113934284Y-90282873D01*
X114302250Y-90282873D01*
X114494978Y-90244537D01*
X114658365Y-90135365D01*
X114767537Y-89971978D01*
X114805873Y-89779250D01*
X114805873Y-89341750D01*
X114767537Y-89149022D01*
X114658365Y-88985635D01*
X114494978Y-88876463D01*
X114302250Y-88838127D01*
X113789750Y-88838127D01*
X113597022Y-88876463D01*
X113433635Y-88985635D01*
X113324463Y-89149022D01*
X113286127Y-89341750D01*
X113286127Y-89709715D01*
X113021139Y-89974704D01*
X112985090Y-89998791D01*
X112961002Y-90034841D01*
X112961000Y-90034843D01*
X112889653Y-90141622D01*
X112856141Y-90310101D01*
X112864600Y-90352628D01*
X112864599Y-92306459D01*
X112856141Y-92348981D01*
X112864599Y-92391503D01*
X112864599Y-92391506D01*
X112889653Y-92517460D01*
X112985089Y-92660291D01*
X113021142Y-92684381D01*
X113032119Y-92695358D01*
X113056209Y-92731411D01*
X113199039Y-92826847D01*
X113324993Y-92851901D01*
X113324997Y-92851901D01*
X113367519Y-92860359D01*
X113410041Y-92851901D01*
X115356034Y-92851901D01*
X116297960Y-93793828D01*
X116074151Y-93886533D01*
X115929984Y-94030700D01*
X113856438Y-94030700D01*
X113813917Y-94022242D01*
X113771396Y-94030700D01*
X113771392Y-94030700D01*
X113645438Y-94055754D01*
X113502608Y-94151190D01*
X113478518Y-94187243D01*
X113021140Y-94644621D01*
X112985090Y-94668709D01*
X112961002Y-94704759D01*
X112961000Y-94704761D01*
X112889653Y-94811540D01*
X112856141Y-94980019D01*
X112864600Y-95022546D01*
X112864599Y-96950377D01*
X112856141Y-96992899D01*
X112864599Y-97035421D01*
X112864599Y-97035424D01*
X112887252Y-97149306D01*
X112832434Y-97185934D01*
X112771868Y-97276578D01*
X112750600Y-97383500D01*
X112750600Y-97698095D01*
X112749400Y-97704128D01*
X112749400Y-85197850D01*
X113240800Y-85197850D01*
X113240800Y-85440681D01*
X113291070Y-85562043D01*
X113383957Y-85654930D01*
X113505319Y-85705200D01*
X113785650Y-85705200D01*
X113868200Y-85622650D01*
X113868200Y-85115300D01*
X114223800Y-85115300D01*
X114223800Y-85622650D01*
X114306350Y-85705200D01*
X114586681Y-85705200D01*
X114708043Y-85654930D01*
X114800930Y-85562043D01*
X114851200Y-85440681D01*
X114851200Y-85197850D01*
X114768650Y-85115300D01*
X114223800Y-85115300D01*
X113868200Y-85115300D01*
X113323350Y-85115300D01*
X113240800Y-85197850D01*
X112749400Y-85197850D01*
X112749400Y-82432757D01*
X112783070Y-82514043D01*
X112875957Y-82606930D01*
X112997319Y-82657200D01*
X113277650Y-82657200D01*
X113360200Y-82574650D01*
X113360200Y-82067300D01*
X113340200Y-82067300D01*
X113340200Y-81711700D01*
X113360200Y-81711700D01*
X113360200Y-81204350D01*
X113277650Y-81121800D01*
X112997319Y-81121800D01*
X112875957Y-81172070D01*
X112838641Y-81209386D01*
X112948088Y-81045588D01*
X113160474Y-80903675D01*
X113445904Y-80846900D01*
X114303486Y-80846900D01*
X114165007Y-81064783D01*
G36*
X121688635Y-86655365D02*
X121852022Y-86764537D01*
X122044750Y-86802873D01*
X122412716Y-86802873D01*
X122529496Y-86919654D01*
X122478800Y-86970350D01*
X122478800Y-87477700D01*
X122498800Y-87477700D01*
X122498800Y-87833300D01*
X122478800Y-87833300D01*
X122478800Y-88340650D01*
X122561350Y-88423200D01*
X122841681Y-88423200D01*
X122885200Y-88405174D01*
X122885201Y-90176641D01*
X122582215Y-90479627D01*
X121612000Y-90479627D01*
X121502984Y-90501312D01*
X121410564Y-90563064D01*
X121348812Y-90655484D01*
X121327127Y-90764500D01*
X121327127Y-90982700D01*
X120290016Y-90982700D01*
X120145849Y-90838533D01*
X119896141Y-90735100D01*
X119625859Y-90735100D01*
X119376151Y-90838533D01*
X119357421Y-90857264D01*
X118375373Y-89875216D01*
X118375373Y-89507250D01*
X118337037Y-89314522D01*
X118227865Y-89151135D01*
X118064478Y-89041963D01*
X117871750Y-89003627D01*
X117434250Y-89003627D01*
X117241522Y-89041963D01*
X117148938Y-89103825D01*
X117025486Y-88980373D01*
X117384000Y-88980373D01*
X117493016Y-88958688D01*
X117585436Y-88896936D01*
X117647188Y-88804516D01*
X117654105Y-88769741D01*
X117675888Y-88755186D01*
X117697146Y-88723371D01*
X117844514Y-88576003D01*
X117886564Y-88638936D01*
X117978984Y-88700688D01*
X118088000Y-88722373D01*
X118617216Y-88722373D01*
X119546627Y-89651784D01*
X119546627Y-89892750D01*
X119584963Y-90085478D01*
X119694135Y-90248865D01*
X119857522Y-90358037D01*
X120050250Y-90396373D01*
X120487750Y-90396373D01*
X120680478Y-90358037D01*
X120843865Y-90248865D01*
X120953037Y-90085478D01*
X120990557Y-89896850D01*
X121076300Y-89896850D01*
X121076300Y-90177181D01*
X121126570Y-90298543D01*
X121219457Y-90391430D01*
X121340819Y-90441700D01*
X121583650Y-90441700D01*
X121666200Y-90359150D01*
X121666200Y-89814300D01*
X122021800Y-89814300D01*
X122021800Y-90359150D01*
X122104350Y-90441700D01*
X122347181Y-90441700D01*
X122468543Y-90391430D01*
X122561430Y-90298543D01*
X122611700Y-90177181D01*
X122611700Y-89896850D01*
X122529150Y-89814300D01*
X122021800Y-89814300D01*
X121666200Y-89814300D01*
X121158850Y-89814300D01*
X121076300Y-89896850D01*
X120990557Y-89896850D01*
X120991373Y-89892750D01*
X120991373Y-89380250D01*
X120953037Y-89187522D01*
X120891763Y-89095819D01*
X121076300Y-89095819D01*
X121076300Y-89376150D01*
X121158850Y-89458700D01*
X121666200Y-89458700D01*
X121666200Y-88913850D01*
X122021800Y-88913850D01*
X122021800Y-89458700D01*
X122529150Y-89458700D01*
X122611700Y-89376150D01*
X122611700Y-89095819D01*
X122561430Y-88974457D01*
X122468543Y-88881570D01*
X122347181Y-88831300D01*
X122104350Y-88831300D01*
X122021800Y-88913850D01*
X121666200Y-88913850D01*
X121583650Y-88831300D01*
X121340819Y-88831300D01*
X121219457Y-88881570D01*
X121126570Y-88974457D01*
X121076300Y-89095819D01*
X120891763Y-89095819D01*
X120843865Y-89024135D01*
X120680478Y-88914963D01*
X120487750Y-88876627D01*
X120050250Y-88876627D01*
X120002318Y-88886161D01*
X119432873Y-88316716D01*
X119432873Y-87787500D01*
X119416070Y-87703028D01*
X120003127Y-88290085D01*
X120003127Y-88437500D01*
X120024812Y-88546516D01*
X120086564Y-88638936D01*
X120178984Y-88700688D01*
X120288000Y-88722373D01*
X121348000Y-88722373D01*
X121457016Y-88700688D01*
X121549436Y-88638936D01*
X121611188Y-88546516D01*
X121632873Y-88437500D01*
X121632873Y-88366846D01*
X121638957Y-88372930D01*
X121760319Y-88423200D01*
X122040650Y-88423200D01*
X122123200Y-88340650D01*
X122123200Y-87833300D01*
X122103200Y-87833300D01*
X122103200Y-87477700D01*
X122123200Y-87477700D01*
X122123200Y-86970350D01*
X122040650Y-86887800D01*
X121760319Y-86887800D01*
X121670749Y-86924901D01*
X121678200Y-86917450D01*
X121678200Y-86771819D01*
X121627930Y-86650457D01*
X121621773Y-86644300D01*
X121681242Y-86644300D01*
X121688635Y-86655365D01*
X121688635Y-86655365D01*
G37*
X121688635Y-86655365D02*
X121852022Y-86764537D01*
X122044750Y-86802873D01*
X122412716Y-86802873D01*
X122529496Y-86919654D01*
X122478800Y-86970350D01*
X122478800Y-87477700D01*
X122498800Y-87477700D01*
X122498800Y-87833300D01*
X122478800Y-87833300D01*
X122478800Y-88340650D01*
X122561350Y-88423200D01*
X122841681Y-88423200D01*
X122885200Y-88405174D01*
X122885201Y-90176641D01*
X122582215Y-90479627D01*
X121612000Y-90479627D01*
X121502984Y-90501312D01*
X121410564Y-90563064D01*
X121348812Y-90655484D01*
X121327127Y-90764500D01*
X121327127Y-90982700D01*
X120290016Y-90982700D01*
X120145849Y-90838533D01*
X119896141Y-90735100D01*
X119625859Y-90735100D01*
X119376151Y-90838533D01*
X119357421Y-90857264D01*
X118375373Y-89875216D01*
X118375373Y-89507250D01*
X118337037Y-89314522D01*
X118227865Y-89151135D01*
X118064478Y-89041963D01*
X117871750Y-89003627D01*
X117434250Y-89003627D01*
X117241522Y-89041963D01*
X117148938Y-89103825D01*
X117025486Y-88980373D01*
X117384000Y-88980373D01*
X117493016Y-88958688D01*
X117585436Y-88896936D01*
X117647188Y-88804516D01*
X117654105Y-88769741D01*
X117675888Y-88755186D01*
X117697146Y-88723371D01*
X117844514Y-88576003D01*
X117886564Y-88638936D01*
X117978984Y-88700688D01*
X118088000Y-88722373D01*
X118617216Y-88722373D01*
X119546627Y-89651784D01*
X119546627Y-89892750D01*
X119584963Y-90085478D01*
X119694135Y-90248865D01*
X119857522Y-90358037D01*
X120050250Y-90396373D01*
X120487750Y-90396373D01*
X120680478Y-90358037D01*
X120843865Y-90248865D01*
X120953037Y-90085478D01*
X120990557Y-89896850D01*
X121076300Y-89896850D01*
X121076300Y-90177181D01*
X121126570Y-90298543D01*
X121219457Y-90391430D01*
X121340819Y-90441700D01*
X121583650Y-90441700D01*
X121666200Y-90359150D01*
X121666200Y-89814300D01*
X122021800Y-89814300D01*
X122021800Y-90359150D01*
X122104350Y-90441700D01*
X122347181Y-90441700D01*
X122468543Y-90391430D01*
X122561430Y-90298543D01*
X122611700Y-90177181D01*
X122611700Y-89896850D01*
X122529150Y-89814300D01*
X122021800Y-89814300D01*
X121666200Y-89814300D01*
X121158850Y-89814300D01*
X121076300Y-89896850D01*
X120990557Y-89896850D01*
X120991373Y-89892750D01*
X120991373Y-89380250D01*
X120953037Y-89187522D01*
X120891763Y-89095819D01*
X121076300Y-89095819D01*
X121076300Y-89376150D01*
X121158850Y-89458700D01*
X121666200Y-89458700D01*
X121666200Y-88913850D01*
X122021800Y-88913850D01*
X122021800Y-89458700D01*
X122529150Y-89458700D01*
X122611700Y-89376150D01*
X122611700Y-89095819D01*
X122561430Y-88974457D01*
X122468543Y-88881570D01*
X122347181Y-88831300D01*
X122104350Y-88831300D01*
X122021800Y-88913850D01*
X121666200Y-88913850D01*
X121583650Y-88831300D01*
X121340819Y-88831300D01*
X121219457Y-88881570D01*
X121126570Y-88974457D01*
X121076300Y-89095819D01*
X120891763Y-89095819D01*
X120843865Y-89024135D01*
X120680478Y-88914963D01*
X120487750Y-88876627D01*
X120050250Y-88876627D01*
X120002318Y-88886161D01*
X119432873Y-88316716D01*
X119432873Y-87787500D01*
X119416070Y-87703028D01*
X120003127Y-88290085D01*
X120003127Y-88437500D01*
X120024812Y-88546516D01*
X120086564Y-88638936D01*
X120178984Y-88700688D01*
X120288000Y-88722373D01*
X121348000Y-88722373D01*
X121457016Y-88700688D01*
X121549436Y-88638936D01*
X121611188Y-88546516D01*
X121632873Y-88437500D01*
X121632873Y-88366846D01*
X121638957Y-88372930D01*
X121760319Y-88423200D01*
X122040650Y-88423200D01*
X122123200Y-88340650D01*
X122123200Y-87833300D01*
X122103200Y-87833300D01*
X122103200Y-87477700D01*
X122123200Y-87477700D01*
X122123200Y-86970350D01*
X122040650Y-86887800D01*
X121760319Y-86887800D01*
X121670749Y-86924901D01*
X121678200Y-86917450D01*
X121678200Y-86771819D01*
X121627930Y-86650457D01*
X121621773Y-86644300D01*
X121681242Y-86644300D01*
X121688635Y-86655365D01*
G36*
X120003127Y-86537500D02*
X120022688Y-86635839D01*
X120008070Y-86650457D01*
X119957800Y-86771819D01*
X119957800Y-86917450D01*
X120040350Y-87000000D01*
X120640200Y-87000000D01*
X120640200Y-86964700D01*
X120995800Y-86964700D01*
X120995800Y-87000000D01*
X121015800Y-87000000D01*
X121015800Y-87325000D01*
X120995800Y-87325000D01*
X120995800Y-87360300D01*
X120640200Y-87360300D01*
X120640200Y-87325000D01*
X120115674Y-87325000D01*
X119441105Y-86650432D01*
X119452800Y-86652758D01*
X119495322Y-86644300D01*
X119495326Y-86644300D01*
X119621280Y-86619246D01*
X119764110Y-86523810D01*
X119788200Y-86487757D01*
X120003127Y-86272830D01*
X120003127Y-86537500D01*
X120003127Y-86537500D01*
G37*
X120003127Y-86537500D02*
X120022688Y-86635839D01*
X120008070Y-86650457D01*
X119957800Y-86771819D01*
X119957800Y-86917450D01*
X120040350Y-87000000D01*
X120640200Y-87000000D01*
X120640200Y-86964700D01*
X120995800Y-86964700D01*
X120995800Y-87000000D01*
X121015800Y-87000000D01*
X121015800Y-87325000D01*
X120995800Y-87325000D01*
X120995800Y-87360300D01*
X120640200Y-87360300D01*
X120640200Y-87325000D01*
X120115674Y-87325000D01*
X119441105Y-86650432D01*
X119452800Y-86652758D01*
X119495322Y-86644300D01*
X119495326Y-86644300D01*
X119621280Y-86619246D01*
X119764110Y-86523810D01*
X119788200Y-86487757D01*
X120003127Y-86272830D01*
X120003127Y-86537500D01*
D28*
G04 #@! TO.N,+5V*
G36*
X115497331Y-97705500D02*
X115497331Y-99855500D01*
X115541989Y-100080009D01*
X115669162Y-100270338D01*
X115859491Y-100397511D01*
X116084000Y-100442169D01*
X116222483Y-100442169D01*
X116333847Y-101088078D01*
X116359830Y-101145836D01*
X117348000Y-102381049D01*
X117348000Y-105359100D01*
X115179336Y-105359100D01*
X114808000Y-104987764D01*
X114808000Y-102336500D01*
X114798333Y-102287899D01*
X114770803Y-102246697D01*
X114729601Y-102219167D01*
X114681000Y-102209500D01*
X114285839Y-102209500D01*
X114276491Y-102195509D01*
X114232825Y-102166333D01*
X114284033Y-102115125D01*
X114395200Y-101846746D01*
X114395200Y-101556254D01*
X114284033Y-101287875D01*
X114078625Y-101082467D01*
X113810246Y-100971300D01*
X113519754Y-100971300D01*
X113251375Y-101082467D01*
X113157000Y-101176842D01*
X113157000Y-97510500D01*
X115536119Y-97510500D01*
X115497331Y-97705500D01*
X115497331Y-97705500D01*
G37*
X115497331Y-97705500D02*
X115497331Y-99855500D01*
X115541989Y-100080009D01*
X115669162Y-100270338D01*
X115859491Y-100397511D01*
X116084000Y-100442169D01*
X116222483Y-100442169D01*
X116333847Y-101088078D01*
X116359830Y-101145836D01*
X117348000Y-102381049D01*
X117348000Y-105359100D01*
X115179336Y-105359100D01*
X114808000Y-104987764D01*
X114808000Y-102336500D01*
X114798333Y-102287899D01*
X114770803Y-102246697D01*
X114729601Y-102219167D01*
X114681000Y-102209500D01*
X114285839Y-102209500D01*
X114276491Y-102195509D01*
X114232825Y-102166333D01*
X114284033Y-102115125D01*
X114395200Y-101846746D01*
X114395200Y-101556254D01*
X114284033Y-101287875D01*
X114078625Y-101082467D01*
X113810246Y-100971300D01*
X113519754Y-100971300D01*
X113251375Y-101082467D01*
X113157000Y-101176842D01*
X113157000Y-97510500D01*
X115536119Y-97510500D01*
X115497331Y-97705500D01*
G04 #@! TO.N,Net-(D4-Pad2)*
G36*
X119352348Y-102709148D02*
X119376436Y-102745198D01*
X119412486Y-102769286D01*
X119412487Y-102769287D01*
X119519266Y-102840634D01*
X119645220Y-102865688D01*
X119645223Y-102865688D01*
X119687745Y-102874146D01*
X119730267Y-102865688D01*
X121412000Y-102865688D01*
X121412000Y-104936764D01*
X120989665Y-105359100D01*
X118110000Y-105359100D01*
X118110000Y-102463500D01*
X119106700Y-102463500D01*
X119352348Y-102709148D01*
X119352348Y-102709148D01*
G37*
X119352348Y-102709148D02*
X119376436Y-102745198D01*
X119412486Y-102769286D01*
X119412487Y-102769287D01*
X119519266Y-102840634D01*
X119645220Y-102865688D01*
X119645223Y-102865688D01*
X119687745Y-102874146D01*
X119730267Y-102865688D01*
X121412000Y-102865688D01*
X121412000Y-104936764D01*
X120989665Y-105359100D01*
X118110000Y-105359100D01*
X118110000Y-102463500D01*
X119106700Y-102463500D01*
X119352348Y-102709148D01*
G04 #@! TD*
M02*
