G04 #@! TF.GenerationSoftware,KiCad,Pcbnew,(5.0.2)-1*
G04 #@! TF.CreationDate,2018-12-23T16:39:48-05:00*
G04 #@! TF.ProjectId,cardEmulator,63617264-456d-4756-9c61-746f722e6b69,rev?*
G04 #@! TF.SameCoordinates,Original*
G04 #@! TF.FileFunction,Copper,L2,Bot*
G04 #@! TF.FilePolarity,Positive*
%FSLAX46Y46*%
G04 Gerber Fmt 4.6, Leading zero omitted, Abs format (unit mm)*
G04 Created by KiCad (PCBNEW (5.0.2)-1) date 12/23/2018 4:39:48 PM*
%MOMM*%
%LPD*%
G01*
G04 APERTURE LIST*
G04 #@! TA.AperFunction,SMDPad,CuDef*
%ADD10R,3.000000X3.000000*%
G04 #@! TD*
G04 #@! TA.AperFunction,ComponentPad*
%ADD11C,1.450000*%
G04 #@! TD*
G04 #@! TA.AperFunction,ComponentPad*
%ADD12O,1.200000X1.900000*%
G04 #@! TD*
G04 #@! TA.AperFunction,Conductor*
%ADD13C,0.100000*%
G04 #@! TD*
G04 #@! TA.AperFunction,SMDPad,CuDef*
%ADD14C,0.875000*%
G04 #@! TD*
G04 #@! TA.AperFunction,SMDPad,CuDef*
%ADD15R,1.700000X0.650000*%
G04 #@! TD*
G04 #@! TA.AperFunction,SMDPad,CuDef*
%ADD16R,0.500000X0.250000*%
G04 #@! TD*
G04 #@! TA.AperFunction,SMDPad,CuDef*
%ADD17R,1.000000X2.650000*%
G04 #@! TD*
G04 #@! TA.AperFunction,ViaPad*
%ADD18C,0.800000*%
G04 #@! TD*
G04 #@! TA.AperFunction,Conductor*
%ADD19C,0.304800*%
G04 #@! TD*
G04 #@! TA.AperFunction,Conductor*
%ADD20C,0.203200*%
G04 #@! TD*
G04 APERTURE END LIST*
D10*
G04 #@! TO.P,TP2,1*
G04 #@! TO.N,/COIL2*
X116205000Y-104368500D03*
G04 #@! TD*
D11*
G04 #@! TO.P,J1,6*
G04 #@! TO.N,GND*
X121062000Y-84462500D03*
X116062000Y-84462500D03*
D12*
X122062000Y-81762500D03*
X115062000Y-81762500D03*
G04 #@! TD*
D13*
G04 #@! TO.N,+5V*
G04 #@! TO.C,C3*
G36*
X114667191Y-86114553D02*
X114688426Y-86117703D01*
X114709250Y-86122919D01*
X114729462Y-86130151D01*
X114748868Y-86139330D01*
X114767281Y-86150366D01*
X114784524Y-86163154D01*
X114800430Y-86177570D01*
X114814846Y-86193476D01*
X114827634Y-86210719D01*
X114838670Y-86229132D01*
X114847849Y-86248538D01*
X114855081Y-86268750D01*
X114860297Y-86289574D01*
X114863447Y-86310809D01*
X114864500Y-86332250D01*
X114864500Y-86844750D01*
X114863447Y-86866191D01*
X114860297Y-86887426D01*
X114855081Y-86908250D01*
X114847849Y-86928462D01*
X114838670Y-86947868D01*
X114827634Y-86966281D01*
X114814846Y-86983524D01*
X114800430Y-86999430D01*
X114784524Y-87013846D01*
X114767281Y-87026634D01*
X114748868Y-87037670D01*
X114729462Y-87046849D01*
X114709250Y-87054081D01*
X114688426Y-87059297D01*
X114667191Y-87062447D01*
X114645750Y-87063500D01*
X114208250Y-87063500D01*
X114186809Y-87062447D01*
X114165574Y-87059297D01*
X114144750Y-87054081D01*
X114124538Y-87046849D01*
X114105132Y-87037670D01*
X114086719Y-87026634D01*
X114069476Y-87013846D01*
X114053570Y-86999430D01*
X114039154Y-86983524D01*
X114026366Y-86966281D01*
X114015330Y-86947868D01*
X114006151Y-86928462D01*
X113998919Y-86908250D01*
X113993703Y-86887426D01*
X113990553Y-86866191D01*
X113989500Y-86844750D01*
X113989500Y-86332250D01*
X113990553Y-86310809D01*
X113993703Y-86289574D01*
X113998919Y-86268750D01*
X114006151Y-86248538D01*
X114015330Y-86229132D01*
X114026366Y-86210719D01*
X114039154Y-86193476D01*
X114053570Y-86177570D01*
X114069476Y-86163154D01*
X114086719Y-86150366D01*
X114105132Y-86139330D01*
X114124538Y-86130151D01*
X114144750Y-86122919D01*
X114165574Y-86117703D01*
X114186809Y-86114553D01*
X114208250Y-86113500D01*
X114645750Y-86113500D01*
X114667191Y-86114553D01*
X114667191Y-86114553D01*
G37*
D14*
G04 #@! TD*
G04 #@! TO.P,C3,1*
G04 #@! TO.N,+5V*
X114427000Y-86588500D03*
D13*
G04 #@! TO.N,GND*
G04 #@! TO.C,C3*
G36*
X116242191Y-86114553D02*
X116263426Y-86117703D01*
X116284250Y-86122919D01*
X116304462Y-86130151D01*
X116323868Y-86139330D01*
X116342281Y-86150366D01*
X116359524Y-86163154D01*
X116375430Y-86177570D01*
X116389846Y-86193476D01*
X116402634Y-86210719D01*
X116413670Y-86229132D01*
X116422849Y-86248538D01*
X116430081Y-86268750D01*
X116435297Y-86289574D01*
X116438447Y-86310809D01*
X116439500Y-86332250D01*
X116439500Y-86844750D01*
X116438447Y-86866191D01*
X116435297Y-86887426D01*
X116430081Y-86908250D01*
X116422849Y-86928462D01*
X116413670Y-86947868D01*
X116402634Y-86966281D01*
X116389846Y-86983524D01*
X116375430Y-86999430D01*
X116359524Y-87013846D01*
X116342281Y-87026634D01*
X116323868Y-87037670D01*
X116304462Y-87046849D01*
X116284250Y-87054081D01*
X116263426Y-87059297D01*
X116242191Y-87062447D01*
X116220750Y-87063500D01*
X115783250Y-87063500D01*
X115761809Y-87062447D01*
X115740574Y-87059297D01*
X115719750Y-87054081D01*
X115699538Y-87046849D01*
X115680132Y-87037670D01*
X115661719Y-87026634D01*
X115644476Y-87013846D01*
X115628570Y-86999430D01*
X115614154Y-86983524D01*
X115601366Y-86966281D01*
X115590330Y-86947868D01*
X115581151Y-86928462D01*
X115573919Y-86908250D01*
X115568703Y-86887426D01*
X115565553Y-86866191D01*
X115564500Y-86844750D01*
X115564500Y-86332250D01*
X115565553Y-86310809D01*
X115568703Y-86289574D01*
X115573919Y-86268750D01*
X115581151Y-86248538D01*
X115590330Y-86229132D01*
X115601366Y-86210719D01*
X115614154Y-86193476D01*
X115628570Y-86177570D01*
X115644476Y-86163154D01*
X115661719Y-86150366D01*
X115680132Y-86139330D01*
X115699538Y-86130151D01*
X115719750Y-86122919D01*
X115740574Y-86117703D01*
X115761809Y-86114553D01*
X115783250Y-86113500D01*
X116220750Y-86113500D01*
X116242191Y-86114553D01*
X116242191Y-86114553D01*
G37*
D14*
G04 #@! TD*
G04 #@! TO.P,C3,2*
G04 #@! TO.N,GND*
X116002000Y-86588500D03*
D13*
G04 #@! TO.N,GND*
G04 #@! TO.C,C6*
G36*
X117715191Y-96274553D02*
X117736426Y-96277703D01*
X117757250Y-96282919D01*
X117777462Y-96290151D01*
X117796868Y-96299330D01*
X117815281Y-96310366D01*
X117832524Y-96323154D01*
X117848430Y-96337570D01*
X117862846Y-96353476D01*
X117875634Y-96370719D01*
X117886670Y-96389132D01*
X117895849Y-96408538D01*
X117903081Y-96428750D01*
X117908297Y-96449574D01*
X117911447Y-96470809D01*
X117912500Y-96492250D01*
X117912500Y-97004750D01*
X117911447Y-97026191D01*
X117908297Y-97047426D01*
X117903081Y-97068250D01*
X117895849Y-97088462D01*
X117886670Y-97107868D01*
X117875634Y-97126281D01*
X117862846Y-97143524D01*
X117848430Y-97159430D01*
X117832524Y-97173846D01*
X117815281Y-97186634D01*
X117796868Y-97197670D01*
X117777462Y-97206849D01*
X117757250Y-97214081D01*
X117736426Y-97219297D01*
X117715191Y-97222447D01*
X117693750Y-97223500D01*
X117256250Y-97223500D01*
X117234809Y-97222447D01*
X117213574Y-97219297D01*
X117192750Y-97214081D01*
X117172538Y-97206849D01*
X117153132Y-97197670D01*
X117134719Y-97186634D01*
X117117476Y-97173846D01*
X117101570Y-97159430D01*
X117087154Y-97143524D01*
X117074366Y-97126281D01*
X117063330Y-97107868D01*
X117054151Y-97088462D01*
X117046919Y-97068250D01*
X117041703Y-97047426D01*
X117038553Y-97026191D01*
X117037500Y-97004750D01*
X117037500Y-96492250D01*
X117038553Y-96470809D01*
X117041703Y-96449574D01*
X117046919Y-96428750D01*
X117054151Y-96408538D01*
X117063330Y-96389132D01*
X117074366Y-96370719D01*
X117087154Y-96353476D01*
X117101570Y-96337570D01*
X117117476Y-96323154D01*
X117134719Y-96310366D01*
X117153132Y-96299330D01*
X117172538Y-96290151D01*
X117192750Y-96282919D01*
X117213574Y-96277703D01*
X117234809Y-96274553D01*
X117256250Y-96273500D01*
X117693750Y-96273500D01*
X117715191Y-96274553D01*
X117715191Y-96274553D01*
G37*
D14*
G04 #@! TD*
G04 #@! TO.P,C6,2*
G04 #@! TO.N,GND*
X117475000Y-96748500D03*
D13*
G04 #@! TO.N,+5V*
G04 #@! TO.C,C6*
G36*
X116140191Y-96274553D02*
X116161426Y-96277703D01*
X116182250Y-96282919D01*
X116202462Y-96290151D01*
X116221868Y-96299330D01*
X116240281Y-96310366D01*
X116257524Y-96323154D01*
X116273430Y-96337570D01*
X116287846Y-96353476D01*
X116300634Y-96370719D01*
X116311670Y-96389132D01*
X116320849Y-96408538D01*
X116328081Y-96428750D01*
X116333297Y-96449574D01*
X116336447Y-96470809D01*
X116337500Y-96492250D01*
X116337500Y-97004750D01*
X116336447Y-97026191D01*
X116333297Y-97047426D01*
X116328081Y-97068250D01*
X116320849Y-97088462D01*
X116311670Y-97107868D01*
X116300634Y-97126281D01*
X116287846Y-97143524D01*
X116273430Y-97159430D01*
X116257524Y-97173846D01*
X116240281Y-97186634D01*
X116221868Y-97197670D01*
X116202462Y-97206849D01*
X116182250Y-97214081D01*
X116161426Y-97219297D01*
X116140191Y-97222447D01*
X116118750Y-97223500D01*
X115681250Y-97223500D01*
X115659809Y-97222447D01*
X115638574Y-97219297D01*
X115617750Y-97214081D01*
X115597538Y-97206849D01*
X115578132Y-97197670D01*
X115559719Y-97186634D01*
X115542476Y-97173846D01*
X115526570Y-97159430D01*
X115512154Y-97143524D01*
X115499366Y-97126281D01*
X115488330Y-97107868D01*
X115479151Y-97088462D01*
X115471919Y-97068250D01*
X115466703Y-97047426D01*
X115463553Y-97026191D01*
X115462500Y-97004750D01*
X115462500Y-96492250D01*
X115463553Y-96470809D01*
X115466703Y-96449574D01*
X115471919Y-96428750D01*
X115479151Y-96408538D01*
X115488330Y-96389132D01*
X115499366Y-96370719D01*
X115512154Y-96353476D01*
X115526570Y-96337570D01*
X115542476Y-96323154D01*
X115559719Y-96310366D01*
X115578132Y-96299330D01*
X115597538Y-96290151D01*
X115617750Y-96282919D01*
X115638574Y-96277703D01*
X115659809Y-96274553D01*
X115681250Y-96273500D01*
X116118750Y-96273500D01*
X116140191Y-96274553D01*
X116140191Y-96274553D01*
G37*
D14*
G04 #@! TD*
G04 #@! TO.P,C6,1*
G04 #@! TO.N,+5V*
X115900000Y-96748500D03*
D15*
G04 #@! TO.P,U3,1*
G04 #@! TO.N,N/C*
X121887000Y-88747500D03*
G04 #@! TO.P,U3,2*
X121887000Y-90017500D03*
G04 #@! TO.P,U3,3*
X121887000Y-91287500D03*
G04 #@! TO.P,U3,4*
G04 #@! TO.N,GND*
X121887000Y-92557500D03*
G04 #@! TO.P,U3,5*
G04 #@! TO.N,/BR1*
X114587000Y-92557500D03*
G04 #@! TO.P,U3,6*
G04 #@! TO.N,/BR2*
X114587000Y-91287500D03*
G04 #@! TO.P,U3,7*
G04 #@! TO.N,N/C*
X114587000Y-90017500D03*
G04 #@! TO.P,U3,8*
G04 #@! TO.N,+5V*
X114587000Y-88747500D03*
G04 #@! TD*
D16*
G04 #@! TO.P,U5,1*
G04 #@! TO.N,+5V*
X117663000Y-98546500D03*
G04 #@! TO.P,U5,2*
G04 #@! TO.N,/COIL1*
X117663000Y-99046500D03*
G04 #@! TO.P,U5,3*
G04 #@! TO.N,/COIL2*
X117663000Y-99546500D03*
G04 #@! TO.P,U5,4*
G04 #@! TO.N,N/C*
X117663000Y-100046500D03*
G04 #@! TO.P,U5,5*
X117663000Y-100546500D03*
G04 #@! TO.P,U5,6*
G04 #@! TO.N,GND*
X117663000Y-101046500D03*
G04 #@! TO.P,U5,7*
G04 #@! TO.N,N/C*
X115763000Y-101046500D03*
G04 #@! TO.P,U5,8*
X115763000Y-100546500D03*
G04 #@! TO.P,U5,9*
G04 #@! TO.N,/BR1*
X115763000Y-100046500D03*
G04 #@! TO.P,U5,10*
G04 #@! TO.N,/BR2*
X115763000Y-99546500D03*
G04 #@! TO.P,U5,11*
G04 #@! TO.N,N/C*
X115763000Y-99046500D03*
G04 #@! TO.P,U5,12*
G04 #@! TO.N,+5V*
X115763000Y-98546500D03*
D17*
G04 #@! TO.P,U5,13*
G04 #@! TO.N,GND*
X116713000Y-99796500D03*
G04 #@! TD*
D10*
G04 #@! TO.P,TP1,1*
G04 #@! TO.N,/COIL1*
X120523000Y-104368500D03*
G04 #@! TD*
G04 #@! TO.P,TP3,1*
G04 #@! TO.N,+BATT*
X122047000Y-95986500D03*
G04 #@! TD*
G04 #@! TO.P,TP4,1*
G04 #@! TO.N,GND*
X120777000Y-100304500D03*
G04 #@! TD*
G04 #@! TO.P,TP1,1*
G04 #@! TO.N,/COIL1*
X118491000Y-82016500D03*
G04 #@! TD*
D18*
G04 #@! TO.N,+BATT*
X119761000Y-91414500D03*
X119761000Y-91414500D03*
G04 #@! TO.N,GND*
X118872000Y-89636500D03*
X120015000Y-100304500D03*
X119507000Y-96240500D03*
X113665000Y-101701500D03*
G04 #@! TO.N,+5V*
X116459000Y-94462500D03*
G04 #@! TD*
D19*
G04 #@! TO.N,+BATT*
X119761000Y-93700500D02*
X122047000Y-95986500D01*
X119761000Y-91414500D02*
X119761000Y-93700500D01*
G04 #@! TO.N,GND*
X117663000Y-101046500D02*
X117663000Y-101894500D01*
D20*
G04 #@! TO.N,/BR2*
X115691001Y-91866501D02*
X115112000Y-91287500D01*
X115691001Y-93085701D02*
X115691001Y-91866501D01*
X115208490Y-93568212D02*
X115691001Y-93085701D01*
X115112000Y-91287500D02*
X114587000Y-91287500D01*
X115208490Y-99445190D02*
X115208490Y-93568212D01*
X115309800Y-99546500D02*
X115208490Y-99445190D01*
X115763000Y-99546500D02*
X115309800Y-99546500D01*
G04 #@! TO.N,/BR1*
X114587000Y-93085700D02*
X114587000Y-92557500D01*
X114587000Y-99326608D02*
X114587000Y-93085700D01*
X115306892Y-100046500D02*
X114587000Y-99326608D01*
X115763000Y-100046500D02*
X115306892Y-100046500D01*
D19*
G04 #@! TO.N,/COIL1*
X118217800Y-99046500D02*
X117663000Y-99046500D01*
X118364392Y-99046500D02*
X118217800Y-99046500D01*
X118725810Y-99407918D02*
X118364392Y-99046500D01*
X118725811Y-101809311D02*
X118725810Y-99407918D01*
X120523000Y-103606500D02*
X118725811Y-101809311D01*
X120523000Y-104368500D02*
X120523000Y-103606500D01*
X118491000Y-83321300D02*
X118491000Y-82016500D01*
X118116399Y-83695901D02*
X118491000Y-83321300D01*
X118116399Y-89999189D02*
X118116399Y-83695901D01*
X118491000Y-90373790D02*
X118116399Y-89999189D01*
X118491000Y-98642142D02*
X118491000Y-90373790D01*
X118086642Y-99046500D02*
X118491000Y-98642142D01*
X117663000Y-99046500D02*
X118086642Y-99046500D01*
G04 #@! TO.N,/COIL2*
X118009800Y-104368500D02*
X116205000Y-104368500D01*
X118268601Y-104109699D02*
X118009800Y-104368500D01*
X118268601Y-99597301D02*
X118268601Y-104109699D01*
X118217800Y-99546500D02*
X118268601Y-99597301D01*
X117663000Y-99546500D02*
X118217800Y-99546500D01*
G04 #@! TO.N,+5V*
X114427000Y-88587500D02*
X114587000Y-88747500D01*
X114427000Y-86588500D02*
X114427000Y-88587500D01*
X116459000Y-96189500D02*
X115900000Y-96748500D01*
X116459000Y-95224500D02*
X116459000Y-96189500D01*
X115763000Y-96885500D02*
X115763000Y-98546500D01*
X115900000Y-96748500D02*
X115763000Y-96885500D01*
X117663000Y-98116700D02*
X117663000Y-98546500D01*
X117662199Y-98115899D02*
X117663000Y-98116700D01*
X115763801Y-98115899D02*
X117662199Y-98115899D01*
X115763000Y-98116700D02*
X115763801Y-98115899D01*
X115763000Y-98546500D02*
X115763000Y-98116700D01*
X115112000Y-88747500D02*
X114587000Y-88747500D01*
X116459000Y-90094500D02*
X115112000Y-88747500D01*
X116459000Y-95224500D02*
X116459000Y-90094500D01*
G04 #@! TD*
D20*
G04 #@! TO.N,GND*
G36*
X120852400Y-81260100D02*
X120852400Y-81610100D01*
X121909600Y-81610100D01*
X121909600Y-81590100D01*
X122214400Y-81590100D01*
X122214400Y-81610100D01*
X123271600Y-81610100D01*
X123271600Y-81260100D01*
X123150653Y-80897176D01*
X123303614Y-80927601D01*
X123507599Y-81063901D01*
X123643899Y-81267886D01*
X123699200Y-81545905D01*
X123699201Y-94221618D01*
X123665927Y-94199385D01*
X123547000Y-94175729D01*
X120882807Y-94175729D01*
X120218200Y-93511122D01*
X120218200Y-92862300D01*
X120427400Y-92862300D01*
X120427400Y-93003757D01*
X120520206Y-93227811D01*
X120691689Y-93399294D01*
X120915743Y-93492100D01*
X121582200Y-93492100D01*
X121734600Y-93339700D01*
X121734600Y-92709900D01*
X122039400Y-92709900D01*
X122039400Y-93339700D01*
X122191800Y-93492100D01*
X122858257Y-93492100D01*
X123082311Y-93399294D01*
X123253794Y-93227811D01*
X123346600Y-93003757D01*
X123346600Y-92862300D01*
X123194200Y-92709900D01*
X122039400Y-92709900D01*
X121734600Y-92709900D01*
X120579800Y-92709900D01*
X120427400Y-92862300D01*
X120218200Y-92862300D01*
X120218200Y-92111243D01*
X120427400Y-92111243D01*
X120427400Y-92252700D01*
X120579800Y-92405100D01*
X121734600Y-92405100D01*
X121734600Y-92385100D01*
X122039400Y-92385100D01*
X122039400Y-92405100D01*
X123194200Y-92405100D01*
X123346600Y-92252700D01*
X123346600Y-92111243D01*
X123253794Y-91887189D01*
X123082311Y-91715706D01*
X123031434Y-91694632D01*
X123047771Y-91612500D01*
X123047771Y-90962500D01*
X123024115Y-90843573D01*
X122956748Y-90742752D01*
X122855927Y-90675385D01*
X122740876Y-90652500D01*
X122855927Y-90629615D01*
X122956748Y-90562248D01*
X123024115Y-90461427D01*
X123047771Y-90342500D01*
X123047771Y-89692500D01*
X123024115Y-89573573D01*
X122956748Y-89472752D01*
X122855927Y-89405385D01*
X122740876Y-89382500D01*
X122855927Y-89359615D01*
X122956748Y-89292248D01*
X123024115Y-89191427D01*
X123047771Y-89072500D01*
X123047771Y-88422500D01*
X123024115Y-88303573D01*
X122956748Y-88202752D01*
X122855927Y-88135385D01*
X122737000Y-88111729D01*
X121037000Y-88111729D01*
X120918073Y-88135385D01*
X120817252Y-88202752D01*
X120749885Y-88303573D01*
X120726229Y-88422500D01*
X120726229Y-89072500D01*
X120749885Y-89191427D01*
X120817252Y-89292248D01*
X120918073Y-89359615D01*
X121033124Y-89382500D01*
X120918073Y-89405385D01*
X120817252Y-89472752D01*
X120749885Y-89573573D01*
X120726229Y-89692500D01*
X120726229Y-90342500D01*
X120749885Y-90461427D01*
X120817252Y-90562248D01*
X120918073Y-90629615D01*
X121033124Y-90652500D01*
X120918073Y-90675385D01*
X120817252Y-90742752D01*
X120749885Y-90843573D01*
X120726229Y-90962500D01*
X120726229Y-91612500D01*
X120742566Y-91694632D01*
X120691689Y-91715706D01*
X120520206Y-91887189D01*
X120427400Y-92111243D01*
X120218200Y-92111243D01*
X120218200Y-91954038D01*
X120358501Y-91813737D01*
X120465800Y-91554693D01*
X120465800Y-91274307D01*
X120358501Y-91015263D01*
X120160237Y-90816999D01*
X119901193Y-90709700D01*
X119620807Y-90709700D01*
X119361763Y-90816999D01*
X119163499Y-91015263D01*
X119056200Y-91274307D01*
X119056200Y-91554693D01*
X119163499Y-91813737D01*
X119303800Y-91954038D01*
X119303801Y-93655465D01*
X119294843Y-93700500D01*
X119330327Y-93878890D01*
X119378530Y-93951031D01*
X119431378Y-94030123D01*
X119469552Y-94055630D01*
X120236229Y-94822307D01*
X120236229Y-97486500D01*
X120259885Y-97605427D01*
X120327252Y-97706248D01*
X120428073Y-97773615D01*
X120547000Y-97797271D01*
X123547000Y-97797271D01*
X123665927Y-97773615D01*
X123699201Y-97751382D01*
X123699201Y-105347090D01*
X123643899Y-105625114D01*
X123507599Y-105829099D01*
X123303614Y-105965399D01*
X123025595Y-106020700D01*
X122287883Y-106020700D01*
X122310115Y-105987427D01*
X122333771Y-105868500D01*
X122333771Y-102868500D01*
X122310115Y-102749573D01*
X122242748Y-102648752D01*
X122141927Y-102581385D01*
X122023000Y-102557729D01*
X120120808Y-102557729D01*
X119977179Y-102414100D01*
X120472200Y-102414100D01*
X120624600Y-102261700D01*
X120624600Y-100456900D01*
X120929400Y-100456900D01*
X120929400Y-102261700D01*
X121081800Y-102414100D01*
X122398257Y-102414100D01*
X122622311Y-102321294D01*
X122793794Y-102149811D01*
X122886600Y-101925757D01*
X122886600Y-100609300D01*
X122734200Y-100456900D01*
X120929400Y-100456900D01*
X120624600Y-100456900D01*
X120604600Y-100456900D01*
X120604600Y-100152100D01*
X120624600Y-100152100D01*
X120624600Y-98347300D01*
X120929400Y-98347300D01*
X120929400Y-100152100D01*
X122734200Y-100152100D01*
X122886600Y-99999700D01*
X122886600Y-98683243D01*
X122793794Y-98459189D01*
X122622311Y-98287706D01*
X122398257Y-98194900D01*
X121081800Y-98194900D01*
X120929400Y-98347300D01*
X120624600Y-98347300D01*
X120472200Y-98194900D01*
X119155743Y-98194900D01*
X118948200Y-98280867D01*
X118948200Y-90418820D01*
X118957157Y-90373790D01*
X118921673Y-90195399D01*
X118846130Y-90082341D01*
X118820623Y-90044167D01*
X118782448Y-90018660D01*
X118573599Y-89809811D01*
X118573599Y-85417870D01*
X120322156Y-85417870D01*
X120390500Y-85646019D01*
X120894527Y-85812901D01*
X121424051Y-85774197D01*
X121733500Y-85646019D01*
X121801844Y-85417870D01*
X121062000Y-84678026D01*
X120322156Y-85417870D01*
X118573599Y-85417870D01*
X118573599Y-83885279D01*
X118631608Y-83827271D01*
X119866472Y-83827271D01*
X119711599Y-84295027D01*
X119750303Y-84824551D01*
X119878481Y-85134000D01*
X120106630Y-85202344D01*
X120846474Y-84462500D01*
X121277526Y-84462500D01*
X122017370Y-85202344D01*
X122245519Y-85134000D01*
X122412401Y-84629973D01*
X122373697Y-84100449D01*
X122245519Y-83791000D01*
X122017370Y-83722656D01*
X121277526Y-84462500D01*
X120846474Y-84462500D01*
X120832332Y-84448358D01*
X121047858Y-84232832D01*
X121062000Y-84246974D01*
X121801844Y-83507130D01*
X121733500Y-83278981D01*
X121229473Y-83112099D01*
X120699949Y-83150803D01*
X120390500Y-83278981D01*
X120322157Y-83507128D01*
X120301771Y-83486742D01*
X120301771Y-81914900D01*
X120852400Y-81914900D01*
X120852400Y-82264900D01*
X121002796Y-82716193D01*
X121314446Y-83075579D01*
X121723761Y-83273847D01*
X121909600Y-83158658D01*
X121909600Y-81914900D01*
X122214400Y-81914900D01*
X122214400Y-83158658D01*
X122400239Y-83273847D01*
X122809554Y-83075579D01*
X123121204Y-82716193D01*
X123271600Y-82264900D01*
X123271600Y-81914900D01*
X122214400Y-81914900D01*
X121909600Y-81914900D01*
X120852400Y-81914900D01*
X120301771Y-81914900D01*
X120301771Y-80872300D01*
X120981637Y-80872300D01*
X120852400Y-81260100D01*
X120852400Y-81260100D01*
G37*
X120852400Y-81260100D02*
X120852400Y-81610100D01*
X121909600Y-81610100D01*
X121909600Y-81590100D01*
X122214400Y-81590100D01*
X122214400Y-81610100D01*
X123271600Y-81610100D01*
X123271600Y-81260100D01*
X123150653Y-80897176D01*
X123303614Y-80927601D01*
X123507599Y-81063901D01*
X123643899Y-81267886D01*
X123699200Y-81545905D01*
X123699201Y-94221618D01*
X123665927Y-94199385D01*
X123547000Y-94175729D01*
X120882807Y-94175729D01*
X120218200Y-93511122D01*
X120218200Y-92862300D01*
X120427400Y-92862300D01*
X120427400Y-93003757D01*
X120520206Y-93227811D01*
X120691689Y-93399294D01*
X120915743Y-93492100D01*
X121582200Y-93492100D01*
X121734600Y-93339700D01*
X121734600Y-92709900D01*
X122039400Y-92709900D01*
X122039400Y-93339700D01*
X122191800Y-93492100D01*
X122858257Y-93492100D01*
X123082311Y-93399294D01*
X123253794Y-93227811D01*
X123346600Y-93003757D01*
X123346600Y-92862300D01*
X123194200Y-92709900D01*
X122039400Y-92709900D01*
X121734600Y-92709900D01*
X120579800Y-92709900D01*
X120427400Y-92862300D01*
X120218200Y-92862300D01*
X120218200Y-92111243D01*
X120427400Y-92111243D01*
X120427400Y-92252700D01*
X120579800Y-92405100D01*
X121734600Y-92405100D01*
X121734600Y-92385100D01*
X122039400Y-92385100D01*
X122039400Y-92405100D01*
X123194200Y-92405100D01*
X123346600Y-92252700D01*
X123346600Y-92111243D01*
X123253794Y-91887189D01*
X123082311Y-91715706D01*
X123031434Y-91694632D01*
X123047771Y-91612500D01*
X123047771Y-90962500D01*
X123024115Y-90843573D01*
X122956748Y-90742752D01*
X122855927Y-90675385D01*
X122740876Y-90652500D01*
X122855927Y-90629615D01*
X122956748Y-90562248D01*
X123024115Y-90461427D01*
X123047771Y-90342500D01*
X123047771Y-89692500D01*
X123024115Y-89573573D01*
X122956748Y-89472752D01*
X122855927Y-89405385D01*
X122740876Y-89382500D01*
X122855927Y-89359615D01*
X122956748Y-89292248D01*
X123024115Y-89191427D01*
X123047771Y-89072500D01*
X123047771Y-88422500D01*
X123024115Y-88303573D01*
X122956748Y-88202752D01*
X122855927Y-88135385D01*
X122737000Y-88111729D01*
X121037000Y-88111729D01*
X120918073Y-88135385D01*
X120817252Y-88202752D01*
X120749885Y-88303573D01*
X120726229Y-88422500D01*
X120726229Y-89072500D01*
X120749885Y-89191427D01*
X120817252Y-89292248D01*
X120918073Y-89359615D01*
X121033124Y-89382500D01*
X120918073Y-89405385D01*
X120817252Y-89472752D01*
X120749885Y-89573573D01*
X120726229Y-89692500D01*
X120726229Y-90342500D01*
X120749885Y-90461427D01*
X120817252Y-90562248D01*
X120918073Y-90629615D01*
X121033124Y-90652500D01*
X120918073Y-90675385D01*
X120817252Y-90742752D01*
X120749885Y-90843573D01*
X120726229Y-90962500D01*
X120726229Y-91612500D01*
X120742566Y-91694632D01*
X120691689Y-91715706D01*
X120520206Y-91887189D01*
X120427400Y-92111243D01*
X120218200Y-92111243D01*
X120218200Y-91954038D01*
X120358501Y-91813737D01*
X120465800Y-91554693D01*
X120465800Y-91274307D01*
X120358501Y-91015263D01*
X120160237Y-90816999D01*
X119901193Y-90709700D01*
X119620807Y-90709700D01*
X119361763Y-90816999D01*
X119163499Y-91015263D01*
X119056200Y-91274307D01*
X119056200Y-91554693D01*
X119163499Y-91813737D01*
X119303800Y-91954038D01*
X119303801Y-93655465D01*
X119294843Y-93700500D01*
X119330327Y-93878890D01*
X119378530Y-93951031D01*
X119431378Y-94030123D01*
X119469552Y-94055630D01*
X120236229Y-94822307D01*
X120236229Y-97486500D01*
X120259885Y-97605427D01*
X120327252Y-97706248D01*
X120428073Y-97773615D01*
X120547000Y-97797271D01*
X123547000Y-97797271D01*
X123665927Y-97773615D01*
X123699201Y-97751382D01*
X123699201Y-105347090D01*
X123643899Y-105625114D01*
X123507599Y-105829099D01*
X123303614Y-105965399D01*
X123025595Y-106020700D01*
X122287883Y-106020700D01*
X122310115Y-105987427D01*
X122333771Y-105868500D01*
X122333771Y-102868500D01*
X122310115Y-102749573D01*
X122242748Y-102648752D01*
X122141927Y-102581385D01*
X122023000Y-102557729D01*
X120120808Y-102557729D01*
X119977179Y-102414100D01*
X120472200Y-102414100D01*
X120624600Y-102261700D01*
X120624600Y-100456900D01*
X120929400Y-100456900D01*
X120929400Y-102261700D01*
X121081800Y-102414100D01*
X122398257Y-102414100D01*
X122622311Y-102321294D01*
X122793794Y-102149811D01*
X122886600Y-101925757D01*
X122886600Y-100609300D01*
X122734200Y-100456900D01*
X120929400Y-100456900D01*
X120624600Y-100456900D01*
X120604600Y-100456900D01*
X120604600Y-100152100D01*
X120624600Y-100152100D01*
X120624600Y-98347300D01*
X120929400Y-98347300D01*
X120929400Y-100152100D01*
X122734200Y-100152100D01*
X122886600Y-99999700D01*
X122886600Y-98683243D01*
X122793794Y-98459189D01*
X122622311Y-98287706D01*
X122398257Y-98194900D01*
X121081800Y-98194900D01*
X120929400Y-98347300D01*
X120624600Y-98347300D01*
X120472200Y-98194900D01*
X119155743Y-98194900D01*
X118948200Y-98280867D01*
X118948200Y-90418820D01*
X118957157Y-90373790D01*
X118921673Y-90195399D01*
X118846130Y-90082341D01*
X118820623Y-90044167D01*
X118782448Y-90018660D01*
X118573599Y-89809811D01*
X118573599Y-85417870D01*
X120322156Y-85417870D01*
X120390500Y-85646019D01*
X120894527Y-85812901D01*
X121424051Y-85774197D01*
X121733500Y-85646019D01*
X121801844Y-85417870D01*
X121062000Y-84678026D01*
X120322156Y-85417870D01*
X118573599Y-85417870D01*
X118573599Y-83885279D01*
X118631608Y-83827271D01*
X119866472Y-83827271D01*
X119711599Y-84295027D01*
X119750303Y-84824551D01*
X119878481Y-85134000D01*
X120106630Y-85202344D01*
X120846474Y-84462500D01*
X121277526Y-84462500D01*
X122017370Y-85202344D01*
X122245519Y-85134000D01*
X122412401Y-84629973D01*
X122373697Y-84100449D01*
X122245519Y-83791000D01*
X122017370Y-83722656D01*
X121277526Y-84462500D01*
X120846474Y-84462500D01*
X120832332Y-84448358D01*
X121047858Y-84232832D01*
X121062000Y-84246974D01*
X121801844Y-83507130D01*
X121733500Y-83278981D01*
X121229473Y-83112099D01*
X120699949Y-83150803D01*
X120390500Y-83278981D01*
X120322157Y-83507128D01*
X120301771Y-83486742D01*
X120301771Y-81914900D01*
X120852400Y-81914900D01*
X120852400Y-82264900D01*
X121002796Y-82716193D01*
X121314446Y-83075579D01*
X121723761Y-83273847D01*
X121909600Y-83158658D01*
X121909600Y-81914900D01*
X122214400Y-81914900D01*
X122214400Y-83158658D01*
X122400239Y-83273847D01*
X122809554Y-83075579D01*
X123121204Y-82716193D01*
X123271600Y-82264900D01*
X123271600Y-81914900D01*
X122214400Y-81914900D01*
X121909600Y-81914900D01*
X120852400Y-81914900D01*
X120301771Y-81914900D01*
X120301771Y-80872300D01*
X120981637Y-80872300D01*
X120852400Y-81260100D01*
G36*
X113852400Y-81260100D02*
X113852400Y-81610100D01*
X114909600Y-81610100D01*
X114909600Y-81590100D01*
X115214400Y-81590100D01*
X115214400Y-81610100D01*
X116271600Y-81610100D01*
X116271600Y-81260100D01*
X116142363Y-80872300D01*
X116680229Y-80872300D01*
X116680229Y-83261343D01*
X116229473Y-83112099D01*
X115699949Y-83150803D01*
X115390500Y-83278981D01*
X115322156Y-83507130D01*
X116062000Y-84246974D01*
X116076143Y-84232832D01*
X116291669Y-84448358D01*
X116277526Y-84462500D01*
X117017370Y-85202344D01*
X117245519Y-85134000D01*
X117412401Y-84629973D01*
X117373697Y-84100449D01*
X117260543Y-83827271D01*
X117659200Y-83827271D01*
X117659199Y-89954159D01*
X117650242Y-89999189D01*
X117659199Y-90044218D01*
X117685726Y-90177579D01*
X117786776Y-90328812D01*
X117824953Y-90354321D01*
X118033801Y-90563170D01*
X118033800Y-95663918D01*
X118033757Y-95663900D01*
X117779800Y-95663900D01*
X117627400Y-95816300D01*
X117627400Y-96596100D01*
X117647400Y-96596100D01*
X117647400Y-96900900D01*
X117627400Y-96900900D01*
X117627400Y-96920900D01*
X117322600Y-96920900D01*
X117322600Y-96900900D01*
X117302600Y-96900900D01*
X117302600Y-96596100D01*
X117322600Y-96596100D01*
X117322600Y-95816300D01*
X117170200Y-95663900D01*
X116916243Y-95663900D01*
X116916200Y-95663918D01*
X116916200Y-95002038D01*
X117056501Y-94861737D01*
X117163800Y-94602693D01*
X117163800Y-94322307D01*
X117056501Y-94063263D01*
X116916200Y-93922962D01*
X116916200Y-90139530D01*
X116925157Y-90094500D01*
X116889673Y-89916109D01*
X116788623Y-89764877D01*
X116750446Y-89739368D01*
X115747771Y-88736693D01*
X115747771Y-88422500D01*
X115724115Y-88303573D01*
X115656748Y-88202752D01*
X115555927Y-88135385D01*
X115437000Y-88111729D01*
X114884200Y-88111729D01*
X114884200Y-87310036D01*
X114980217Y-87245879D01*
X115047706Y-87408811D01*
X115219189Y-87580294D01*
X115443243Y-87673100D01*
X115697200Y-87673100D01*
X115849600Y-87520700D01*
X115849600Y-86740900D01*
X116154400Y-86740900D01*
X116154400Y-87520700D01*
X116306800Y-87673100D01*
X116560757Y-87673100D01*
X116784811Y-87580294D01*
X116956294Y-87408811D01*
X117049100Y-87184757D01*
X117049100Y-86893300D01*
X116896700Y-86740900D01*
X116154400Y-86740900D01*
X115849600Y-86740900D01*
X115829600Y-86740900D01*
X115829600Y-86436100D01*
X115849600Y-86436100D01*
X115849600Y-86416100D01*
X116154400Y-86416100D01*
X116154400Y-86436100D01*
X116896700Y-86436100D01*
X117049100Y-86283700D01*
X117049100Y-85992243D01*
X116956294Y-85768189D01*
X116784811Y-85596706D01*
X116752305Y-85583242D01*
X116801844Y-85417870D01*
X116062000Y-84678026D01*
X115322156Y-85417870D01*
X115358448Y-85539023D01*
X115219189Y-85596706D01*
X115047706Y-85768189D01*
X114980217Y-85931121D01*
X114848389Y-85843036D01*
X114645750Y-85802729D01*
X114208250Y-85802729D01*
X114005611Y-85843036D01*
X113833822Y-85957822D01*
X113719036Y-86129611D01*
X113678729Y-86332250D01*
X113678729Y-86844750D01*
X113719036Y-87047389D01*
X113833822Y-87219178D01*
X113969800Y-87310036D01*
X113969801Y-88111729D01*
X113737000Y-88111729D01*
X113618073Y-88135385D01*
X113517252Y-88202752D01*
X113449885Y-88303573D01*
X113426229Y-88422500D01*
X113426229Y-89072500D01*
X113449885Y-89191427D01*
X113517252Y-89292248D01*
X113618073Y-89359615D01*
X113733124Y-89382500D01*
X113618073Y-89405385D01*
X113517252Y-89472752D01*
X113449885Y-89573573D01*
X113426229Y-89692500D01*
X113426229Y-90342500D01*
X113449885Y-90461427D01*
X113517252Y-90562248D01*
X113618073Y-90629615D01*
X113733124Y-90652500D01*
X113618073Y-90675385D01*
X113517252Y-90742752D01*
X113449885Y-90843573D01*
X113426229Y-90962500D01*
X113426229Y-91612500D01*
X113449885Y-91731427D01*
X113517252Y-91832248D01*
X113618073Y-91899615D01*
X113733124Y-91922500D01*
X113618073Y-91945385D01*
X113517252Y-92012752D01*
X113449885Y-92113573D01*
X113426229Y-92232500D01*
X113426229Y-92882500D01*
X113449885Y-93001427D01*
X113517252Y-93102248D01*
X113618073Y-93169615D01*
X113737000Y-93193271D01*
X114180601Y-93193271D01*
X114180600Y-99286590D01*
X114172640Y-99326608D01*
X114180600Y-99366626D01*
X114180600Y-99366630D01*
X114204180Y-99485176D01*
X114294003Y-99619605D01*
X114327935Y-99642278D01*
X114991224Y-100305568D01*
X115013895Y-100339497D01*
X115148323Y-100429320D01*
X115202229Y-100440042D01*
X115202229Y-100671500D01*
X115225885Y-100790427D01*
X115229943Y-100796500D01*
X115225885Y-100802573D01*
X115202229Y-100921500D01*
X115202229Y-101171500D01*
X115225885Y-101290427D01*
X115293252Y-101391248D01*
X115394073Y-101458615D01*
X115513000Y-101482271D01*
X115711666Y-101482271D01*
X115867689Y-101638294D01*
X116091743Y-101731100D01*
X116408200Y-101731100D01*
X116560600Y-101578700D01*
X116560600Y-99948900D01*
X116540600Y-99948900D01*
X116540600Y-99644100D01*
X116560600Y-99644100D01*
X116560600Y-99624100D01*
X116865400Y-99624100D01*
X116865400Y-99644100D01*
X116885400Y-99644100D01*
X116885400Y-99948900D01*
X116865400Y-99948900D01*
X116865400Y-100650561D01*
X116803400Y-100800243D01*
X116803400Y-100831600D01*
X116865400Y-100893600D01*
X116865400Y-101199400D01*
X116803400Y-101261400D01*
X116803400Y-101292757D01*
X116865400Y-101442439D01*
X116865400Y-101578700D01*
X117017800Y-101731100D01*
X117171032Y-101731100D01*
X117291743Y-101781100D01*
X117385600Y-101781100D01*
X117507260Y-101659440D01*
X117558311Y-101638294D01*
X117729794Y-101466811D01*
X117788000Y-101326289D01*
X117788000Y-101628700D01*
X117811401Y-101652101D01*
X117811402Y-102578894D01*
X117705000Y-102557729D01*
X114705000Y-102557729D01*
X114586073Y-102581385D01*
X114485252Y-102648752D01*
X114417885Y-102749573D01*
X114394229Y-102868500D01*
X114394229Y-105868500D01*
X114417885Y-105987427D01*
X114440117Y-106020700D01*
X113448405Y-106020700D01*
X113170386Y-105965399D01*
X112966401Y-105829099D01*
X112830101Y-105625114D01*
X112774800Y-105347095D01*
X112774800Y-84295027D01*
X114711599Y-84295027D01*
X114750303Y-84824551D01*
X114878481Y-85134000D01*
X115106630Y-85202344D01*
X115846474Y-84462500D01*
X115106630Y-83722656D01*
X114878481Y-83791000D01*
X114711599Y-84295027D01*
X112774800Y-84295027D01*
X112774800Y-81914900D01*
X113852400Y-81914900D01*
X113852400Y-82264900D01*
X114002796Y-82716193D01*
X114314446Y-83075579D01*
X114723761Y-83273847D01*
X114909600Y-83158658D01*
X114909600Y-81914900D01*
X115214400Y-81914900D01*
X115214400Y-83158658D01*
X115400239Y-83273847D01*
X115809554Y-83075579D01*
X116121204Y-82716193D01*
X116271600Y-82264900D01*
X116271600Y-81914900D01*
X115214400Y-81914900D01*
X114909600Y-81914900D01*
X113852400Y-81914900D01*
X112774800Y-81914900D01*
X112774800Y-81545905D01*
X112830101Y-81267886D01*
X112966401Y-81063901D01*
X113170386Y-80927601D01*
X113448405Y-80872300D01*
X113981637Y-80872300D01*
X113852400Y-81260100D01*
X113852400Y-81260100D01*
G37*
X113852400Y-81260100D02*
X113852400Y-81610100D01*
X114909600Y-81610100D01*
X114909600Y-81590100D01*
X115214400Y-81590100D01*
X115214400Y-81610100D01*
X116271600Y-81610100D01*
X116271600Y-81260100D01*
X116142363Y-80872300D01*
X116680229Y-80872300D01*
X116680229Y-83261343D01*
X116229473Y-83112099D01*
X115699949Y-83150803D01*
X115390500Y-83278981D01*
X115322156Y-83507130D01*
X116062000Y-84246974D01*
X116076143Y-84232832D01*
X116291669Y-84448358D01*
X116277526Y-84462500D01*
X117017370Y-85202344D01*
X117245519Y-85134000D01*
X117412401Y-84629973D01*
X117373697Y-84100449D01*
X117260543Y-83827271D01*
X117659200Y-83827271D01*
X117659199Y-89954159D01*
X117650242Y-89999189D01*
X117659199Y-90044218D01*
X117685726Y-90177579D01*
X117786776Y-90328812D01*
X117824953Y-90354321D01*
X118033801Y-90563170D01*
X118033800Y-95663918D01*
X118033757Y-95663900D01*
X117779800Y-95663900D01*
X117627400Y-95816300D01*
X117627400Y-96596100D01*
X117647400Y-96596100D01*
X117647400Y-96900900D01*
X117627400Y-96900900D01*
X117627400Y-96920900D01*
X117322600Y-96920900D01*
X117322600Y-96900900D01*
X117302600Y-96900900D01*
X117302600Y-96596100D01*
X117322600Y-96596100D01*
X117322600Y-95816300D01*
X117170200Y-95663900D01*
X116916243Y-95663900D01*
X116916200Y-95663918D01*
X116916200Y-95002038D01*
X117056501Y-94861737D01*
X117163800Y-94602693D01*
X117163800Y-94322307D01*
X117056501Y-94063263D01*
X116916200Y-93922962D01*
X116916200Y-90139530D01*
X116925157Y-90094500D01*
X116889673Y-89916109D01*
X116788623Y-89764877D01*
X116750446Y-89739368D01*
X115747771Y-88736693D01*
X115747771Y-88422500D01*
X115724115Y-88303573D01*
X115656748Y-88202752D01*
X115555927Y-88135385D01*
X115437000Y-88111729D01*
X114884200Y-88111729D01*
X114884200Y-87310036D01*
X114980217Y-87245879D01*
X115047706Y-87408811D01*
X115219189Y-87580294D01*
X115443243Y-87673100D01*
X115697200Y-87673100D01*
X115849600Y-87520700D01*
X115849600Y-86740900D01*
X116154400Y-86740900D01*
X116154400Y-87520700D01*
X116306800Y-87673100D01*
X116560757Y-87673100D01*
X116784811Y-87580294D01*
X116956294Y-87408811D01*
X117049100Y-87184757D01*
X117049100Y-86893300D01*
X116896700Y-86740900D01*
X116154400Y-86740900D01*
X115849600Y-86740900D01*
X115829600Y-86740900D01*
X115829600Y-86436100D01*
X115849600Y-86436100D01*
X115849600Y-86416100D01*
X116154400Y-86416100D01*
X116154400Y-86436100D01*
X116896700Y-86436100D01*
X117049100Y-86283700D01*
X117049100Y-85992243D01*
X116956294Y-85768189D01*
X116784811Y-85596706D01*
X116752305Y-85583242D01*
X116801844Y-85417870D01*
X116062000Y-84678026D01*
X115322156Y-85417870D01*
X115358448Y-85539023D01*
X115219189Y-85596706D01*
X115047706Y-85768189D01*
X114980217Y-85931121D01*
X114848389Y-85843036D01*
X114645750Y-85802729D01*
X114208250Y-85802729D01*
X114005611Y-85843036D01*
X113833822Y-85957822D01*
X113719036Y-86129611D01*
X113678729Y-86332250D01*
X113678729Y-86844750D01*
X113719036Y-87047389D01*
X113833822Y-87219178D01*
X113969800Y-87310036D01*
X113969801Y-88111729D01*
X113737000Y-88111729D01*
X113618073Y-88135385D01*
X113517252Y-88202752D01*
X113449885Y-88303573D01*
X113426229Y-88422500D01*
X113426229Y-89072500D01*
X113449885Y-89191427D01*
X113517252Y-89292248D01*
X113618073Y-89359615D01*
X113733124Y-89382500D01*
X113618073Y-89405385D01*
X113517252Y-89472752D01*
X113449885Y-89573573D01*
X113426229Y-89692500D01*
X113426229Y-90342500D01*
X113449885Y-90461427D01*
X113517252Y-90562248D01*
X113618073Y-90629615D01*
X113733124Y-90652500D01*
X113618073Y-90675385D01*
X113517252Y-90742752D01*
X113449885Y-90843573D01*
X113426229Y-90962500D01*
X113426229Y-91612500D01*
X113449885Y-91731427D01*
X113517252Y-91832248D01*
X113618073Y-91899615D01*
X113733124Y-91922500D01*
X113618073Y-91945385D01*
X113517252Y-92012752D01*
X113449885Y-92113573D01*
X113426229Y-92232500D01*
X113426229Y-92882500D01*
X113449885Y-93001427D01*
X113517252Y-93102248D01*
X113618073Y-93169615D01*
X113737000Y-93193271D01*
X114180601Y-93193271D01*
X114180600Y-99286590D01*
X114172640Y-99326608D01*
X114180600Y-99366626D01*
X114180600Y-99366630D01*
X114204180Y-99485176D01*
X114294003Y-99619605D01*
X114327935Y-99642278D01*
X114991224Y-100305568D01*
X115013895Y-100339497D01*
X115148323Y-100429320D01*
X115202229Y-100440042D01*
X115202229Y-100671500D01*
X115225885Y-100790427D01*
X115229943Y-100796500D01*
X115225885Y-100802573D01*
X115202229Y-100921500D01*
X115202229Y-101171500D01*
X115225885Y-101290427D01*
X115293252Y-101391248D01*
X115394073Y-101458615D01*
X115513000Y-101482271D01*
X115711666Y-101482271D01*
X115867689Y-101638294D01*
X116091743Y-101731100D01*
X116408200Y-101731100D01*
X116560600Y-101578700D01*
X116560600Y-99948900D01*
X116540600Y-99948900D01*
X116540600Y-99644100D01*
X116560600Y-99644100D01*
X116560600Y-99624100D01*
X116865400Y-99624100D01*
X116865400Y-99644100D01*
X116885400Y-99644100D01*
X116885400Y-99948900D01*
X116865400Y-99948900D01*
X116865400Y-100650561D01*
X116803400Y-100800243D01*
X116803400Y-100831600D01*
X116865400Y-100893600D01*
X116865400Y-101199400D01*
X116803400Y-101261400D01*
X116803400Y-101292757D01*
X116865400Y-101442439D01*
X116865400Y-101578700D01*
X117017800Y-101731100D01*
X117171032Y-101731100D01*
X117291743Y-101781100D01*
X117385600Y-101781100D01*
X117507260Y-101659440D01*
X117558311Y-101638294D01*
X117729794Y-101466811D01*
X117788000Y-101326289D01*
X117788000Y-101628700D01*
X117811401Y-101652101D01*
X117811402Y-102578894D01*
X117705000Y-102557729D01*
X114705000Y-102557729D01*
X114586073Y-102581385D01*
X114485252Y-102648752D01*
X114417885Y-102749573D01*
X114394229Y-102868500D01*
X114394229Y-105868500D01*
X114417885Y-105987427D01*
X114440117Y-106020700D01*
X113448405Y-106020700D01*
X113170386Y-105965399D01*
X112966401Y-105829099D01*
X112830101Y-105625114D01*
X112774800Y-105347095D01*
X112774800Y-84295027D01*
X114711599Y-84295027D01*
X114750303Y-84824551D01*
X114878481Y-85134000D01*
X115106630Y-85202344D01*
X115846474Y-84462500D01*
X115106630Y-83722656D01*
X114878481Y-83791000D01*
X114711599Y-84295027D01*
X112774800Y-84295027D01*
X112774800Y-81914900D01*
X113852400Y-81914900D01*
X113852400Y-82264900D01*
X114002796Y-82716193D01*
X114314446Y-83075579D01*
X114723761Y-83273847D01*
X114909600Y-83158658D01*
X114909600Y-81914900D01*
X115214400Y-81914900D01*
X115214400Y-83158658D01*
X115400239Y-83273847D01*
X115809554Y-83075579D01*
X116121204Y-82716193D01*
X116271600Y-82264900D01*
X116271600Y-81914900D01*
X115214400Y-81914900D01*
X114909600Y-81914900D01*
X113852400Y-81914900D01*
X112774800Y-81914900D01*
X112774800Y-81545905D01*
X112830101Y-81267886D01*
X112966401Y-81063901D01*
X113170386Y-80927601D01*
X113448405Y-80872300D01*
X113981637Y-80872300D01*
X113852400Y-81260100D01*
G04 #@! TD*
M02*
