G04 #@! TF.GenerationSoftware,KiCad,Pcbnew,(5.0.2)-1*
G04 #@! TF.CreationDate,2018-12-23T16:39:48-05:00*
G04 #@! TF.ProjectId,cardEmulator,63617264-456d-4756-9c61-746f722e6b69,rev?*
G04 #@! TF.SameCoordinates,Original*
G04 #@! TF.FileFunction,Legend,Bot*
G04 #@! TF.FilePolarity,Positive*
%FSLAX46Y46*%
G04 Gerber Fmt 4.6, Leading zero omitted, Abs format (unit mm)*
G04 Created by KiCad (PCBNEW (5.0.2)-1) date 12/23/2018 4:39:48 PM*
%MOMM*%
%LPD*%
G01*
G04 APERTURE LIST*
%ADD10C,0.300000*%
%ADD11C,0.120000*%
%ADD12C,0.150000*%
G04 APERTURE END LIST*
D10*
X122960190Y-85893023D02*
X122657809Y-87163023D01*
X122415904Y-86255880D01*
X122174000Y-87163023D01*
X121871619Y-85893023D01*
X121569238Y-85893023D02*
X120843523Y-85893023D01*
X121206380Y-87163023D02*
X121206380Y-85893023D01*
X119936380Y-87102547D02*
X120057333Y-87163023D01*
X120299238Y-87163023D01*
X120420190Y-87102547D01*
X120480666Y-86981595D01*
X120480666Y-86497785D01*
X120420190Y-86376833D01*
X120299238Y-86316357D01*
X120057333Y-86316357D01*
X119936380Y-86376833D01*
X119875904Y-86497785D01*
X119875904Y-86618738D01*
X120480666Y-86739690D01*
X118787333Y-87102547D02*
X118908285Y-87163023D01*
X119150190Y-87163023D01*
X119271142Y-87102547D01*
X119331619Y-87042071D01*
X119392095Y-86921119D01*
X119392095Y-86558261D01*
X119331619Y-86437309D01*
X119271142Y-86376833D01*
X119150190Y-86316357D01*
X118908285Y-86316357D01*
X118787333Y-86376833D01*
X118243047Y-87163023D02*
X118243047Y-85893023D01*
X117698761Y-87163023D02*
X117698761Y-86497785D01*
X117759238Y-86376833D01*
X117880190Y-86316357D01*
X118061619Y-86316357D01*
X118182571Y-86376833D01*
X118243047Y-86437309D01*
X117272428Y-95649071D02*
X117986714Y-95649071D01*
X117986714Y-94149071D01*
X116772428Y-95649071D02*
X116772428Y-94649071D01*
X116772428Y-94149071D02*
X116843857Y-94220500D01*
X116772428Y-94291928D01*
X116701000Y-94220500D01*
X116772428Y-94149071D01*
X116772428Y-94291928D01*
X116058142Y-95649071D02*
X116058142Y-94149071D01*
X115486714Y-94149071D01*
X115343857Y-94220500D01*
X115272428Y-94291928D01*
X115201000Y-94434785D01*
X115201000Y-94649071D01*
X115272428Y-94791928D01*
X115343857Y-94863357D01*
X115486714Y-94934785D01*
X116058142Y-94934785D01*
X114343857Y-95649071D02*
X114486714Y-95577642D01*
X114558142Y-95506214D01*
X114629571Y-95363357D01*
X114629571Y-94934785D01*
X114558142Y-94791928D01*
X114486714Y-94720500D01*
X114343857Y-94649071D01*
X114129571Y-94649071D01*
X113986714Y-94720500D01*
X113915285Y-94791928D01*
X113843857Y-94934785D01*
X113843857Y-95363357D01*
X113915285Y-95506214D01*
X113986714Y-95577642D01*
X114129571Y-95649071D01*
X114343857Y-95649071D01*
X120078428Y-98125642D02*
X118935571Y-98125642D01*
X119824428Y-95077642D02*
X118681571Y-95077642D01*
X119253000Y-95649071D02*
X119253000Y-94506214D01*
X113557857Y-104261357D02*
X113343571Y-104332785D01*
X113272142Y-104404214D01*
X113200714Y-104547071D01*
X113200714Y-104761357D01*
X113272142Y-104904214D01*
X113343571Y-104975642D01*
X113486428Y-105047071D01*
X114057857Y-105047071D01*
X114057857Y-103547071D01*
X113557857Y-103547071D01*
X113415000Y-103618500D01*
X113343571Y-103689928D01*
X113272142Y-103832785D01*
X113272142Y-103975642D01*
X113343571Y-104118500D01*
X113415000Y-104189928D01*
X113557857Y-104261357D01*
X114057857Y-104261357D01*
X118848142Y-85060500D02*
X118133857Y-85060500D01*
X118991000Y-85489071D02*
X118491000Y-83989071D01*
X117991000Y-85489071D01*
X123420142Y-104618500D02*
X122705857Y-104618500D01*
X123563000Y-105047071D02*
X123063000Y-103547071D01*
X122563000Y-105047071D01*
D11*
G04 #@! TO.C,TP2*
X114505000Y-106068500D02*
X117905000Y-106068500D01*
X117905000Y-106068500D02*
X117905000Y-102668500D01*
X117905000Y-102668500D02*
X114505000Y-102668500D01*
X114505000Y-102668500D02*
X114505000Y-106068500D01*
G04 #@! TO.C,C3*
X115051721Y-87098500D02*
X115377279Y-87098500D01*
X115051721Y-86078500D02*
X115377279Y-86078500D01*
G04 #@! TO.C,C6*
X116524721Y-96238500D02*
X116850279Y-96238500D01*
X116524721Y-97258500D02*
X116850279Y-97258500D01*
D12*
G04 #@! TO.C,U3*
X120987000Y-87897500D02*
X120987000Y-88102500D01*
X115487000Y-87897500D02*
X115487000Y-88197500D01*
X115487000Y-93407500D02*
X115487000Y-93107500D01*
X120987000Y-93407500D02*
X120987000Y-93107500D01*
X120987000Y-87897500D02*
X115487000Y-87897500D01*
X120987000Y-93407500D02*
X115487000Y-93407500D01*
X120987000Y-88102500D02*
X122737000Y-88102500D01*
D11*
G04 #@! TO.C,U5*
X118413000Y-99296500D02*
X118413000Y-97796500D01*
X118413000Y-97796500D02*
X117213000Y-97796500D01*
X116213000Y-101416500D02*
X117213000Y-101416500D01*
X117963000Y-98176500D02*
X115593000Y-98176500D01*
G04 #@! TO.C,TP1*
X118823000Y-102668500D02*
X118823000Y-106068500D01*
X122223000Y-102668500D02*
X118823000Y-102668500D01*
X122223000Y-106068500D02*
X122223000Y-102668500D01*
X118823000Y-106068500D02*
X122223000Y-106068500D01*
G04 #@! TO.C,TP3*
X123747000Y-94286500D02*
X120347000Y-94286500D01*
X123747000Y-97686500D02*
X123747000Y-94286500D01*
X120347000Y-97686500D02*
X123747000Y-97686500D01*
X120347000Y-94286500D02*
X120347000Y-97686500D01*
G04 #@! TO.C,TP4*
X119077000Y-98604500D02*
X119077000Y-102004500D01*
X119077000Y-102004500D02*
X122477000Y-102004500D01*
X122477000Y-102004500D02*
X122477000Y-98604500D01*
X122477000Y-98604500D02*
X119077000Y-98604500D01*
G04 #@! TO.C,TP1*
X116791000Y-83716500D02*
X120191000Y-83716500D01*
X120191000Y-83716500D02*
X120191000Y-80316500D01*
X120191000Y-80316500D02*
X116791000Y-80316500D01*
X116791000Y-80316500D02*
X116791000Y-83716500D01*
G04 #@! TD*
M02*
