G04 #@! TF.GenerationSoftware,KiCad,Pcbnew,(5.0.2)-1*
G04 #@! TF.CreationDate,2018-12-23T16:39:48-05:00*
G04 #@! TF.ProjectId,cardEmulator,63617264-456d-4756-9c61-746f722e6b69,rev?*
G04 #@! TF.SameCoordinates,Original*
G04 #@! TF.FileFunction,Paste,Bot*
G04 #@! TF.FilePolarity,Positive*
%FSLAX46Y46*%
G04 Gerber Fmt 4.6, Leading zero omitted, Abs format (unit mm)*
G04 Created by KiCad (PCBNEW (5.0.2)-1) date 12/23/2018 4:39:48 PM*
%MOMM*%
%LPD*%
G01*
G04 APERTURE LIST*
%ADD10C,0.100000*%
%ADD11C,0.875000*%
%ADD12R,1.700000X0.650000*%
%ADD13R,0.500000X0.250000*%
%ADD14R,0.950000X1.170000*%
G04 APERTURE END LIST*
D10*
G04 #@! TO.C,C3*
G36*
X114667191Y-86114553D02*
X114688426Y-86117703D01*
X114709250Y-86122919D01*
X114729462Y-86130151D01*
X114748868Y-86139330D01*
X114767281Y-86150366D01*
X114784524Y-86163154D01*
X114800430Y-86177570D01*
X114814846Y-86193476D01*
X114827634Y-86210719D01*
X114838670Y-86229132D01*
X114847849Y-86248538D01*
X114855081Y-86268750D01*
X114860297Y-86289574D01*
X114863447Y-86310809D01*
X114864500Y-86332250D01*
X114864500Y-86844750D01*
X114863447Y-86866191D01*
X114860297Y-86887426D01*
X114855081Y-86908250D01*
X114847849Y-86928462D01*
X114838670Y-86947868D01*
X114827634Y-86966281D01*
X114814846Y-86983524D01*
X114800430Y-86999430D01*
X114784524Y-87013846D01*
X114767281Y-87026634D01*
X114748868Y-87037670D01*
X114729462Y-87046849D01*
X114709250Y-87054081D01*
X114688426Y-87059297D01*
X114667191Y-87062447D01*
X114645750Y-87063500D01*
X114208250Y-87063500D01*
X114186809Y-87062447D01*
X114165574Y-87059297D01*
X114144750Y-87054081D01*
X114124538Y-87046849D01*
X114105132Y-87037670D01*
X114086719Y-87026634D01*
X114069476Y-87013846D01*
X114053570Y-86999430D01*
X114039154Y-86983524D01*
X114026366Y-86966281D01*
X114015330Y-86947868D01*
X114006151Y-86928462D01*
X113998919Y-86908250D01*
X113993703Y-86887426D01*
X113990553Y-86866191D01*
X113989500Y-86844750D01*
X113989500Y-86332250D01*
X113990553Y-86310809D01*
X113993703Y-86289574D01*
X113998919Y-86268750D01*
X114006151Y-86248538D01*
X114015330Y-86229132D01*
X114026366Y-86210719D01*
X114039154Y-86193476D01*
X114053570Y-86177570D01*
X114069476Y-86163154D01*
X114086719Y-86150366D01*
X114105132Y-86139330D01*
X114124538Y-86130151D01*
X114144750Y-86122919D01*
X114165574Y-86117703D01*
X114186809Y-86114553D01*
X114208250Y-86113500D01*
X114645750Y-86113500D01*
X114667191Y-86114553D01*
X114667191Y-86114553D01*
G37*
D11*
X114427000Y-86588500D03*
D10*
G36*
X116242191Y-86114553D02*
X116263426Y-86117703D01*
X116284250Y-86122919D01*
X116304462Y-86130151D01*
X116323868Y-86139330D01*
X116342281Y-86150366D01*
X116359524Y-86163154D01*
X116375430Y-86177570D01*
X116389846Y-86193476D01*
X116402634Y-86210719D01*
X116413670Y-86229132D01*
X116422849Y-86248538D01*
X116430081Y-86268750D01*
X116435297Y-86289574D01*
X116438447Y-86310809D01*
X116439500Y-86332250D01*
X116439500Y-86844750D01*
X116438447Y-86866191D01*
X116435297Y-86887426D01*
X116430081Y-86908250D01*
X116422849Y-86928462D01*
X116413670Y-86947868D01*
X116402634Y-86966281D01*
X116389846Y-86983524D01*
X116375430Y-86999430D01*
X116359524Y-87013846D01*
X116342281Y-87026634D01*
X116323868Y-87037670D01*
X116304462Y-87046849D01*
X116284250Y-87054081D01*
X116263426Y-87059297D01*
X116242191Y-87062447D01*
X116220750Y-87063500D01*
X115783250Y-87063500D01*
X115761809Y-87062447D01*
X115740574Y-87059297D01*
X115719750Y-87054081D01*
X115699538Y-87046849D01*
X115680132Y-87037670D01*
X115661719Y-87026634D01*
X115644476Y-87013846D01*
X115628570Y-86999430D01*
X115614154Y-86983524D01*
X115601366Y-86966281D01*
X115590330Y-86947868D01*
X115581151Y-86928462D01*
X115573919Y-86908250D01*
X115568703Y-86887426D01*
X115565553Y-86866191D01*
X115564500Y-86844750D01*
X115564500Y-86332250D01*
X115565553Y-86310809D01*
X115568703Y-86289574D01*
X115573919Y-86268750D01*
X115581151Y-86248538D01*
X115590330Y-86229132D01*
X115601366Y-86210719D01*
X115614154Y-86193476D01*
X115628570Y-86177570D01*
X115644476Y-86163154D01*
X115661719Y-86150366D01*
X115680132Y-86139330D01*
X115699538Y-86130151D01*
X115719750Y-86122919D01*
X115740574Y-86117703D01*
X115761809Y-86114553D01*
X115783250Y-86113500D01*
X116220750Y-86113500D01*
X116242191Y-86114553D01*
X116242191Y-86114553D01*
G37*
D11*
X116002000Y-86588500D03*
G04 #@! TD*
D10*
G04 #@! TO.C,C6*
G36*
X117715191Y-96274553D02*
X117736426Y-96277703D01*
X117757250Y-96282919D01*
X117777462Y-96290151D01*
X117796868Y-96299330D01*
X117815281Y-96310366D01*
X117832524Y-96323154D01*
X117848430Y-96337570D01*
X117862846Y-96353476D01*
X117875634Y-96370719D01*
X117886670Y-96389132D01*
X117895849Y-96408538D01*
X117903081Y-96428750D01*
X117908297Y-96449574D01*
X117911447Y-96470809D01*
X117912500Y-96492250D01*
X117912500Y-97004750D01*
X117911447Y-97026191D01*
X117908297Y-97047426D01*
X117903081Y-97068250D01*
X117895849Y-97088462D01*
X117886670Y-97107868D01*
X117875634Y-97126281D01*
X117862846Y-97143524D01*
X117848430Y-97159430D01*
X117832524Y-97173846D01*
X117815281Y-97186634D01*
X117796868Y-97197670D01*
X117777462Y-97206849D01*
X117757250Y-97214081D01*
X117736426Y-97219297D01*
X117715191Y-97222447D01*
X117693750Y-97223500D01*
X117256250Y-97223500D01*
X117234809Y-97222447D01*
X117213574Y-97219297D01*
X117192750Y-97214081D01*
X117172538Y-97206849D01*
X117153132Y-97197670D01*
X117134719Y-97186634D01*
X117117476Y-97173846D01*
X117101570Y-97159430D01*
X117087154Y-97143524D01*
X117074366Y-97126281D01*
X117063330Y-97107868D01*
X117054151Y-97088462D01*
X117046919Y-97068250D01*
X117041703Y-97047426D01*
X117038553Y-97026191D01*
X117037500Y-97004750D01*
X117037500Y-96492250D01*
X117038553Y-96470809D01*
X117041703Y-96449574D01*
X117046919Y-96428750D01*
X117054151Y-96408538D01*
X117063330Y-96389132D01*
X117074366Y-96370719D01*
X117087154Y-96353476D01*
X117101570Y-96337570D01*
X117117476Y-96323154D01*
X117134719Y-96310366D01*
X117153132Y-96299330D01*
X117172538Y-96290151D01*
X117192750Y-96282919D01*
X117213574Y-96277703D01*
X117234809Y-96274553D01*
X117256250Y-96273500D01*
X117693750Y-96273500D01*
X117715191Y-96274553D01*
X117715191Y-96274553D01*
G37*
D11*
X117475000Y-96748500D03*
D10*
G36*
X116140191Y-96274553D02*
X116161426Y-96277703D01*
X116182250Y-96282919D01*
X116202462Y-96290151D01*
X116221868Y-96299330D01*
X116240281Y-96310366D01*
X116257524Y-96323154D01*
X116273430Y-96337570D01*
X116287846Y-96353476D01*
X116300634Y-96370719D01*
X116311670Y-96389132D01*
X116320849Y-96408538D01*
X116328081Y-96428750D01*
X116333297Y-96449574D01*
X116336447Y-96470809D01*
X116337500Y-96492250D01*
X116337500Y-97004750D01*
X116336447Y-97026191D01*
X116333297Y-97047426D01*
X116328081Y-97068250D01*
X116320849Y-97088462D01*
X116311670Y-97107868D01*
X116300634Y-97126281D01*
X116287846Y-97143524D01*
X116273430Y-97159430D01*
X116257524Y-97173846D01*
X116240281Y-97186634D01*
X116221868Y-97197670D01*
X116202462Y-97206849D01*
X116182250Y-97214081D01*
X116161426Y-97219297D01*
X116140191Y-97222447D01*
X116118750Y-97223500D01*
X115681250Y-97223500D01*
X115659809Y-97222447D01*
X115638574Y-97219297D01*
X115617750Y-97214081D01*
X115597538Y-97206849D01*
X115578132Y-97197670D01*
X115559719Y-97186634D01*
X115542476Y-97173846D01*
X115526570Y-97159430D01*
X115512154Y-97143524D01*
X115499366Y-97126281D01*
X115488330Y-97107868D01*
X115479151Y-97088462D01*
X115471919Y-97068250D01*
X115466703Y-97047426D01*
X115463553Y-97026191D01*
X115462500Y-97004750D01*
X115462500Y-96492250D01*
X115463553Y-96470809D01*
X115466703Y-96449574D01*
X115471919Y-96428750D01*
X115479151Y-96408538D01*
X115488330Y-96389132D01*
X115499366Y-96370719D01*
X115512154Y-96353476D01*
X115526570Y-96337570D01*
X115542476Y-96323154D01*
X115559719Y-96310366D01*
X115578132Y-96299330D01*
X115597538Y-96290151D01*
X115617750Y-96282919D01*
X115638574Y-96277703D01*
X115659809Y-96274553D01*
X115681250Y-96273500D01*
X116118750Y-96273500D01*
X116140191Y-96274553D01*
X116140191Y-96274553D01*
G37*
D11*
X115900000Y-96748500D03*
G04 #@! TD*
D12*
G04 #@! TO.C,U3*
X121887000Y-88747500D03*
X121887000Y-90017500D03*
X121887000Y-91287500D03*
X121887000Y-92557500D03*
X114587000Y-92557500D03*
X114587000Y-91287500D03*
X114587000Y-90017500D03*
X114587000Y-88747500D03*
G04 #@! TD*
D13*
G04 #@! TO.C,U5*
X117663000Y-98546500D03*
X117663000Y-99046500D03*
X117663000Y-99546500D03*
X117663000Y-100046500D03*
X117663000Y-100546500D03*
X117663000Y-101046500D03*
X115763000Y-101046500D03*
X115763000Y-100546500D03*
X115763000Y-100046500D03*
X115763000Y-99546500D03*
X115763000Y-99046500D03*
X115763000Y-98546500D03*
D14*
X116713000Y-100481500D03*
X116713000Y-99111500D03*
G04 #@! TD*
M02*
