G04 #@! TF.GenerationSoftware,KiCad,Pcbnew,(5.0.2)-1*
G04 #@! TF.CreationDate,2018-12-23T16:39:48-05:00*
G04 #@! TF.ProjectId,cardEmulator,63617264-456d-4756-9c61-746f722e6b69,rev?*
G04 #@! TF.SameCoordinates,Original*
G04 #@! TF.FileFunction,Soldermask,Bot*
G04 #@! TF.FilePolarity,Negative*
%FSLAX46Y46*%
G04 Gerber Fmt 4.6, Leading zero omitted, Abs format (unit mm)*
G04 Created by KiCad (PCBNEW (5.0.2)-1) date 12/23/2018 4:39:48 PM*
%MOMM*%
%LPD*%
G01*
G04 APERTURE LIST*
%ADD10C,0.100000*%
G04 APERTURE END LIST*
D10*
G36*
X122073800Y-105919300D02*
X118972200Y-105919300D01*
X118972200Y-102817700D01*
X122073800Y-102817700D01*
X122073800Y-105919300D01*
X122073800Y-105919300D01*
G37*
G36*
X117755800Y-105919300D02*
X114654200Y-105919300D01*
X114654200Y-102817700D01*
X117755800Y-102817700D01*
X117755800Y-105919300D01*
X117755800Y-105919300D01*
G37*
G36*
X122327800Y-101855300D02*
X119226200Y-101855300D01*
X119226200Y-98753700D01*
X122327800Y-98753700D01*
X122327800Y-101855300D01*
X122327800Y-101855300D01*
G37*
G36*
X116063800Y-101222300D02*
X115462200Y-101222300D01*
X115462200Y-100870700D01*
X116063800Y-100870700D01*
X116063800Y-101222300D01*
X116063800Y-101222300D01*
G37*
G36*
X117963800Y-101222300D02*
X117362200Y-101222300D01*
X117362200Y-100870700D01*
X117963800Y-100870700D01*
X117963800Y-101222300D01*
X117963800Y-101222300D01*
G37*
G36*
X117263800Y-101172300D02*
X116162200Y-101172300D01*
X116162200Y-98420700D01*
X117263800Y-98420700D01*
X117263800Y-101172300D01*
X117263800Y-101172300D01*
G37*
G36*
X116063800Y-100722300D02*
X115462200Y-100722300D01*
X115462200Y-100370700D01*
X116063800Y-100370700D01*
X116063800Y-100722300D01*
X116063800Y-100722300D01*
G37*
G36*
X117963800Y-100722300D02*
X117362200Y-100722300D01*
X117362200Y-100370700D01*
X117963800Y-100370700D01*
X117963800Y-100722300D01*
X117963800Y-100722300D01*
G37*
G36*
X117963800Y-100222300D02*
X117362200Y-100222300D01*
X117362200Y-99870700D01*
X117963800Y-99870700D01*
X117963800Y-100222300D01*
X117963800Y-100222300D01*
G37*
G36*
X116063800Y-100222300D02*
X115462200Y-100222300D01*
X115462200Y-99870700D01*
X116063800Y-99870700D01*
X116063800Y-100222300D01*
X116063800Y-100222300D01*
G37*
G36*
X116063800Y-99722300D02*
X115462200Y-99722300D01*
X115462200Y-99370700D01*
X116063800Y-99370700D01*
X116063800Y-99722300D01*
X116063800Y-99722300D01*
G37*
G36*
X117963800Y-99722300D02*
X117362200Y-99722300D01*
X117362200Y-99370700D01*
X117963800Y-99370700D01*
X117963800Y-99722300D01*
X117963800Y-99722300D01*
G37*
G36*
X117963800Y-99222300D02*
X117362200Y-99222300D01*
X117362200Y-98870700D01*
X117963800Y-98870700D01*
X117963800Y-99222300D01*
X117963800Y-99222300D01*
G37*
G36*
X116063800Y-99222300D02*
X115462200Y-99222300D01*
X115462200Y-98870700D01*
X116063800Y-98870700D01*
X116063800Y-99222300D01*
X116063800Y-99222300D01*
G37*
G36*
X117963800Y-98722300D02*
X117362200Y-98722300D01*
X117362200Y-98370700D01*
X117963800Y-98370700D01*
X117963800Y-98722300D01*
X117963800Y-98722300D01*
G37*
G36*
X116063800Y-98722300D02*
X115462200Y-98722300D01*
X115462200Y-98370700D01*
X116063800Y-98370700D01*
X116063800Y-98722300D01*
X116063800Y-98722300D01*
G37*
G36*
X123597800Y-97537300D02*
X120496200Y-97537300D01*
X120496200Y-94435700D01*
X123597800Y-94435700D01*
X123597800Y-97537300D01*
X123597800Y-97537300D01*
G37*
G36*
X117776981Y-96227268D02*
X117820375Y-96240432D01*
X117860368Y-96261809D01*
X117895423Y-96290577D01*
X117924191Y-96325632D01*
X117945568Y-96365625D01*
X117958732Y-96409019D01*
X117963300Y-96455400D01*
X117963300Y-97041600D01*
X117958732Y-97087981D01*
X117945568Y-97131375D01*
X117924191Y-97171368D01*
X117895423Y-97206423D01*
X117860368Y-97235191D01*
X117820375Y-97256568D01*
X117776981Y-97269732D01*
X117730600Y-97274300D01*
X117219400Y-97274300D01*
X117173019Y-97269732D01*
X117129625Y-97256568D01*
X117089632Y-97235191D01*
X117054577Y-97206423D01*
X117025809Y-97171368D01*
X117004432Y-97131375D01*
X116991268Y-97087981D01*
X116986700Y-97041600D01*
X116986700Y-96455400D01*
X116991268Y-96409019D01*
X117004432Y-96365625D01*
X117025809Y-96325632D01*
X117054577Y-96290577D01*
X117089632Y-96261809D01*
X117129625Y-96240432D01*
X117173019Y-96227268D01*
X117219400Y-96222700D01*
X117730600Y-96222700D01*
X117776981Y-96227268D01*
X117776981Y-96227268D01*
G37*
G36*
X116201981Y-96227268D02*
X116245375Y-96240432D01*
X116285368Y-96261809D01*
X116320423Y-96290577D01*
X116349191Y-96325632D01*
X116370568Y-96365625D01*
X116383732Y-96409019D01*
X116388300Y-96455400D01*
X116388300Y-97041600D01*
X116383732Y-97087981D01*
X116370568Y-97131375D01*
X116349191Y-97171368D01*
X116320423Y-97206423D01*
X116285368Y-97235191D01*
X116245375Y-97256568D01*
X116201981Y-97269732D01*
X116155600Y-97274300D01*
X115644400Y-97274300D01*
X115598019Y-97269732D01*
X115554625Y-97256568D01*
X115514632Y-97235191D01*
X115479577Y-97206423D01*
X115450809Y-97171368D01*
X115429432Y-97131375D01*
X115416268Y-97087981D01*
X115411700Y-97041600D01*
X115411700Y-96455400D01*
X115416268Y-96409019D01*
X115429432Y-96365625D01*
X115450809Y-96325632D01*
X115479577Y-96290577D01*
X115514632Y-96261809D01*
X115554625Y-96240432D01*
X115598019Y-96227268D01*
X115644400Y-96222700D01*
X116155600Y-96222700D01*
X116201981Y-96227268D01*
X116201981Y-96227268D01*
G37*
G36*
X115487800Y-92933300D02*
X113686200Y-92933300D01*
X113686200Y-92181700D01*
X115487800Y-92181700D01*
X115487800Y-92933300D01*
X115487800Y-92933300D01*
G37*
G36*
X122787800Y-92933300D02*
X120986200Y-92933300D01*
X120986200Y-92181700D01*
X122787800Y-92181700D01*
X122787800Y-92933300D01*
X122787800Y-92933300D01*
G37*
G36*
X122787800Y-91663300D02*
X120986200Y-91663300D01*
X120986200Y-90911700D01*
X122787800Y-90911700D01*
X122787800Y-91663300D01*
X122787800Y-91663300D01*
G37*
G36*
X115487800Y-91663300D02*
X113686200Y-91663300D01*
X113686200Y-90911700D01*
X115487800Y-90911700D01*
X115487800Y-91663300D01*
X115487800Y-91663300D01*
G37*
G36*
X115487800Y-90393300D02*
X113686200Y-90393300D01*
X113686200Y-89641700D01*
X115487800Y-89641700D01*
X115487800Y-90393300D01*
X115487800Y-90393300D01*
G37*
G36*
X122787800Y-90393300D02*
X120986200Y-90393300D01*
X120986200Y-89641700D01*
X122787800Y-89641700D01*
X122787800Y-90393300D01*
X122787800Y-90393300D01*
G37*
G36*
X122787800Y-89123300D02*
X120986200Y-89123300D01*
X120986200Y-88371700D01*
X122787800Y-88371700D01*
X122787800Y-89123300D01*
X122787800Y-89123300D01*
G37*
G36*
X115487800Y-89123300D02*
X113686200Y-89123300D01*
X113686200Y-88371700D01*
X115487800Y-88371700D01*
X115487800Y-89123300D01*
X115487800Y-89123300D01*
G37*
G36*
X114728981Y-86067268D02*
X114772375Y-86080432D01*
X114812368Y-86101809D01*
X114847423Y-86130577D01*
X114876191Y-86165632D01*
X114897568Y-86205625D01*
X114910732Y-86249019D01*
X114915300Y-86295400D01*
X114915300Y-86881600D01*
X114910732Y-86927981D01*
X114897568Y-86971375D01*
X114876191Y-87011368D01*
X114847423Y-87046423D01*
X114812368Y-87075191D01*
X114772375Y-87096568D01*
X114728981Y-87109732D01*
X114682600Y-87114300D01*
X114171400Y-87114300D01*
X114125019Y-87109732D01*
X114081625Y-87096568D01*
X114041632Y-87075191D01*
X114006577Y-87046423D01*
X113977809Y-87011368D01*
X113956432Y-86971375D01*
X113943268Y-86927981D01*
X113938700Y-86881600D01*
X113938700Y-86295400D01*
X113943268Y-86249019D01*
X113956432Y-86205625D01*
X113977809Y-86165632D01*
X114006577Y-86130577D01*
X114041632Y-86101809D01*
X114081625Y-86080432D01*
X114125019Y-86067268D01*
X114171400Y-86062700D01*
X114682600Y-86062700D01*
X114728981Y-86067268D01*
X114728981Y-86067268D01*
G37*
G36*
X116303981Y-86067268D02*
X116347375Y-86080432D01*
X116387368Y-86101809D01*
X116422423Y-86130577D01*
X116451191Y-86165632D01*
X116472568Y-86205625D01*
X116485732Y-86249019D01*
X116490300Y-86295400D01*
X116490300Y-86881600D01*
X116485732Y-86927981D01*
X116472568Y-86971375D01*
X116451191Y-87011368D01*
X116422423Y-87046423D01*
X116387368Y-87075191D01*
X116347375Y-87096568D01*
X116303981Y-87109732D01*
X116257600Y-87114300D01*
X115746400Y-87114300D01*
X115700019Y-87109732D01*
X115656625Y-87096568D01*
X115616632Y-87075191D01*
X115581577Y-87046423D01*
X115552809Y-87011368D01*
X115531432Y-86971375D01*
X115518268Y-86927981D01*
X115513700Y-86881600D01*
X115513700Y-86295400D01*
X115518268Y-86249019D01*
X115531432Y-86205625D01*
X115552809Y-86165632D01*
X115581577Y-86130577D01*
X115616632Y-86101809D01*
X115656625Y-86080432D01*
X115700019Y-86067268D01*
X115746400Y-86062700D01*
X116257600Y-86062700D01*
X116303981Y-86067268D01*
X116303981Y-86067268D01*
G37*
G36*
X121288293Y-83716513D02*
X121358886Y-83745754D01*
X121429481Y-83774995D01*
X121556111Y-83859608D01*
X121556544Y-83859897D01*
X121664603Y-83967956D01*
X121664605Y-83967959D01*
X121749505Y-84095019D01*
X121778746Y-84165614D01*
X121807987Y-84236207D01*
X121837800Y-84386090D01*
X121837800Y-84538910D01*
X121807987Y-84688793D01*
X121778746Y-84759386D01*
X121749505Y-84829981D01*
X121664892Y-84956611D01*
X121664603Y-84957044D01*
X121556544Y-85065103D01*
X121556541Y-85065105D01*
X121429481Y-85150005D01*
X121358886Y-85179246D01*
X121288293Y-85208487D01*
X121138410Y-85238300D01*
X120985590Y-85238300D01*
X120835707Y-85208487D01*
X120765114Y-85179246D01*
X120694519Y-85150005D01*
X120567459Y-85065105D01*
X120567456Y-85065103D01*
X120459397Y-84957044D01*
X120459108Y-84956611D01*
X120374495Y-84829981D01*
X120345254Y-84759386D01*
X120316013Y-84688793D01*
X120286200Y-84538910D01*
X120286200Y-84386090D01*
X120316013Y-84236207D01*
X120345254Y-84165614D01*
X120374495Y-84095019D01*
X120459395Y-83967959D01*
X120459397Y-83967956D01*
X120567456Y-83859897D01*
X120567889Y-83859608D01*
X120694519Y-83774995D01*
X120765114Y-83745754D01*
X120835707Y-83716513D01*
X120985590Y-83686700D01*
X121138410Y-83686700D01*
X121288293Y-83716513D01*
X121288293Y-83716513D01*
G37*
G36*
X116288293Y-83716513D02*
X116358886Y-83745754D01*
X116429481Y-83774995D01*
X116556111Y-83859608D01*
X116556544Y-83859897D01*
X116664603Y-83967956D01*
X116664605Y-83967959D01*
X116749505Y-84095019D01*
X116778746Y-84165614D01*
X116807987Y-84236207D01*
X116837800Y-84386090D01*
X116837800Y-84538910D01*
X116807987Y-84688793D01*
X116778746Y-84759386D01*
X116749505Y-84829981D01*
X116664892Y-84956611D01*
X116664603Y-84957044D01*
X116556544Y-85065103D01*
X116556541Y-85065105D01*
X116429481Y-85150005D01*
X116358886Y-85179246D01*
X116288293Y-85208487D01*
X116138410Y-85238300D01*
X115985590Y-85238300D01*
X115835707Y-85208487D01*
X115765114Y-85179246D01*
X115694519Y-85150005D01*
X115567459Y-85065105D01*
X115567456Y-85065103D01*
X115459397Y-84957044D01*
X115459108Y-84956611D01*
X115374495Y-84829981D01*
X115345254Y-84759386D01*
X115316013Y-84688793D01*
X115286200Y-84538910D01*
X115286200Y-84386090D01*
X115316013Y-84236207D01*
X115345254Y-84165614D01*
X115374495Y-84095019D01*
X115459395Y-83967959D01*
X115459397Y-83967956D01*
X115567456Y-83859897D01*
X115567889Y-83859608D01*
X115694519Y-83774995D01*
X115765114Y-83745754D01*
X115835707Y-83716513D01*
X115985590Y-83686700D01*
X116138410Y-83686700D01*
X116288293Y-83716513D01*
X116288293Y-83716513D01*
G37*
G36*
X120041800Y-83567300D02*
X116940200Y-83567300D01*
X116940200Y-80465700D01*
X120041800Y-80465700D01*
X120041800Y-83567300D01*
X120041800Y-83567300D01*
G37*
G36*
X115189579Y-80771117D02*
X115189582Y-80771118D01*
X115312254Y-80808330D01*
X115425314Y-80868762D01*
X115524412Y-80950088D01*
X115605738Y-81049186D01*
X115666170Y-81162246D01*
X115666170Y-81162247D01*
X115703383Y-81284921D01*
X115712800Y-81380537D01*
X115712800Y-82144463D01*
X115703383Y-82240079D01*
X115703382Y-82240081D01*
X115703382Y-82240082D01*
X115666170Y-82362754D01*
X115666169Y-82362755D01*
X115605739Y-82475813D01*
X115605737Y-82475815D01*
X115524411Y-82574911D01*
X115425313Y-82656238D01*
X115312253Y-82716670D01*
X115203608Y-82749627D01*
X115189578Y-82753883D01*
X115062000Y-82766448D01*
X114934421Y-82753883D01*
X114920391Y-82749627D01*
X114811746Y-82716670D01*
X114698686Y-82656238D01*
X114599589Y-82574911D01*
X114518262Y-82475813D01*
X114457830Y-82362753D01*
X114420618Y-82240081D01*
X114420617Y-82240078D01*
X114411200Y-82144462D01*
X114411200Y-81380537D01*
X114420617Y-81284921D01*
X114457831Y-81162245D01*
X114518263Y-81049186D01*
X114518264Y-81049185D01*
X114599589Y-80950088D01*
X114698687Y-80868762D01*
X114811747Y-80808330D01*
X114934419Y-80771118D01*
X114934422Y-80771117D01*
X115062000Y-80758552D01*
X115189579Y-80771117D01*
X115189579Y-80771117D01*
G37*
G36*
X122189578Y-80771117D02*
X122189581Y-80771118D01*
X122312253Y-80808330D01*
X122425313Y-80868762D01*
X122524411Y-80950089D01*
X122605738Y-81049186D01*
X122666170Y-81162246D01*
X122666170Y-81162247D01*
X122703383Y-81284921D01*
X122712800Y-81380537D01*
X122712800Y-82144463D01*
X122703383Y-82240079D01*
X122703382Y-82240081D01*
X122703382Y-82240082D01*
X122666170Y-82362754D01*
X122605738Y-82475814D01*
X122524412Y-82574912D01*
X122425314Y-82656238D01*
X122312254Y-82716670D01*
X122203609Y-82749627D01*
X122189579Y-82753883D01*
X122062000Y-82766448D01*
X121934422Y-82753883D01*
X121920392Y-82749627D01*
X121811747Y-82716670D01*
X121698687Y-82656238D01*
X121599589Y-82574912D01*
X121518263Y-82475814D01*
X121518262Y-82475813D01*
X121457831Y-82362755D01*
X121420617Y-82240079D01*
X121411200Y-82144463D01*
X121411200Y-81380538D01*
X121420617Y-81284922D01*
X121424873Y-81270892D01*
X121457830Y-81162247D01*
X121518262Y-81049187D01*
X121599589Y-80950089D01*
X121698685Y-80868763D01*
X121698684Y-80868763D01*
X121698686Y-80868762D01*
X121755215Y-80838547D01*
X121811746Y-80808330D01*
X121934418Y-80771118D01*
X121934421Y-80771117D01*
X122062000Y-80758552D01*
X122189578Y-80771117D01*
X122189578Y-80771117D01*
G37*
M02*
