G04 #@! TF.GenerationSoftware,KiCad,Pcbnew,(5.0.2)-1*
G04 #@! TF.CreationDate,2018-12-23T16:39:48-05:00*
G04 #@! TF.ProjectId,cardEmulator,63617264-456d-4756-9c61-746f722e6b69,rev?*
G04 #@! TF.SameCoordinates,Original*
G04 #@! TF.FileFunction,Paste,Top*
G04 #@! TF.FilePolarity,Positive*
%FSLAX46Y46*%
G04 Gerber Fmt 4.6, Leading zero omitted, Abs format (unit mm)*
G04 Created by KiCad (PCBNEW (5.0.2)-1) date 12/23/2018 4:39:48 PM*
%MOMM*%
%LPD*%
G01*
G04 APERTURE LIST*
%ADD10R,1.550000X1.300000*%
%ADD11R,1.060000X0.650000*%
%ADD12R,1.500000X1.900000*%
%ADD13R,0.400000X1.350000*%
%ADD14C,0.100000*%
%ADD15C,0.875000*%
%ADD16C,1.250000*%
%ADD17R,0.800000X0.900000*%
%ADD18R,0.760000X0.430000*%
%ADD19R,0.600000X0.450000*%
%ADD20R,2.000000X0.800000*%
G04 APERTURE END LIST*
D10*
G04 #@! TO.C,SW1*
X114427000Y-95914500D03*
X114427000Y-91414500D03*
X122387000Y-91414500D03*
X122387000Y-95914500D03*
G04 #@! TD*
D11*
G04 #@! TO.C,U2*
X120818000Y-88112500D03*
X120818000Y-87162500D03*
X120818000Y-86212500D03*
X118618000Y-86212500D03*
X118618000Y-88112500D03*
G04 #@! TD*
D12*
G04 #@! TO.C,J1*
X117562000Y-81762500D03*
D13*
X119212000Y-84462500D03*
X119862000Y-84462500D03*
X117262000Y-84462500D03*
X117912000Y-84462500D03*
X118562000Y-84462500D03*
D12*
X119562000Y-81762500D03*
G04 #@! TD*
D14*
G04 #@! TO.C,C1*
G36*
X113815691Y-81453053D02*
X113836926Y-81456203D01*
X113857750Y-81461419D01*
X113877962Y-81468651D01*
X113897368Y-81477830D01*
X113915781Y-81488866D01*
X113933024Y-81501654D01*
X113948930Y-81516070D01*
X113963346Y-81531976D01*
X113976134Y-81549219D01*
X113987170Y-81567632D01*
X113996349Y-81587038D01*
X114003581Y-81607250D01*
X114008797Y-81628074D01*
X114011947Y-81649309D01*
X114013000Y-81670750D01*
X114013000Y-82108250D01*
X114011947Y-82129691D01*
X114008797Y-82150926D01*
X114003581Y-82171750D01*
X113996349Y-82191962D01*
X113987170Y-82211368D01*
X113976134Y-82229781D01*
X113963346Y-82247024D01*
X113948930Y-82262930D01*
X113933024Y-82277346D01*
X113915781Y-82290134D01*
X113897368Y-82301170D01*
X113877962Y-82310349D01*
X113857750Y-82317581D01*
X113836926Y-82322797D01*
X113815691Y-82325947D01*
X113794250Y-82327000D01*
X113281750Y-82327000D01*
X113260309Y-82325947D01*
X113239074Y-82322797D01*
X113218250Y-82317581D01*
X113198038Y-82310349D01*
X113178632Y-82301170D01*
X113160219Y-82290134D01*
X113142976Y-82277346D01*
X113127070Y-82262930D01*
X113112654Y-82247024D01*
X113099866Y-82229781D01*
X113088830Y-82211368D01*
X113079651Y-82191962D01*
X113072419Y-82171750D01*
X113067203Y-82150926D01*
X113064053Y-82129691D01*
X113063000Y-82108250D01*
X113063000Y-81670750D01*
X113064053Y-81649309D01*
X113067203Y-81628074D01*
X113072419Y-81607250D01*
X113079651Y-81587038D01*
X113088830Y-81567632D01*
X113099866Y-81549219D01*
X113112654Y-81531976D01*
X113127070Y-81516070D01*
X113142976Y-81501654D01*
X113160219Y-81488866D01*
X113178632Y-81477830D01*
X113198038Y-81468651D01*
X113218250Y-81461419D01*
X113239074Y-81456203D01*
X113260309Y-81453053D01*
X113281750Y-81452000D01*
X113794250Y-81452000D01*
X113815691Y-81453053D01*
X113815691Y-81453053D01*
G37*
D15*
X113538000Y-81889500D03*
D14*
G36*
X113815691Y-83028053D02*
X113836926Y-83031203D01*
X113857750Y-83036419D01*
X113877962Y-83043651D01*
X113897368Y-83052830D01*
X113915781Y-83063866D01*
X113933024Y-83076654D01*
X113948930Y-83091070D01*
X113963346Y-83106976D01*
X113976134Y-83124219D01*
X113987170Y-83142632D01*
X113996349Y-83162038D01*
X114003581Y-83182250D01*
X114008797Y-83203074D01*
X114011947Y-83224309D01*
X114013000Y-83245750D01*
X114013000Y-83683250D01*
X114011947Y-83704691D01*
X114008797Y-83725926D01*
X114003581Y-83746750D01*
X113996349Y-83766962D01*
X113987170Y-83786368D01*
X113976134Y-83804781D01*
X113963346Y-83822024D01*
X113948930Y-83837930D01*
X113933024Y-83852346D01*
X113915781Y-83865134D01*
X113897368Y-83876170D01*
X113877962Y-83885349D01*
X113857750Y-83892581D01*
X113836926Y-83897797D01*
X113815691Y-83900947D01*
X113794250Y-83902000D01*
X113281750Y-83902000D01*
X113260309Y-83900947D01*
X113239074Y-83897797D01*
X113218250Y-83892581D01*
X113198038Y-83885349D01*
X113178632Y-83876170D01*
X113160219Y-83865134D01*
X113142976Y-83852346D01*
X113127070Y-83837930D01*
X113112654Y-83822024D01*
X113099866Y-83804781D01*
X113088830Y-83786368D01*
X113079651Y-83766962D01*
X113072419Y-83746750D01*
X113067203Y-83725926D01*
X113064053Y-83704691D01*
X113063000Y-83683250D01*
X113063000Y-83245750D01*
X113064053Y-83224309D01*
X113067203Y-83203074D01*
X113072419Y-83182250D01*
X113079651Y-83162038D01*
X113088830Y-83142632D01*
X113099866Y-83124219D01*
X113112654Y-83106976D01*
X113127070Y-83091070D01*
X113142976Y-83076654D01*
X113160219Y-83063866D01*
X113178632Y-83052830D01*
X113198038Y-83043651D01*
X113218250Y-83036419D01*
X113239074Y-83031203D01*
X113260309Y-83028053D01*
X113281750Y-83027000D01*
X113794250Y-83027000D01*
X113815691Y-83028053D01*
X113815691Y-83028053D01*
G37*
D15*
X113538000Y-83464500D03*
G04 #@! TD*
D14*
G04 #@! TO.C,C2*
G36*
X115429191Y-103894553D02*
X115450426Y-103897703D01*
X115471250Y-103902919D01*
X115491462Y-103910151D01*
X115510868Y-103919330D01*
X115529281Y-103930366D01*
X115546524Y-103943154D01*
X115562430Y-103957570D01*
X115576846Y-103973476D01*
X115589634Y-103990719D01*
X115600670Y-104009132D01*
X115609849Y-104028538D01*
X115617081Y-104048750D01*
X115622297Y-104069574D01*
X115625447Y-104090809D01*
X115626500Y-104112250D01*
X115626500Y-104624750D01*
X115625447Y-104646191D01*
X115622297Y-104667426D01*
X115617081Y-104688250D01*
X115609849Y-104708462D01*
X115600670Y-104727868D01*
X115589634Y-104746281D01*
X115576846Y-104763524D01*
X115562430Y-104779430D01*
X115546524Y-104793846D01*
X115529281Y-104806634D01*
X115510868Y-104817670D01*
X115491462Y-104826849D01*
X115471250Y-104834081D01*
X115450426Y-104839297D01*
X115429191Y-104842447D01*
X115407750Y-104843500D01*
X114970250Y-104843500D01*
X114948809Y-104842447D01*
X114927574Y-104839297D01*
X114906750Y-104834081D01*
X114886538Y-104826849D01*
X114867132Y-104817670D01*
X114848719Y-104806634D01*
X114831476Y-104793846D01*
X114815570Y-104779430D01*
X114801154Y-104763524D01*
X114788366Y-104746281D01*
X114777330Y-104727868D01*
X114768151Y-104708462D01*
X114760919Y-104688250D01*
X114755703Y-104667426D01*
X114752553Y-104646191D01*
X114751500Y-104624750D01*
X114751500Y-104112250D01*
X114752553Y-104090809D01*
X114755703Y-104069574D01*
X114760919Y-104048750D01*
X114768151Y-104028538D01*
X114777330Y-104009132D01*
X114788366Y-103990719D01*
X114801154Y-103973476D01*
X114815570Y-103957570D01*
X114831476Y-103943154D01*
X114848719Y-103930366D01*
X114867132Y-103919330D01*
X114886538Y-103910151D01*
X114906750Y-103902919D01*
X114927574Y-103897703D01*
X114948809Y-103894553D01*
X114970250Y-103893500D01*
X115407750Y-103893500D01*
X115429191Y-103894553D01*
X115429191Y-103894553D01*
G37*
D15*
X115189000Y-104368500D03*
D14*
G36*
X113854191Y-103894553D02*
X113875426Y-103897703D01*
X113896250Y-103902919D01*
X113916462Y-103910151D01*
X113935868Y-103919330D01*
X113954281Y-103930366D01*
X113971524Y-103943154D01*
X113987430Y-103957570D01*
X114001846Y-103973476D01*
X114014634Y-103990719D01*
X114025670Y-104009132D01*
X114034849Y-104028538D01*
X114042081Y-104048750D01*
X114047297Y-104069574D01*
X114050447Y-104090809D01*
X114051500Y-104112250D01*
X114051500Y-104624750D01*
X114050447Y-104646191D01*
X114047297Y-104667426D01*
X114042081Y-104688250D01*
X114034849Y-104708462D01*
X114025670Y-104727868D01*
X114014634Y-104746281D01*
X114001846Y-104763524D01*
X113987430Y-104779430D01*
X113971524Y-104793846D01*
X113954281Y-104806634D01*
X113935868Y-104817670D01*
X113916462Y-104826849D01*
X113896250Y-104834081D01*
X113875426Y-104839297D01*
X113854191Y-104842447D01*
X113832750Y-104843500D01*
X113395250Y-104843500D01*
X113373809Y-104842447D01*
X113352574Y-104839297D01*
X113331750Y-104834081D01*
X113311538Y-104826849D01*
X113292132Y-104817670D01*
X113273719Y-104806634D01*
X113256476Y-104793846D01*
X113240570Y-104779430D01*
X113226154Y-104763524D01*
X113213366Y-104746281D01*
X113202330Y-104727868D01*
X113193151Y-104708462D01*
X113185919Y-104688250D01*
X113180703Y-104667426D01*
X113177553Y-104646191D01*
X113176500Y-104624750D01*
X113176500Y-104112250D01*
X113177553Y-104090809D01*
X113180703Y-104069574D01*
X113185919Y-104048750D01*
X113193151Y-104028538D01*
X113202330Y-104009132D01*
X113213366Y-103990719D01*
X113226154Y-103973476D01*
X113240570Y-103957570D01*
X113256476Y-103943154D01*
X113273719Y-103930366D01*
X113292132Y-103919330D01*
X113311538Y-103910151D01*
X113331750Y-103902919D01*
X113352574Y-103897703D01*
X113373809Y-103894553D01*
X113395250Y-103893500D01*
X113832750Y-103893500D01*
X113854191Y-103894553D01*
X113854191Y-103894553D01*
G37*
D15*
X113614000Y-104368500D03*
G04 #@! TD*
D14*
G04 #@! TO.C,C4*
G36*
X113905191Y-102370553D02*
X113926426Y-102373703D01*
X113947250Y-102378919D01*
X113967462Y-102386151D01*
X113986868Y-102395330D01*
X114005281Y-102406366D01*
X114022524Y-102419154D01*
X114038430Y-102433570D01*
X114052846Y-102449476D01*
X114065634Y-102466719D01*
X114076670Y-102485132D01*
X114085849Y-102504538D01*
X114093081Y-102524750D01*
X114098297Y-102545574D01*
X114101447Y-102566809D01*
X114102500Y-102588250D01*
X114102500Y-103100750D01*
X114101447Y-103122191D01*
X114098297Y-103143426D01*
X114093081Y-103164250D01*
X114085849Y-103184462D01*
X114076670Y-103203868D01*
X114065634Y-103222281D01*
X114052846Y-103239524D01*
X114038430Y-103255430D01*
X114022524Y-103269846D01*
X114005281Y-103282634D01*
X113986868Y-103293670D01*
X113967462Y-103302849D01*
X113947250Y-103310081D01*
X113926426Y-103315297D01*
X113905191Y-103318447D01*
X113883750Y-103319500D01*
X113446250Y-103319500D01*
X113424809Y-103318447D01*
X113403574Y-103315297D01*
X113382750Y-103310081D01*
X113362538Y-103302849D01*
X113343132Y-103293670D01*
X113324719Y-103282634D01*
X113307476Y-103269846D01*
X113291570Y-103255430D01*
X113277154Y-103239524D01*
X113264366Y-103222281D01*
X113253330Y-103203868D01*
X113244151Y-103184462D01*
X113236919Y-103164250D01*
X113231703Y-103143426D01*
X113228553Y-103122191D01*
X113227500Y-103100750D01*
X113227500Y-102588250D01*
X113228553Y-102566809D01*
X113231703Y-102545574D01*
X113236919Y-102524750D01*
X113244151Y-102504538D01*
X113253330Y-102485132D01*
X113264366Y-102466719D01*
X113277154Y-102449476D01*
X113291570Y-102433570D01*
X113307476Y-102419154D01*
X113324719Y-102406366D01*
X113343132Y-102395330D01*
X113362538Y-102386151D01*
X113382750Y-102378919D01*
X113403574Y-102373703D01*
X113424809Y-102370553D01*
X113446250Y-102369500D01*
X113883750Y-102369500D01*
X113905191Y-102370553D01*
X113905191Y-102370553D01*
G37*
D15*
X113665000Y-102844500D03*
D14*
G36*
X115480191Y-102370553D02*
X115501426Y-102373703D01*
X115522250Y-102378919D01*
X115542462Y-102386151D01*
X115561868Y-102395330D01*
X115580281Y-102406366D01*
X115597524Y-102419154D01*
X115613430Y-102433570D01*
X115627846Y-102449476D01*
X115640634Y-102466719D01*
X115651670Y-102485132D01*
X115660849Y-102504538D01*
X115668081Y-102524750D01*
X115673297Y-102545574D01*
X115676447Y-102566809D01*
X115677500Y-102588250D01*
X115677500Y-103100750D01*
X115676447Y-103122191D01*
X115673297Y-103143426D01*
X115668081Y-103164250D01*
X115660849Y-103184462D01*
X115651670Y-103203868D01*
X115640634Y-103222281D01*
X115627846Y-103239524D01*
X115613430Y-103255430D01*
X115597524Y-103269846D01*
X115580281Y-103282634D01*
X115561868Y-103293670D01*
X115542462Y-103302849D01*
X115522250Y-103310081D01*
X115501426Y-103315297D01*
X115480191Y-103318447D01*
X115458750Y-103319500D01*
X115021250Y-103319500D01*
X114999809Y-103318447D01*
X114978574Y-103315297D01*
X114957750Y-103310081D01*
X114937538Y-103302849D01*
X114918132Y-103293670D01*
X114899719Y-103282634D01*
X114882476Y-103269846D01*
X114866570Y-103255430D01*
X114852154Y-103239524D01*
X114839366Y-103222281D01*
X114828330Y-103203868D01*
X114819151Y-103184462D01*
X114811919Y-103164250D01*
X114806703Y-103143426D01*
X114803553Y-103122191D01*
X114802500Y-103100750D01*
X114802500Y-102588250D01*
X114803553Y-102566809D01*
X114806703Y-102545574D01*
X114811919Y-102524750D01*
X114819151Y-102504538D01*
X114828330Y-102485132D01*
X114839366Y-102466719D01*
X114852154Y-102449476D01*
X114866570Y-102433570D01*
X114882476Y-102419154D01*
X114899719Y-102406366D01*
X114918132Y-102395330D01*
X114937538Y-102386151D01*
X114957750Y-102378919D01*
X114978574Y-102373703D01*
X114999809Y-102370553D01*
X115021250Y-102369500D01*
X115458750Y-102369500D01*
X115480191Y-102370553D01*
X115480191Y-102370553D01*
G37*
D15*
X115240000Y-102844500D03*
G04 #@! TD*
D14*
G04 #@! TO.C,C5*
G36*
X122578691Y-85644053D02*
X122599926Y-85647203D01*
X122620750Y-85652419D01*
X122640962Y-85659651D01*
X122660368Y-85668830D01*
X122678781Y-85679866D01*
X122696024Y-85692654D01*
X122711930Y-85707070D01*
X122726346Y-85722976D01*
X122739134Y-85740219D01*
X122750170Y-85758632D01*
X122759349Y-85778038D01*
X122766581Y-85798250D01*
X122771797Y-85819074D01*
X122774947Y-85840309D01*
X122776000Y-85861750D01*
X122776000Y-86299250D01*
X122774947Y-86320691D01*
X122771797Y-86341926D01*
X122766581Y-86362750D01*
X122759349Y-86382962D01*
X122750170Y-86402368D01*
X122739134Y-86420781D01*
X122726346Y-86438024D01*
X122711930Y-86453930D01*
X122696024Y-86468346D01*
X122678781Y-86481134D01*
X122660368Y-86492170D01*
X122640962Y-86501349D01*
X122620750Y-86508581D01*
X122599926Y-86513797D01*
X122578691Y-86516947D01*
X122557250Y-86518000D01*
X122044750Y-86518000D01*
X122023309Y-86516947D01*
X122002074Y-86513797D01*
X121981250Y-86508581D01*
X121961038Y-86501349D01*
X121941632Y-86492170D01*
X121923219Y-86481134D01*
X121905976Y-86468346D01*
X121890070Y-86453930D01*
X121875654Y-86438024D01*
X121862866Y-86420781D01*
X121851830Y-86402368D01*
X121842651Y-86382962D01*
X121835419Y-86362750D01*
X121830203Y-86341926D01*
X121827053Y-86320691D01*
X121826000Y-86299250D01*
X121826000Y-85861750D01*
X121827053Y-85840309D01*
X121830203Y-85819074D01*
X121835419Y-85798250D01*
X121842651Y-85778038D01*
X121851830Y-85758632D01*
X121862866Y-85740219D01*
X121875654Y-85722976D01*
X121890070Y-85707070D01*
X121905976Y-85692654D01*
X121923219Y-85679866D01*
X121941632Y-85668830D01*
X121961038Y-85659651D01*
X121981250Y-85652419D01*
X122002074Y-85647203D01*
X122023309Y-85644053D01*
X122044750Y-85643000D01*
X122557250Y-85643000D01*
X122578691Y-85644053D01*
X122578691Y-85644053D01*
G37*
D15*
X122301000Y-86080500D03*
D14*
G36*
X122578691Y-87219053D02*
X122599926Y-87222203D01*
X122620750Y-87227419D01*
X122640962Y-87234651D01*
X122660368Y-87243830D01*
X122678781Y-87254866D01*
X122696024Y-87267654D01*
X122711930Y-87282070D01*
X122726346Y-87297976D01*
X122739134Y-87315219D01*
X122750170Y-87333632D01*
X122759349Y-87353038D01*
X122766581Y-87373250D01*
X122771797Y-87394074D01*
X122774947Y-87415309D01*
X122776000Y-87436750D01*
X122776000Y-87874250D01*
X122774947Y-87895691D01*
X122771797Y-87916926D01*
X122766581Y-87937750D01*
X122759349Y-87957962D01*
X122750170Y-87977368D01*
X122739134Y-87995781D01*
X122726346Y-88013024D01*
X122711930Y-88028930D01*
X122696024Y-88043346D01*
X122678781Y-88056134D01*
X122660368Y-88067170D01*
X122640962Y-88076349D01*
X122620750Y-88083581D01*
X122599926Y-88088797D01*
X122578691Y-88091947D01*
X122557250Y-88093000D01*
X122044750Y-88093000D01*
X122023309Y-88091947D01*
X122002074Y-88088797D01*
X121981250Y-88083581D01*
X121961038Y-88076349D01*
X121941632Y-88067170D01*
X121923219Y-88056134D01*
X121905976Y-88043346D01*
X121890070Y-88028930D01*
X121875654Y-88013024D01*
X121862866Y-87995781D01*
X121851830Y-87977368D01*
X121842651Y-87957962D01*
X121835419Y-87937750D01*
X121830203Y-87916926D01*
X121827053Y-87895691D01*
X121826000Y-87874250D01*
X121826000Y-87436750D01*
X121827053Y-87415309D01*
X121830203Y-87394074D01*
X121835419Y-87373250D01*
X121842651Y-87353038D01*
X121851830Y-87333632D01*
X121862866Y-87315219D01*
X121875654Y-87297976D01*
X121890070Y-87282070D01*
X121905976Y-87267654D01*
X121923219Y-87254866D01*
X121941632Y-87243830D01*
X121961038Y-87234651D01*
X121981250Y-87227419D01*
X122002074Y-87222203D01*
X122023309Y-87219053D01*
X122044750Y-87218000D01*
X122557250Y-87218000D01*
X122578691Y-87219053D01*
X122578691Y-87219053D01*
G37*
D15*
X122301000Y-87655500D03*
G04 #@! TD*
D14*
G04 #@! TO.C,C7*
G36*
X114058504Y-97456704D02*
X114082773Y-97460304D01*
X114106571Y-97466265D01*
X114129671Y-97474530D01*
X114151849Y-97485020D01*
X114172893Y-97497633D01*
X114192598Y-97512247D01*
X114210777Y-97528723D01*
X114227253Y-97546902D01*
X114241867Y-97566607D01*
X114254480Y-97587651D01*
X114264970Y-97609829D01*
X114273235Y-97632929D01*
X114279196Y-97656727D01*
X114282796Y-97680996D01*
X114284000Y-97705500D01*
X114284000Y-99855500D01*
X114282796Y-99880004D01*
X114279196Y-99904273D01*
X114273235Y-99928071D01*
X114264970Y-99951171D01*
X114254480Y-99973349D01*
X114241867Y-99994393D01*
X114227253Y-100014098D01*
X114210777Y-100032277D01*
X114192598Y-100048753D01*
X114172893Y-100063367D01*
X114151849Y-100075980D01*
X114129671Y-100086470D01*
X114106571Y-100094735D01*
X114082773Y-100100696D01*
X114058504Y-100104296D01*
X114034000Y-100105500D01*
X113284000Y-100105500D01*
X113259496Y-100104296D01*
X113235227Y-100100696D01*
X113211429Y-100094735D01*
X113188329Y-100086470D01*
X113166151Y-100075980D01*
X113145107Y-100063367D01*
X113125402Y-100048753D01*
X113107223Y-100032277D01*
X113090747Y-100014098D01*
X113076133Y-99994393D01*
X113063520Y-99973349D01*
X113053030Y-99951171D01*
X113044765Y-99928071D01*
X113038804Y-99904273D01*
X113035204Y-99880004D01*
X113034000Y-99855500D01*
X113034000Y-97705500D01*
X113035204Y-97680996D01*
X113038804Y-97656727D01*
X113044765Y-97632929D01*
X113053030Y-97609829D01*
X113063520Y-97587651D01*
X113076133Y-97566607D01*
X113090747Y-97546902D01*
X113107223Y-97528723D01*
X113125402Y-97512247D01*
X113145107Y-97497633D01*
X113166151Y-97485020D01*
X113188329Y-97474530D01*
X113211429Y-97466265D01*
X113235227Y-97460304D01*
X113259496Y-97456704D01*
X113284000Y-97455500D01*
X114034000Y-97455500D01*
X114058504Y-97456704D01*
X114058504Y-97456704D01*
G37*
D16*
X113659000Y-98780500D03*
D14*
G36*
X116858504Y-97456704D02*
X116882773Y-97460304D01*
X116906571Y-97466265D01*
X116929671Y-97474530D01*
X116951849Y-97485020D01*
X116972893Y-97497633D01*
X116992598Y-97512247D01*
X117010777Y-97528723D01*
X117027253Y-97546902D01*
X117041867Y-97566607D01*
X117054480Y-97587651D01*
X117064970Y-97609829D01*
X117073235Y-97632929D01*
X117079196Y-97656727D01*
X117082796Y-97680996D01*
X117084000Y-97705500D01*
X117084000Y-99855500D01*
X117082796Y-99880004D01*
X117079196Y-99904273D01*
X117073235Y-99928071D01*
X117064970Y-99951171D01*
X117054480Y-99973349D01*
X117041867Y-99994393D01*
X117027253Y-100014098D01*
X117010777Y-100032277D01*
X116992598Y-100048753D01*
X116972893Y-100063367D01*
X116951849Y-100075980D01*
X116929671Y-100086470D01*
X116906571Y-100094735D01*
X116882773Y-100100696D01*
X116858504Y-100104296D01*
X116834000Y-100105500D01*
X116084000Y-100105500D01*
X116059496Y-100104296D01*
X116035227Y-100100696D01*
X116011429Y-100094735D01*
X115988329Y-100086470D01*
X115966151Y-100075980D01*
X115945107Y-100063367D01*
X115925402Y-100048753D01*
X115907223Y-100032277D01*
X115890747Y-100014098D01*
X115876133Y-99994393D01*
X115863520Y-99973349D01*
X115853030Y-99951171D01*
X115844765Y-99928071D01*
X115838804Y-99904273D01*
X115835204Y-99880004D01*
X115834000Y-99855500D01*
X115834000Y-97705500D01*
X115835204Y-97680996D01*
X115838804Y-97656727D01*
X115844765Y-97632929D01*
X115853030Y-97609829D01*
X115863520Y-97587651D01*
X115876133Y-97566607D01*
X115890747Y-97546902D01*
X115907223Y-97528723D01*
X115925402Y-97512247D01*
X115945107Y-97497633D01*
X115966151Y-97485020D01*
X115988329Y-97474530D01*
X116011429Y-97466265D01*
X116035227Y-97460304D01*
X116059496Y-97456704D01*
X116084000Y-97455500D01*
X116834000Y-97455500D01*
X116858504Y-97456704D01*
X116858504Y-97456704D01*
G37*
D16*
X116459000Y-98780500D03*
G04 #@! TD*
D14*
G04 #@! TO.C,D1*
G36*
X116318191Y-89289553D02*
X116339426Y-89292703D01*
X116360250Y-89297919D01*
X116380462Y-89305151D01*
X116399868Y-89314330D01*
X116418281Y-89325366D01*
X116435524Y-89338154D01*
X116451430Y-89352570D01*
X116465846Y-89368476D01*
X116478634Y-89385719D01*
X116489670Y-89404132D01*
X116498849Y-89423538D01*
X116506081Y-89443750D01*
X116511297Y-89464574D01*
X116514447Y-89485809D01*
X116515500Y-89507250D01*
X116515500Y-90019750D01*
X116514447Y-90041191D01*
X116511297Y-90062426D01*
X116506081Y-90083250D01*
X116498849Y-90103462D01*
X116489670Y-90122868D01*
X116478634Y-90141281D01*
X116465846Y-90158524D01*
X116451430Y-90174430D01*
X116435524Y-90188846D01*
X116418281Y-90201634D01*
X116399868Y-90212670D01*
X116380462Y-90221849D01*
X116360250Y-90229081D01*
X116339426Y-90234297D01*
X116318191Y-90237447D01*
X116296750Y-90238500D01*
X115859250Y-90238500D01*
X115837809Y-90237447D01*
X115816574Y-90234297D01*
X115795750Y-90229081D01*
X115775538Y-90221849D01*
X115756132Y-90212670D01*
X115737719Y-90201634D01*
X115720476Y-90188846D01*
X115704570Y-90174430D01*
X115690154Y-90158524D01*
X115677366Y-90141281D01*
X115666330Y-90122868D01*
X115657151Y-90103462D01*
X115649919Y-90083250D01*
X115644703Y-90062426D01*
X115641553Y-90041191D01*
X115640500Y-90019750D01*
X115640500Y-89507250D01*
X115641553Y-89485809D01*
X115644703Y-89464574D01*
X115649919Y-89443750D01*
X115657151Y-89423538D01*
X115666330Y-89404132D01*
X115677366Y-89385719D01*
X115690154Y-89368476D01*
X115704570Y-89352570D01*
X115720476Y-89338154D01*
X115737719Y-89325366D01*
X115756132Y-89314330D01*
X115775538Y-89305151D01*
X115795750Y-89297919D01*
X115816574Y-89292703D01*
X115837809Y-89289553D01*
X115859250Y-89288500D01*
X116296750Y-89288500D01*
X116318191Y-89289553D01*
X116318191Y-89289553D01*
G37*
D15*
X116078000Y-89763500D03*
D14*
G36*
X117893191Y-89289553D02*
X117914426Y-89292703D01*
X117935250Y-89297919D01*
X117955462Y-89305151D01*
X117974868Y-89314330D01*
X117993281Y-89325366D01*
X118010524Y-89338154D01*
X118026430Y-89352570D01*
X118040846Y-89368476D01*
X118053634Y-89385719D01*
X118064670Y-89404132D01*
X118073849Y-89423538D01*
X118081081Y-89443750D01*
X118086297Y-89464574D01*
X118089447Y-89485809D01*
X118090500Y-89507250D01*
X118090500Y-90019750D01*
X118089447Y-90041191D01*
X118086297Y-90062426D01*
X118081081Y-90083250D01*
X118073849Y-90103462D01*
X118064670Y-90122868D01*
X118053634Y-90141281D01*
X118040846Y-90158524D01*
X118026430Y-90174430D01*
X118010524Y-90188846D01*
X117993281Y-90201634D01*
X117974868Y-90212670D01*
X117955462Y-90221849D01*
X117935250Y-90229081D01*
X117914426Y-90234297D01*
X117893191Y-90237447D01*
X117871750Y-90238500D01*
X117434250Y-90238500D01*
X117412809Y-90237447D01*
X117391574Y-90234297D01*
X117370750Y-90229081D01*
X117350538Y-90221849D01*
X117331132Y-90212670D01*
X117312719Y-90201634D01*
X117295476Y-90188846D01*
X117279570Y-90174430D01*
X117265154Y-90158524D01*
X117252366Y-90141281D01*
X117241330Y-90122868D01*
X117232151Y-90103462D01*
X117224919Y-90083250D01*
X117219703Y-90062426D01*
X117216553Y-90041191D01*
X117215500Y-90019750D01*
X117215500Y-89507250D01*
X117216553Y-89485809D01*
X117219703Y-89464574D01*
X117224919Y-89443750D01*
X117232151Y-89423538D01*
X117241330Y-89404132D01*
X117252366Y-89385719D01*
X117265154Y-89368476D01*
X117279570Y-89352570D01*
X117295476Y-89338154D01*
X117312719Y-89325366D01*
X117331132Y-89314330D01*
X117350538Y-89305151D01*
X117370750Y-89297919D01*
X117391574Y-89292703D01*
X117412809Y-89289553D01*
X117434250Y-89288500D01*
X117871750Y-89288500D01*
X117893191Y-89289553D01*
X117893191Y-89289553D01*
G37*
D15*
X117653000Y-89763500D03*
G04 #@! TD*
D14*
G04 #@! TO.C,D2*
G36*
X114323691Y-86076053D02*
X114344926Y-86079203D01*
X114365750Y-86084419D01*
X114385962Y-86091651D01*
X114405368Y-86100830D01*
X114423781Y-86111866D01*
X114441024Y-86124654D01*
X114456930Y-86139070D01*
X114471346Y-86154976D01*
X114484134Y-86172219D01*
X114495170Y-86190632D01*
X114504349Y-86210038D01*
X114511581Y-86230250D01*
X114516797Y-86251074D01*
X114519947Y-86272309D01*
X114521000Y-86293750D01*
X114521000Y-86731250D01*
X114519947Y-86752691D01*
X114516797Y-86773926D01*
X114511581Y-86794750D01*
X114504349Y-86814962D01*
X114495170Y-86834368D01*
X114484134Y-86852781D01*
X114471346Y-86870024D01*
X114456930Y-86885930D01*
X114441024Y-86900346D01*
X114423781Y-86913134D01*
X114405368Y-86924170D01*
X114385962Y-86933349D01*
X114365750Y-86940581D01*
X114344926Y-86945797D01*
X114323691Y-86948947D01*
X114302250Y-86950000D01*
X113789750Y-86950000D01*
X113768309Y-86948947D01*
X113747074Y-86945797D01*
X113726250Y-86940581D01*
X113706038Y-86933349D01*
X113686632Y-86924170D01*
X113668219Y-86913134D01*
X113650976Y-86900346D01*
X113635070Y-86885930D01*
X113620654Y-86870024D01*
X113607866Y-86852781D01*
X113596830Y-86834368D01*
X113587651Y-86814962D01*
X113580419Y-86794750D01*
X113575203Y-86773926D01*
X113572053Y-86752691D01*
X113571000Y-86731250D01*
X113571000Y-86293750D01*
X113572053Y-86272309D01*
X113575203Y-86251074D01*
X113580419Y-86230250D01*
X113587651Y-86210038D01*
X113596830Y-86190632D01*
X113607866Y-86172219D01*
X113620654Y-86154976D01*
X113635070Y-86139070D01*
X113650976Y-86124654D01*
X113668219Y-86111866D01*
X113686632Y-86100830D01*
X113706038Y-86091651D01*
X113726250Y-86084419D01*
X113747074Y-86079203D01*
X113768309Y-86076053D01*
X113789750Y-86075000D01*
X114302250Y-86075000D01*
X114323691Y-86076053D01*
X114323691Y-86076053D01*
G37*
D15*
X114046000Y-86512500D03*
D14*
G36*
X114323691Y-84501053D02*
X114344926Y-84504203D01*
X114365750Y-84509419D01*
X114385962Y-84516651D01*
X114405368Y-84525830D01*
X114423781Y-84536866D01*
X114441024Y-84549654D01*
X114456930Y-84564070D01*
X114471346Y-84579976D01*
X114484134Y-84597219D01*
X114495170Y-84615632D01*
X114504349Y-84635038D01*
X114511581Y-84655250D01*
X114516797Y-84676074D01*
X114519947Y-84697309D01*
X114521000Y-84718750D01*
X114521000Y-85156250D01*
X114519947Y-85177691D01*
X114516797Y-85198926D01*
X114511581Y-85219750D01*
X114504349Y-85239962D01*
X114495170Y-85259368D01*
X114484134Y-85277781D01*
X114471346Y-85295024D01*
X114456930Y-85310930D01*
X114441024Y-85325346D01*
X114423781Y-85338134D01*
X114405368Y-85349170D01*
X114385962Y-85358349D01*
X114365750Y-85365581D01*
X114344926Y-85370797D01*
X114323691Y-85373947D01*
X114302250Y-85375000D01*
X113789750Y-85375000D01*
X113768309Y-85373947D01*
X113747074Y-85370797D01*
X113726250Y-85365581D01*
X113706038Y-85358349D01*
X113686632Y-85349170D01*
X113668219Y-85338134D01*
X113650976Y-85325346D01*
X113635070Y-85310930D01*
X113620654Y-85295024D01*
X113607866Y-85277781D01*
X113596830Y-85259368D01*
X113587651Y-85239962D01*
X113580419Y-85219750D01*
X113575203Y-85198926D01*
X113572053Y-85177691D01*
X113571000Y-85156250D01*
X113571000Y-84718750D01*
X113572053Y-84697309D01*
X113575203Y-84676074D01*
X113580419Y-84655250D01*
X113587651Y-84635038D01*
X113596830Y-84615632D01*
X113607866Y-84597219D01*
X113620654Y-84579976D01*
X113635070Y-84564070D01*
X113650976Y-84549654D01*
X113668219Y-84536866D01*
X113686632Y-84525830D01*
X113706038Y-84516651D01*
X113726250Y-84509419D01*
X113747074Y-84504203D01*
X113768309Y-84501053D01*
X113789750Y-84500000D01*
X114302250Y-84500000D01*
X114323691Y-84501053D01*
X114323691Y-84501053D01*
G37*
D15*
X114046000Y-84937500D03*
G04 #@! TD*
D14*
G04 #@! TO.C,D3*
G36*
X114323691Y-87549053D02*
X114344926Y-87552203D01*
X114365750Y-87557419D01*
X114385962Y-87564651D01*
X114405368Y-87573830D01*
X114423781Y-87584866D01*
X114441024Y-87597654D01*
X114456930Y-87612070D01*
X114471346Y-87627976D01*
X114484134Y-87645219D01*
X114495170Y-87663632D01*
X114504349Y-87683038D01*
X114511581Y-87703250D01*
X114516797Y-87724074D01*
X114519947Y-87745309D01*
X114521000Y-87766750D01*
X114521000Y-88204250D01*
X114519947Y-88225691D01*
X114516797Y-88246926D01*
X114511581Y-88267750D01*
X114504349Y-88287962D01*
X114495170Y-88307368D01*
X114484134Y-88325781D01*
X114471346Y-88343024D01*
X114456930Y-88358930D01*
X114441024Y-88373346D01*
X114423781Y-88386134D01*
X114405368Y-88397170D01*
X114385962Y-88406349D01*
X114365750Y-88413581D01*
X114344926Y-88418797D01*
X114323691Y-88421947D01*
X114302250Y-88423000D01*
X113789750Y-88423000D01*
X113768309Y-88421947D01*
X113747074Y-88418797D01*
X113726250Y-88413581D01*
X113706038Y-88406349D01*
X113686632Y-88397170D01*
X113668219Y-88386134D01*
X113650976Y-88373346D01*
X113635070Y-88358930D01*
X113620654Y-88343024D01*
X113607866Y-88325781D01*
X113596830Y-88307368D01*
X113587651Y-88287962D01*
X113580419Y-88267750D01*
X113575203Y-88246926D01*
X113572053Y-88225691D01*
X113571000Y-88204250D01*
X113571000Y-87766750D01*
X113572053Y-87745309D01*
X113575203Y-87724074D01*
X113580419Y-87703250D01*
X113587651Y-87683038D01*
X113596830Y-87663632D01*
X113607866Y-87645219D01*
X113620654Y-87627976D01*
X113635070Y-87612070D01*
X113650976Y-87597654D01*
X113668219Y-87584866D01*
X113686632Y-87573830D01*
X113706038Y-87564651D01*
X113726250Y-87557419D01*
X113747074Y-87552203D01*
X113768309Y-87549053D01*
X113789750Y-87548000D01*
X114302250Y-87548000D01*
X114323691Y-87549053D01*
X114323691Y-87549053D01*
G37*
D15*
X114046000Y-87985500D03*
D14*
G36*
X114323691Y-89124053D02*
X114344926Y-89127203D01*
X114365750Y-89132419D01*
X114385962Y-89139651D01*
X114405368Y-89148830D01*
X114423781Y-89159866D01*
X114441024Y-89172654D01*
X114456930Y-89187070D01*
X114471346Y-89202976D01*
X114484134Y-89220219D01*
X114495170Y-89238632D01*
X114504349Y-89258038D01*
X114511581Y-89278250D01*
X114516797Y-89299074D01*
X114519947Y-89320309D01*
X114521000Y-89341750D01*
X114521000Y-89779250D01*
X114519947Y-89800691D01*
X114516797Y-89821926D01*
X114511581Y-89842750D01*
X114504349Y-89862962D01*
X114495170Y-89882368D01*
X114484134Y-89900781D01*
X114471346Y-89918024D01*
X114456930Y-89933930D01*
X114441024Y-89948346D01*
X114423781Y-89961134D01*
X114405368Y-89972170D01*
X114385962Y-89981349D01*
X114365750Y-89988581D01*
X114344926Y-89993797D01*
X114323691Y-89996947D01*
X114302250Y-89998000D01*
X113789750Y-89998000D01*
X113768309Y-89996947D01*
X113747074Y-89993797D01*
X113726250Y-89988581D01*
X113706038Y-89981349D01*
X113686632Y-89972170D01*
X113668219Y-89961134D01*
X113650976Y-89948346D01*
X113635070Y-89933930D01*
X113620654Y-89918024D01*
X113607866Y-89900781D01*
X113596830Y-89882368D01*
X113587651Y-89862962D01*
X113580419Y-89842750D01*
X113575203Y-89821926D01*
X113572053Y-89800691D01*
X113571000Y-89779250D01*
X113571000Y-89341750D01*
X113572053Y-89320309D01*
X113575203Y-89299074D01*
X113580419Y-89278250D01*
X113587651Y-89258038D01*
X113596830Y-89238632D01*
X113607866Y-89220219D01*
X113620654Y-89202976D01*
X113635070Y-89187070D01*
X113650976Y-89172654D01*
X113668219Y-89159866D01*
X113686632Y-89148830D01*
X113706038Y-89139651D01*
X113726250Y-89132419D01*
X113747074Y-89127203D01*
X113768309Y-89124053D01*
X113789750Y-89123000D01*
X114302250Y-89123000D01*
X114323691Y-89124053D01*
X114323691Y-89124053D01*
G37*
D15*
X114046000Y-89560500D03*
G04 #@! TD*
D14*
G04 #@! TO.C,R1*
G36*
X120509191Y-89162553D02*
X120530426Y-89165703D01*
X120551250Y-89170919D01*
X120571462Y-89178151D01*
X120590868Y-89187330D01*
X120609281Y-89198366D01*
X120626524Y-89211154D01*
X120642430Y-89225570D01*
X120656846Y-89241476D01*
X120669634Y-89258719D01*
X120680670Y-89277132D01*
X120689849Y-89296538D01*
X120697081Y-89316750D01*
X120702297Y-89337574D01*
X120705447Y-89358809D01*
X120706500Y-89380250D01*
X120706500Y-89892750D01*
X120705447Y-89914191D01*
X120702297Y-89935426D01*
X120697081Y-89956250D01*
X120689849Y-89976462D01*
X120680670Y-89995868D01*
X120669634Y-90014281D01*
X120656846Y-90031524D01*
X120642430Y-90047430D01*
X120626524Y-90061846D01*
X120609281Y-90074634D01*
X120590868Y-90085670D01*
X120571462Y-90094849D01*
X120551250Y-90102081D01*
X120530426Y-90107297D01*
X120509191Y-90110447D01*
X120487750Y-90111500D01*
X120050250Y-90111500D01*
X120028809Y-90110447D01*
X120007574Y-90107297D01*
X119986750Y-90102081D01*
X119966538Y-90094849D01*
X119947132Y-90085670D01*
X119928719Y-90074634D01*
X119911476Y-90061846D01*
X119895570Y-90047430D01*
X119881154Y-90031524D01*
X119868366Y-90014281D01*
X119857330Y-89995868D01*
X119848151Y-89976462D01*
X119840919Y-89956250D01*
X119835703Y-89935426D01*
X119832553Y-89914191D01*
X119831500Y-89892750D01*
X119831500Y-89380250D01*
X119832553Y-89358809D01*
X119835703Y-89337574D01*
X119840919Y-89316750D01*
X119848151Y-89296538D01*
X119857330Y-89277132D01*
X119868366Y-89258719D01*
X119881154Y-89241476D01*
X119895570Y-89225570D01*
X119911476Y-89211154D01*
X119928719Y-89198366D01*
X119947132Y-89187330D01*
X119966538Y-89178151D01*
X119986750Y-89170919D01*
X120007574Y-89165703D01*
X120028809Y-89162553D01*
X120050250Y-89161500D01*
X120487750Y-89161500D01*
X120509191Y-89162553D01*
X120509191Y-89162553D01*
G37*
D15*
X120269000Y-89636500D03*
D14*
G36*
X122084191Y-89162553D02*
X122105426Y-89165703D01*
X122126250Y-89170919D01*
X122146462Y-89178151D01*
X122165868Y-89187330D01*
X122184281Y-89198366D01*
X122201524Y-89211154D01*
X122217430Y-89225570D01*
X122231846Y-89241476D01*
X122244634Y-89258719D01*
X122255670Y-89277132D01*
X122264849Y-89296538D01*
X122272081Y-89316750D01*
X122277297Y-89337574D01*
X122280447Y-89358809D01*
X122281500Y-89380250D01*
X122281500Y-89892750D01*
X122280447Y-89914191D01*
X122277297Y-89935426D01*
X122272081Y-89956250D01*
X122264849Y-89976462D01*
X122255670Y-89995868D01*
X122244634Y-90014281D01*
X122231846Y-90031524D01*
X122217430Y-90047430D01*
X122201524Y-90061846D01*
X122184281Y-90074634D01*
X122165868Y-90085670D01*
X122146462Y-90094849D01*
X122126250Y-90102081D01*
X122105426Y-90107297D01*
X122084191Y-90110447D01*
X122062750Y-90111500D01*
X121625250Y-90111500D01*
X121603809Y-90110447D01*
X121582574Y-90107297D01*
X121561750Y-90102081D01*
X121541538Y-90094849D01*
X121522132Y-90085670D01*
X121503719Y-90074634D01*
X121486476Y-90061846D01*
X121470570Y-90047430D01*
X121456154Y-90031524D01*
X121443366Y-90014281D01*
X121432330Y-89995868D01*
X121423151Y-89976462D01*
X121415919Y-89956250D01*
X121410703Y-89935426D01*
X121407553Y-89914191D01*
X121406500Y-89892750D01*
X121406500Y-89380250D01*
X121407553Y-89358809D01*
X121410703Y-89337574D01*
X121415919Y-89316750D01*
X121423151Y-89296538D01*
X121432330Y-89277132D01*
X121443366Y-89258719D01*
X121456154Y-89241476D01*
X121470570Y-89225570D01*
X121486476Y-89211154D01*
X121503719Y-89198366D01*
X121522132Y-89187330D01*
X121541538Y-89178151D01*
X121561750Y-89170919D01*
X121582574Y-89165703D01*
X121603809Y-89162553D01*
X121625250Y-89161500D01*
X122062750Y-89161500D01*
X122084191Y-89162553D01*
X122084191Y-89162553D01*
G37*
D15*
X121844000Y-89636500D03*
G04 #@! TD*
D14*
G04 #@! TO.C,R2*
G36*
X122541191Y-104148553D02*
X122562426Y-104151703D01*
X122583250Y-104156919D01*
X122603462Y-104164151D01*
X122622868Y-104173330D01*
X122641281Y-104184366D01*
X122658524Y-104197154D01*
X122674430Y-104211570D01*
X122688846Y-104227476D01*
X122701634Y-104244719D01*
X122712670Y-104263132D01*
X122721849Y-104282538D01*
X122729081Y-104302750D01*
X122734297Y-104323574D01*
X122737447Y-104344809D01*
X122738500Y-104366250D01*
X122738500Y-104878750D01*
X122737447Y-104900191D01*
X122734297Y-104921426D01*
X122729081Y-104942250D01*
X122721849Y-104962462D01*
X122712670Y-104981868D01*
X122701634Y-105000281D01*
X122688846Y-105017524D01*
X122674430Y-105033430D01*
X122658524Y-105047846D01*
X122641281Y-105060634D01*
X122622868Y-105071670D01*
X122603462Y-105080849D01*
X122583250Y-105088081D01*
X122562426Y-105093297D01*
X122541191Y-105096447D01*
X122519750Y-105097500D01*
X122082250Y-105097500D01*
X122060809Y-105096447D01*
X122039574Y-105093297D01*
X122018750Y-105088081D01*
X121998538Y-105080849D01*
X121979132Y-105071670D01*
X121960719Y-105060634D01*
X121943476Y-105047846D01*
X121927570Y-105033430D01*
X121913154Y-105017524D01*
X121900366Y-105000281D01*
X121889330Y-104981868D01*
X121880151Y-104962462D01*
X121872919Y-104942250D01*
X121867703Y-104921426D01*
X121864553Y-104900191D01*
X121863500Y-104878750D01*
X121863500Y-104366250D01*
X121864553Y-104344809D01*
X121867703Y-104323574D01*
X121872919Y-104302750D01*
X121880151Y-104282538D01*
X121889330Y-104263132D01*
X121900366Y-104244719D01*
X121913154Y-104227476D01*
X121927570Y-104211570D01*
X121943476Y-104197154D01*
X121960719Y-104184366D01*
X121979132Y-104173330D01*
X121998538Y-104164151D01*
X122018750Y-104156919D01*
X122039574Y-104151703D01*
X122060809Y-104148553D01*
X122082250Y-104147500D01*
X122519750Y-104147500D01*
X122541191Y-104148553D01*
X122541191Y-104148553D01*
G37*
D15*
X122301000Y-104622500D03*
D14*
G36*
X120966191Y-104148553D02*
X120987426Y-104151703D01*
X121008250Y-104156919D01*
X121028462Y-104164151D01*
X121047868Y-104173330D01*
X121066281Y-104184366D01*
X121083524Y-104197154D01*
X121099430Y-104211570D01*
X121113846Y-104227476D01*
X121126634Y-104244719D01*
X121137670Y-104263132D01*
X121146849Y-104282538D01*
X121154081Y-104302750D01*
X121159297Y-104323574D01*
X121162447Y-104344809D01*
X121163500Y-104366250D01*
X121163500Y-104878750D01*
X121162447Y-104900191D01*
X121159297Y-104921426D01*
X121154081Y-104942250D01*
X121146849Y-104962462D01*
X121137670Y-104981868D01*
X121126634Y-105000281D01*
X121113846Y-105017524D01*
X121099430Y-105033430D01*
X121083524Y-105047846D01*
X121066281Y-105060634D01*
X121047868Y-105071670D01*
X121028462Y-105080849D01*
X121008250Y-105088081D01*
X120987426Y-105093297D01*
X120966191Y-105096447D01*
X120944750Y-105097500D01*
X120507250Y-105097500D01*
X120485809Y-105096447D01*
X120464574Y-105093297D01*
X120443750Y-105088081D01*
X120423538Y-105080849D01*
X120404132Y-105071670D01*
X120385719Y-105060634D01*
X120368476Y-105047846D01*
X120352570Y-105033430D01*
X120338154Y-105017524D01*
X120325366Y-105000281D01*
X120314330Y-104981868D01*
X120305151Y-104962462D01*
X120297919Y-104942250D01*
X120292703Y-104921426D01*
X120289553Y-104900191D01*
X120288500Y-104878750D01*
X120288500Y-104366250D01*
X120289553Y-104344809D01*
X120292703Y-104323574D01*
X120297919Y-104302750D01*
X120305151Y-104282538D01*
X120314330Y-104263132D01*
X120325366Y-104244719D01*
X120338154Y-104227476D01*
X120352570Y-104211570D01*
X120368476Y-104197154D01*
X120385719Y-104184366D01*
X120404132Y-104173330D01*
X120423538Y-104164151D01*
X120443750Y-104156919D01*
X120464574Y-104151703D01*
X120485809Y-104148553D01*
X120507250Y-104147500D01*
X120944750Y-104147500D01*
X120966191Y-104148553D01*
X120966191Y-104148553D01*
G37*
D15*
X120726000Y-104622500D03*
G04 #@! TD*
D14*
G04 #@! TO.C,R4*
G36*
X121562691Y-97201053D02*
X121583926Y-97204203D01*
X121604750Y-97209419D01*
X121624962Y-97216651D01*
X121644368Y-97225830D01*
X121662781Y-97236866D01*
X121680024Y-97249654D01*
X121695930Y-97264070D01*
X121710346Y-97279976D01*
X121723134Y-97297219D01*
X121734170Y-97315632D01*
X121743349Y-97335038D01*
X121750581Y-97355250D01*
X121755797Y-97376074D01*
X121758947Y-97397309D01*
X121760000Y-97418750D01*
X121760000Y-97856250D01*
X121758947Y-97877691D01*
X121755797Y-97898926D01*
X121750581Y-97919750D01*
X121743349Y-97939962D01*
X121734170Y-97959368D01*
X121723134Y-97977781D01*
X121710346Y-97995024D01*
X121695930Y-98010930D01*
X121680024Y-98025346D01*
X121662781Y-98038134D01*
X121644368Y-98049170D01*
X121624962Y-98058349D01*
X121604750Y-98065581D01*
X121583926Y-98070797D01*
X121562691Y-98073947D01*
X121541250Y-98075000D01*
X121028750Y-98075000D01*
X121007309Y-98073947D01*
X120986074Y-98070797D01*
X120965250Y-98065581D01*
X120945038Y-98058349D01*
X120925632Y-98049170D01*
X120907219Y-98038134D01*
X120889976Y-98025346D01*
X120874070Y-98010930D01*
X120859654Y-97995024D01*
X120846866Y-97977781D01*
X120835830Y-97959368D01*
X120826651Y-97939962D01*
X120819419Y-97919750D01*
X120814203Y-97898926D01*
X120811053Y-97877691D01*
X120810000Y-97856250D01*
X120810000Y-97418750D01*
X120811053Y-97397309D01*
X120814203Y-97376074D01*
X120819419Y-97355250D01*
X120826651Y-97335038D01*
X120835830Y-97315632D01*
X120846866Y-97297219D01*
X120859654Y-97279976D01*
X120874070Y-97264070D01*
X120889976Y-97249654D01*
X120907219Y-97236866D01*
X120925632Y-97225830D01*
X120945038Y-97216651D01*
X120965250Y-97209419D01*
X120986074Y-97204203D01*
X121007309Y-97201053D01*
X121028750Y-97200000D01*
X121541250Y-97200000D01*
X121562691Y-97201053D01*
X121562691Y-97201053D01*
G37*
D15*
X121285000Y-97637500D03*
D14*
G36*
X121562691Y-98776053D02*
X121583926Y-98779203D01*
X121604750Y-98784419D01*
X121624962Y-98791651D01*
X121644368Y-98800830D01*
X121662781Y-98811866D01*
X121680024Y-98824654D01*
X121695930Y-98839070D01*
X121710346Y-98854976D01*
X121723134Y-98872219D01*
X121734170Y-98890632D01*
X121743349Y-98910038D01*
X121750581Y-98930250D01*
X121755797Y-98951074D01*
X121758947Y-98972309D01*
X121760000Y-98993750D01*
X121760000Y-99431250D01*
X121758947Y-99452691D01*
X121755797Y-99473926D01*
X121750581Y-99494750D01*
X121743349Y-99514962D01*
X121734170Y-99534368D01*
X121723134Y-99552781D01*
X121710346Y-99570024D01*
X121695930Y-99585930D01*
X121680024Y-99600346D01*
X121662781Y-99613134D01*
X121644368Y-99624170D01*
X121624962Y-99633349D01*
X121604750Y-99640581D01*
X121583926Y-99645797D01*
X121562691Y-99648947D01*
X121541250Y-99650000D01*
X121028750Y-99650000D01*
X121007309Y-99648947D01*
X120986074Y-99645797D01*
X120965250Y-99640581D01*
X120945038Y-99633349D01*
X120925632Y-99624170D01*
X120907219Y-99613134D01*
X120889976Y-99600346D01*
X120874070Y-99585930D01*
X120859654Y-99570024D01*
X120846866Y-99552781D01*
X120835830Y-99534368D01*
X120826651Y-99514962D01*
X120819419Y-99494750D01*
X120814203Y-99473926D01*
X120811053Y-99452691D01*
X120810000Y-99431250D01*
X120810000Y-98993750D01*
X120811053Y-98972309D01*
X120814203Y-98951074D01*
X120819419Y-98930250D01*
X120826651Y-98910038D01*
X120835830Y-98890632D01*
X120846866Y-98872219D01*
X120859654Y-98854976D01*
X120874070Y-98839070D01*
X120889976Y-98824654D01*
X120907219Y-98811866D01*
X120925632Y-98800830D01*
X120945038Y-98791651D01*
X120965250Y-98784419D01*
X120986074Y-98779203D01*
X121007309Y-98776053D01*
X121028750Y-98775000D01*
X121541250Y-98775000D01*
X121562691Y-98776053D01*
X121562691Y-98776053D01*
G37*
D15*
X121285000Y-99212500D03*
G04 #@! TD*
D14*
G04 #@! TO.C,R7*
G36*
X122705691Y-102459053D02*
X122726926Y-102462203D01*
X122747750Y-102467419D01*
X122767962Y-102474651D01*
X122787368Y-102483830D01*
X122805781Y-102494866D01*
X122823024Y-102507654D01*
X122838930Y-102522070D01*
X122853346Y-102537976D01*
X122866134Y-102555219D01*
X122877170Y-102573632D01*
X122886349Y-102593038D01*
X122893581Y-102613250D01*
X122898797Y-102634074D01*
X122901947Y-102655309D01*
X122903000Y-102676750D01*
X122903000Y-103114250D01*
X122901947Y-103135691D01*
X122898797Y-103156926D01*
X122893581Y-103177750D01*
X122886349Y-103197962D01*
X122877170Y-103217368D01*
X122866134Y-103235781D01*
X122853346Y-103253024D01*
X122838930Y-103268930D01*
X122823024Y-103283346D01*
X122805781Y-103296134D01*
X122787368Y-103307170D01*
X122767962Y-103316349D01*
X122747750Y-103323581D01*
X122726926Y-103328797D01*
X122705691Y-103331947D01*
X122684250Y-103333000D01*
X122171750Y-103333000D01*
X122150309Y-103331947D01*
X122129074Y-103328797D01*
X122108250Y-103323581D01*
X122088038Y-103316349D01*
X122068632Y-103307170D01*
X122050219Y-103296134D01*
X122032976Y-103283346D01*
X122017070Y-103268930D01*
X122002654Y-103253024D01*
X121989866Y-103235781D01*
X121978830Y-103217368D01*
X121969651Y-103197962D01*
X121962419Y-103177750D01*
X121957203Y-103156926D01*
X121954053Y-103135691D01*
X121953000Y-103114250D01*
X121953000Y-102676750D01*
X121954053Y-102655309D01*
X121957203Y-102634074D01*
X121962419Y-102613250D01*
X121969651Y-102593038D01*
X121978830Y-102573632D01*
X121989866Y-102555219D01*
X122002654Y-102537976D01*
X122017070Y-102522070D01*
X122032976Y-102507654D01*
X122050219Y-102494866D01*
X122068632Y-102483830D01*
X122088038Y-102474651D01*
X122108250Y-102467419D01*
X122129074Y-102462203D01*
X122150309Y-102459053D01*
X122171750Y-102458000D01*
X122684250Y-102458000D01*
X122705691Y-102459053D01*
X122705691Y-102459053D01*
G37*
D15*
X122428000Y-102895500D03*
D14*
G36*
X122705691Y-100884053D02*
X122726926Y-100887203D01*
X122747750Y-100892419D01*
X122767962Y-100899651D01*
X122787368Y-100908830D01*
X122805781Y-100919866D01*
X122823024Y-100932654D01*
X122838930Y-100947070D01*
X122853346Y-100962976D01*
X122866134Y-100980219D01*
X122877170Y-100998632D01*
X122886349Y-101018038D01*
X122893581Y-101038250D01*
X122898797Y-101059074D01*
X122901947Y-101080309D01*
X122903000Y-101101750D01*
X122903000Y-101539250D01*
X122901947Y-101560691D01*
X122898797Y-101581926D01*
X122893581Y-101602750D01*
X122886349Y-101622962D01*
X122877170Y-101642368D01*
X122866134Y-101660781D01*
X122853346Y-101678024D01*
X122838930Y-101693930D01*
X122823024Y-101708346D01*
X122805781Y-101721134D01*
X122787368Y-101732170D01*
X122767962Y-101741349D01*
X122747750Y-101748581D01*
X122726926Y-101753797D01*
X122705691Y-101756947D01*
X122684250Y-101758000D01*
X122171750Y-101758000D01*
X122150309Y-101756947D01*
X122129074Y-101753797D01*
X122108250Y-101748581D01*
X122088038Y-101741349D01*
X122068632Y-101732170D01*
X122050219Y-101721134D01*
X122032976Y-101708346D01*
X122017070Y-101693930D01*
X122002654Y-101678024D01*
X121989866Y-101660781D01*
X121978830Y-101642368D01*
X121969651Y-101622962D01*
X121962419Y-101602750D01*
X121957203Y-101581926D01*
X121954053Y-101560691D01*
X121953000Y-101539250D01*
X121953000Y-101101750D01*
X121954053Y-101080309D01*
X121957203Y-101059074D01*
X121962419Y-101038250D01*
X121969651Y-101018038D01*
X121978830Y-100998632D01*
X121989866Y-100980219D01*
X122002654Y-100962976D01*
X122017070Y-100947070D01*
X122032976Y-100932654D01*
X122050219Y-100919866D01*
X122068632Y-100908830D01*
X122088038Y-100899651D01*
X122108250Y-100892419D01*
X122129074Y-100887203D01*
X122150309Y-100884053D01*
X122171750Y-100883000D01*
X122684250Y-100883000D01*
X122705691Y-100884053D01*
X122705691Y-100884053D01*
G37*
D15*
X122428000Y-101320500D03*
G04 #@! TD*
D17*
G04 #@! TO.C,U4*
X119883000Y-97764500D03*
X117983000Y-97764500D03*
X118933000Y-99764500D03*
G04 #@! TD*
D18*
G04 #@! TO.C,RN1*
X117004000Y-87680500D03*
X115484000Y-87680500D03*
X117004000Y-86880500D03*
X115484000Y-86880500D03*
X117004000Y-88480500D03*
X117004000Y-86080500D03*
X115484000Y-86080500D03*
X115484000Y-88480500D03*
G04 #@! TD*
D19*
G04 #@! TO.C,D4*
X116967000Y-105130500D03*
X119067000Y-105130500D03*
G04 #@! TD*
D20*
G04 #@! TO.C,L1*
X120523000Y-101320500D03*
X120523000Y-103320500D03*
G04 #@! TD*
D17*
G04 #@! TO.C,U1*
X116713000Y-102812500D03*
X118613000Y-102812500D03*
X117663000Y-100812500D03*
G04 #@! TD*
M02*
