M48
; DRILL file {KiCad (5.1.2)-2} date 8/12/2019 8:21:25 PM
; FORMAT={-:-/ absolute / inch / decimal}
; #@! TF.CreationDate,2019-08-12T20:21:25-04:00
; #@! TF.GenerationSoftware,Kicad,Pcbnew,(5.1.2)-2
; #@! TF.FileFunction,Plated,1,2,PTH
FMAT,2
INCH
T1C0.0079
T2C0.0157
T3C0.0236
T4C0.0295
T5C0.0335
%
G90
G05
T1
X5.275Y2.1975
X5.275Y1.0755
X5.275Y-0.0464
X5.295Y1.975
X5.295Y0.853
X5.295Y-0.2689
X5.3175Y1.5325
X5.3175Y0.4105
X5.3175Y-0.7114
X5.34Y1.695
X5.34Y0.573
X5.34Y-0.5489
X5.36Y1.14
X5.36Y0.018
X5.36Y-1.1039
X5.465Y1.78
X5.465Y0.658
X5.465Y-0.4639
X5.5395Y1.2245
X5.5395Y0.1025
X5.5395Y-1.0194
X5.54Y1.5375
X5.54Y0.4155
X5.54Y-0.7064
X5.574Y1.2695
X5.574Y0.1475
X5.574Y-0.9744
X5.61Y1.1225
X5.61Y0.0005
X5.61Y-1.1214
X5.642Y1.8711
X5.642Y0.7492
X5.642Y-0.3728
X5.65Y1.75
X5.65Y0.628
X5.65Y-0.4939
X5.7225Y1.3275
X5.7225Y0.2055
X5.7225Y-0.9164
X5.729Y1.153
X5.729Y0.0311
X5.729Y-1.0909
X5.735Y1.1225
X5.735Y0.0005
X5.735Y-1.1214
X5.7539Y1.3392
X5.7539Y0.2172
X5.7539Y-0.9047
X5.76Y1.885
X5.76Y0.763
X5.76Y-0.3589
X5.766Y1.756
X5.766Y0.634
X5.766Y-0.4879
X5.7785Y1.1665
X5.7785Y0.0445
X5.7785Y-1.0774
X5.79Y1.4886
X5.79Y0.3667
X5.79Y-0.7553
X5.81Y1.9407
X5.81Y0.8188
X5.81Y-0.3032
X5.82Y1.49
X5.82Y0.368
X5.82Y-0.7539
X5.8525Y1.53
X5.8525Y0.408
X5.8525Y-0.7139
X5.8683Y1.259
X5.8683Y0.137
X5.8683Y-0.9849
X5.8775Y2.1975
X5.8775Y1.0755
X5.8775Y-0.0464
X5.927Y2.1975
X5.927Y1.0755
X5.927Y-0.0464
X5.947Y1.975
X5.947Y0.853
X5.947Y-0.2689
X5.9695Y1.5325
X5.9695Y0.4105
X5.9695Y-0.7114
X5.992Y1.695
X5.992Y0.573
X5.992Y-0.5489
X6.012Y1.14
X6.012Y0.018
X6.012Y-1.1039
X6.117Y1.78
X6.117Y0.658
X6.117Y-0.4639
X6.1915Y1.2245
X6.1915Y0.1025
X6.1915Y-1.0194
X6.192Y1.5375
X6.192Y0.4155
X6.192Y-0.7064
X6.226Y1.2695
X6.226Y0.1475
X6.226Y-0.9744
X6.262Y1.1225
X6.262Y0.0005
X6.262Y-1.1214
X6.294Y1.8711
X6.294Y0.7492
X6.294Y-0.3728
X6.302Y1.75
X6.302Y0.628
X6.302Y-0.4939
X6.3745Y1.3275
X6.3745Y0.2055
X6.3745Y-0.9164
X6.381Y1.153
X6.381Y0.0311
X6.381Y-1.0909
X6.387Y1.1225
X6.387Y0.0005
X6.387Y-1.1214
X6.4059Y1.3392
X6.4059Y0.2172
X6.4059Y-0.9047
X6.412Y1.885
X6.412Y0.763
X6.412Y-0.3589
X6.418Y1.756
X6.418Y0.634
X6.418Y-0.4879
X6.4305Y1.1665
X6.4305Y0.0445
X6.4305Y-1.0774
X6.442Y1.4886
X6.442Y0.3667
X6.442Y-0.7553
X6.462Y1.9407
X6.462Y0.8188
X6.462Y-0.3032
X6.472Y1.49
X6.472Y0.368
X6.472Y-0.7539
X6.5045Y1.53
X6.5045Y0.408
X6.5045Y-0.7139
X6.5203Y1.259
X6.5203Y0.137
X6.5203Y-0.9849
X6.5295Y2.1975
X6.5295Y1.0755
X6.5295Y-0.0464
X6.5789Y2.1975
X6.5789Y1.0755
X6.5789Y-0.0464
X6.5989Y1.975
X6.5989Y0.853
X6.5989Y-0.2689
X6.6214Y1.5325
X6.6214Y0.4105
X6.6214Y-0.7114
X6.6439Y1.695
X6.6439Y0.573
X6.6439Y-0.5489
X6.6639Y1.14
X6.6639Y0.018
X6.6639Y-1.1039
X6.7689Y1.78
X6.7689Y0.658
X6.7689Y-0.4639
X6.8434Y1.2245
X6.8434Y0.1025
X6.8434Y-1.0194
X6.8439Y1.5375
X6.8439Y0.4155
X6.8439Y-0.7064
X6.8779Y1.2695
X6.8779Y0.1475
X6.8779Y-0.9744
X6.9139Y1.1225
X6.9139Y0.0005
X6.9139Y-1.1214
X6.9459Y1.8711
X6.9459Y0.7492
X6.9459Y-0.3728
X6.9539Y1.75
X6.9539Y0.628
X6.9539Y-0.4939
X7.0264Y1.3275
X7.0264Y0.2055
X7.0264Y-0.9164
X7.0329Y1.153
X7.0329Y0.0311
X7.0329Y-1.0909
X7.0389Y1.1225
X7.0389Y0.0005
X7.0389Y-1.1214
X7.0579Y1.3392
X7.0579Y0.2172
X7.0579Y-0.9047
X7.0639Y1.885
X7.0639Y0.763
X7.0639Y-0.3589
X7.0699Y1.756
X7.0699Y0.634
X7.0699Y-0.4879
X7.0824Y1.1665
X7.0824Y0.0445
X7.0824Y-1.0774
X7.0939Y1.4886
X7.0939Y0.3667
X7.0939Y-0.7553
X7.1139Y1.9407
X7.1139Y0.8188
X7.1139Y-0.3032
X7.1239Y1.49
X7.1239Y0.368
X7.1239Y-0.7539
X7.1564Y1.53
X7.1564Y0.408
X7.1564Y-0.7139
X7.1723Y1.259
X7.1723Y0.137
X7.1723Y-0.9849
X7.1814Y2.1975
X7.1814Y1.0755
X7.1814Y-0.0464
X7.2309Y2.1975
X7.2309Y1.0755
X7.2309Y-0.0464
X7.2509Y1.975
X7.2509Y0.853
X7.2509Y-0.2689
X7.2734Y1.5325
X7.2734Y0.4105
X7.2734Y-0.7114
X7.2959Y1.695
X7.2959Y0.573
X7.2959Y-0.5489
X7.3159Y1.14
X7.3159Y0.018
X7.3159Y-1.1039
X7.4209Y1.78
X7.4209Y0.658
X7.4209Y-0.4639
X7.4954Y1.2245
X7.4954Y0.1025
X7.4954Y-1.0194
X7.4959Y1.5375
X7.4959Y0.4155
X7.4959Y-0.7064
X7.5299Y1.2695
X7.5299Y0.1475
X7.5299Y-0.9744
X7.5659Y1.1225
X7.5659Y0.0005
X7.5659Y-1.1214
X7.5979Y1.8711
X7.5979Y0.7492
X7.5979Y-0.3728
X7.6059Y1.75
X7.6059Y0.628
X7.6059Y-0.4939
X7.6784Y1.3275
X7.6784Y0.2055
X7.6784Y-0.9164
X7.6849Y1.153
X7.6849Y0.0311
X7.6849Y-1.0909
X7.6909Y1.1225
X7.6909Y0.0005
X7.6909Y-1.1214
X7.7098Y1.3392
X7.7098Y0.2172
X7.7098Y-0.9047
X7.7159Y1.885
X7.7159Y0.763
X7.7159Y-0.3589
X7.7219Y1.756
X7.7219Y0.634
X7.7219Y-0.4879
X7.7344Y1.1665
X7.7344Y0.0445
X7.7344Y-1.0774
X7.7459Y1.4886
X7.7459Y0.3667
X7.7459Y-0.7553
X7.7659Y1.9407
X7.7659Y0.8188
X7.7659Y-0.3032
X7.7759Y1.49
X7.7759Y0.368
X7.7759Y-0.7539
X7.8084Y1.53
X7.8084Y0.408
X7.8084Y-0.7139
X7.8242Y1.259
X7.8242Y0.137
X7.8242Y-0.9849
X7.8334Y2.1975
X7.8334Y1.0755
X7.8334Y-0.0464
X7.8829Y2.1975
X7.8829Y1.0755
X7.8829Y-0.0464
X7.9029Y1.975
X7.9029Y0.853
X7.9029Y-0.2689
X7.9254Y1.5325
X7.9254Y0.4105
X7.9254Y-0.7114
X7.9479Y1.695
X7.9479Y0.573
X7.9479Y-0.5489
X7.9679Y1.14
X7.9679Y0.018
X7.9679Y-1.1039
X8.0729Y1.78
X8.0729Y0.658
X8.0729Y-0.4639
X8.1474Y1.2245
X8.1474Y0.1025
X8.1474Y-1.0194
X8.1479Y1.5375
X8.1479Y0.4155
X8.1479Y-0.7064
X8.1819Y1.2695
X8.1819Y0.1475
X8.1819Y-0.9744
X8.2179Y1.1225
X8.2179Y0.0005
X8.2179Y-1.1214
X8.2499Y1.8711
X8.2499Y0.7492
X8.2499Y-0.3728
X8.2579Y1.75
X8.2579Y0.628
X8.2579Y-0.4939
X8.3304Y1.3275
X8.3304Y0.2055
X8.3304Y-0.9164
X8.3369Y1.153
X8.3369Y0.0311
X8.3369Y-1.0909
X8.3429Y1.1225
X8.3429Y0.0005
X8.3429Y-1.1214
X8.3618Y1.3392
X8.3618Y0.2172
X8.3618Y-0.9047
X8.3679Y1.885
X8.3679Y0.763
X8.3679Y-0.3589
X8.3739Y1.756
X8.3739Y0.634
X8.3739Y-0.4879
X8.3864Y1.1665
X8.3864Y0.0445
X8.3864Y-1.0774
X8.3979Y1.4886
X8.3979Y0.3667
X8.3979Y-0.7553
X8.4179Y1.9407
X8.4179Y0.8188
X8.4179Y-0.3032
X8.4279Y1.49
X8.4279Y0.368
X8.4279Y-0.7539
X8.4604Y1.53
X8.4604Y0.408
X8.4604Y-0.7139
X8.4762Y1.259
X8.4762Y0.137
X8.4762Y-0.9849
X8.4854Y2.1975
X8.4854Y1.0755
X8.4854Y-0.0464
X8.5348Y2.1975
X8.5348Y1.0755
X8.5348Y-0.0464
X8.5548Y1.975
X8.5548Y0.853
X8.5548Y-0.2689
X8.5773Y1.5325
X8.5773Y0.4105
X8.5773Y-0.7114
X8.5998Y1.695
X8.5998Y0.573
X8.5998Y-0.5489
X8.6198Y1.14
X8.6198Y0.018
X8.6198Y-1.1039
X8.7248Y1.78
X8.7248Y0.658
X8.7248Y-0.4639
X8.7993Y1.2245
X8.7993Y0.1025
X8.7993Y-1.0194
X8.7998Y1.5375
X8.7998Y0.4155
X8.7998Y-0.7064
X8.8338Y1.2695
X8.8338Y0.1475
X8.8338Y-0.9744
X8.8698Y1.1225
X8.8698Y0.0005
X8.8698Y-1.1214
X8.9018Y1.8711
X8.9018Y0.7492
X8.9018Y-0.3728
X8.9098Y1.75
X8.9098Y0.628
X8.9098Y-0.4939
X8.9823Y1.3275
X8.9823Y0.2055
X8.9823Y-0.9164
X8.9888Y1.153
X8.9888Y0.0311
X8.9888Y-1.0909
X8.9948Y1.1225
X8.9948Y0.0005
X8.9948Y-1.1214
X9.0138Y1.3392
X9.0138Y0.2172
X9.0138Y-0.9047
X9.0198Y1.885
X9.0198Y0.763
X9.0198Y-0.3589
X9.0258Y1.756
X9.0258Y0.634
X9.0258Y-0.4879
X9.0383Y1.1665
X9.0383Y0.0445
X9.0383Y-1.0774
X9.0498Y1.4886
X9.0498Y0.3667
X9.0498Y-0.7553
X9.0698Y1.9407
X9.0698Y0.8188
X9.0698Y-0.3032
X9.0798Y1.49
X9.0798Y0.368
X9.0798Y-0.7539
X9.1123Y1.53
X9.1123Y0.408
X9.1123Y-0.7139
X9.1282Y1.259
X9.1282Y0.137
X9.1282Y-0.9849
X9.1373Y2.1975
X9.1373Y1.0755
X9.1373Y-0.0464
T2
X5.4Y1.63
X5.4Y0.508
X5.4Y-0.6139
X6.052Y1.63
X6.052Y0.508
X6.052Y-0.6139
X6.7039Y1.63
X6.7039Y0.508
X6.7039Y-0.6139
X7.3559Y1.63
X7.3559Y0.508
X7.3559Y-0.6139
X8.0079Y1.63
X8.0079Y0.508
X8.0079Y-0.6139
X8.6598Y1.63
X8.6598Y0.508
X8.6598Y-0.6139
T4
X6.1732Y-0.2899
X6.252Y-0.2899
X7.4772Y0.832
X7.5559Y0.832
X6.1732Y0.832
X6.252Y0.832
X6.8252Y1.954
X6.9039Y1.954
X8.7811Y0.832
X8.8598Y0.832
X8.7811Y1.954
X8.8598Y1.954
X8.1291Y1.954
X8.2079Y1.954
X5.5213Y-0.2899
X5.6Y-0.2899
X7.4772Y1.954
X7.5559Y1.954
X7.4772Y-0.2899
X7.5559Y-0.2899
X6.8252Y-0.2899
X6.9039Y-0.2899
X8.1291Y0.832
X8.2079Y0.832
X6.1732Y1.954
X6.252Y1.954
X5.5213Y1.954
X5.6Y1.954
X8.1291Y-0.2899
X8.2079Y-0.2899
X5.5213Y0.832
X5.6Y0.832
X6.8252Y0.832
X6.9039Y0.832
X8.7811Y-0.2899
X8.8598Y-0.2899
T5
X6.1235Y2.0574
X6.3204Y2.0574
X8.0794Y2.0574
X8.2763Y2.0574
X6.1235Y0.9355
X6.3204Y0.9355
X8.7314Y2.0574
X8.9283Y2.0574
X7.4275Y-0.1865
X7.6243Y-0.1865
X5.4716Y0.9355
X5.6684Y0.9355
X8.7314Y-0.1865
X8.9283Y-0.1865
X7.4275Y0.9355
X7.6243Y0.9355
X6.7755Y-0.1865
X6.9724Y-0.1865
X5.4716Y-0.1865
X5.6684Y-0.1865
X8.0794Y0.9355
X8.2763Y0.9355
X6.1235Y-0.1865
X6.3204Y-0.1865
X8.0794Y-0.1865
X8.2763Y-0.1865
X6.7755Y2.0574
X6.9724Y2.0574
X7.4275Y2.0574
X7.6243Y2.0574
X6.7755Y0.9355
X6.9724Y0.9355
X8.7314Y0.9355
X8.9283Y0.9355
X5.4716Y2.0574
X5.6684Y2.0574
T3
G00X6.0842Y2.1499
M15
G01X6.0842Y2.1775
M16
G05
G00X6.3598Y2.1775
M15
G01X6.3598Y2.1499
M16
G05
G00X8.0401Y2.1499
M15
G01X8.0401Y2.1775
M16
G05
G00X8.3157Y2.1775
M15
G01X8.3157Y2.1499
M16
G05
G00X6.0842Y1.028
M15
G01X6.0842Y1.0555
M16
G05
G00X6.3598Y1.0555
M15
G01X6.3598Y1.028
M16
G05
G00X8.692Y2.1499
M15
G01X8.692Y2.1775
M16
G05
G00X8.9676Y2.1775
M15
G01X8.9676Y2.1499
M16
G05
G00X7.3881Y-0.094
M15
G01X7.3881Y-0.0664
M16
G05
G00X7.6637Y-0.0664
M15
G01X7.6637Y-0.094
M16
G05
G00X5.4322Y1.028
M15
G01X5.4322Y1.0555
M16
G05
G00X5.7078Y1.0555
M15
G01X5.7078Y1.028
M16
G05
G00X8.692Y-0.094
M15
G01X8.692Y-0.0664
M16
G05
G00X8.9676Y-0.0664
M15
G01X8.9676Y-0.094
M16
G05
G00X7.3881Y1.028
M15
G01X7.3881Y1.0555
M16
G05
G00X7.6637Y1.0555
M15
G01X7.6637Y1.028
M16
G05
G00X6.7361Y-0.094
M15
G01X6.7361Y-0.0664
M16
G05
G00X7.0117Y-0.0664
M15
G01X7.0117Y-0.094
M16
G05
G00X5.4322Y-0.094
M15
G01X5.4322Y-0.0664
M16
G05
G00X5.7078Y-0.0664
M15
G01X5.7078Y-0.094
M16
G05
G00X8.0401Y1.028
M15
G01X8.0401Y1.0555
M16
G05
G00X8.3157Y1.0555
M15
G01X8.3157Y1.028
M16
G05
G00X6.0842Y-0.094
M15
G01X6.0842Y-0.0664
M16
G05
G00X6.3598Y-0.0664
M15
G01X6.3598Y-0.094
M16
G05
G00X8.0401Y-0.094
M15
G01X8.0401Y-0.0664
M16
G05
G00X8.3157Y-0.0664
M15
G01X8.3157Y-0.094
M16
G05
G00X6.7361Y2.1499
M15
G01X6.7361Y2.1775
M16
G05
G00X7.0117Y2.1775
M15
G01X7.0117Y2.1499
M16
G05
G00X7.3881Y2.1499
M15
G01X7.3881Y2.1775
M16
G05
G00X7.6637Y2.1775
M15
G01X7.6637Y2.1499
M16
G05
G00X6.7361Y1.028
M15
G01X6.7361Y1.0555
M16
G05
G00X7.0117Y1.0555
M15
G01X7.0117Y1.028
M16
G05
G00X8.692Y1.028
M15
G01X8.692Y1.0555
M16
G05
G00X8.9676Y1.0555
M15
G01X8.9676Y1.028
M16
G05
G00X5.4322Y2.1499
M15
G01X5.4322Y2.1775
M16
G05
G00X5.7078Y2.1775
M15
G01X5.7078Y2.1499
M16
G05
T0
M30
